<svg id="eXWvc8iofZl1" xmlns="http://www.w3.org/2000/svg" xmlns:xlink="http://www.w3.org/1999/xlink" viewBox="0 0 779.31989 579.94408" shape-rendering="geometricPrecision" text-rendering="geometricPrecision"><style><![CDATA[#eXWvc8iofZl37_tr {animation: eXWvc8iofZl37_tr__tr 2000ms linear 5 alternate forwards}@keyframes eXWvc8iofZl37_tr__tr { 0% {transform: translate(637.98px,214.882px) rotate(0deg);animation-timing-function: cubic-bezier(0.47,0,0.745,0.715)} 100% {transform: translate(637.98px,214.882px) rotate(-14.395438deg)}}]]></style><rect id="eXWvc8iofZl2" width="703.576" height="333.859" rx="0" ry="0" transform="matrix(1 0 0 1 0.3 19.289)" fill="rgb(230,230,230)" stroke="none" stroke-width="1" stroke-miterlimit="1"/><rect id="eXWvc8iofZl3" width="663.339" height="278.549" rx="0" ry="0" transform="matrix(0.13392 0.00528 -0.014557 0.369205 597.044234 107.595088)" fill="rgb(255,255,255)" stroke="none" stroke-width="1" stroke-miterlimit="1"/><rect id="eXWvc8iofZl4" width="703.576" height="29.89" rx="0" ry="0" fill="rgb(108,99,255)" stroke="none" stroke-width="1" stroke-miterlimit="1"/><circle id="eXWvc8iofZl5" r="5.54" transform="matrix(1 0 0 1 22.212 17.576)" fill="rgb(255,255,255)" stroke="none" stroke-width="1" stroke-miterlimit="1"/><circle id="eXWvc8iofZl6" r="5.54" transform="matrix(1 0 0 1 43.24 17.576)" fill="rgb(255,255,255)" stroke="none" stroke-width="1" stroke-miterlimit="1"/><circle id="eXWvc8iofZl7" r="5.54" transform="matrix(1 0 0 1 64.269 17.576)" fill="rgb(255,255,255)" stroke="none" stroke-width="1" stroke-miterlimit="1"/><rect id="eXWvc8iofZl8" width="93.4231" height="7.0219" rx="0" ry="0" transform="matrix(1 0 0 1 402.655 90.2678)" fill="rgb(230,230,230)" stroke="none" stroke-width="1" stroke-miterlimit="1"/><rect id="eXWvc8iofZl9" width="144.266" height="7.02188" rx="0" ry="0" transform="matrix(1 0 0 1 402.655 110.882)" fill="rgb(108,99,255)" stroke="none" stroke-width="1" stroke-miterlimit="1"/><rect id="eXWvc8iofZl10" width="117.573" height="7.02188" rx="0" ry="0" transform="matrix(1 0 0 1 404.155 130.514)" fill="rgb(230,230,230)" stroke="none" stroke-width="1" stroke-miterlimit="1"/><rect id="eXWvc8iofZl11" width="68.6374" height="7.02188" rx="0" ry="0" transform="matrix(1 0 0 1 402.655 152.055)" fill="rgb(230,230,230)" stroke="none" stroke-width="1" stroke-miterlimit="1"/><rect id="eXWvc8iofZl12" width="103.592" height="7.02188" rx="0" ry="0" transform="matrix(1 0 0 1 402.655 173.095)" fill="rgb(108,99,255)" stroke="none" stroke-width="1" stroke-miterlimit="1"/><rect id="eXWvc8iofZl13" width="11.4396" height="11.4396" rx="0" ry="0" transform="matrix(1 0 0 1 360.074 88.0589)" fill="rgb(230,230,230)" stroke="none" stroke-width="1" stroke-miterlimit="1"/><rect id="eXWvc8iofZl14" width="11.4396" height="11.4395" rx="0" ry="0" transform="matrix(1 0 0 1 360.074 108.673)" fill="rgb(108,99,255)" stroke="none" stroke-width="1" stroke-miterlimit="1"/><rect id="eXWvc8iofZl15" width="11.4396" height="11.4396" rx="0" ry="0" transform="matrix(1 0 0 1 360.074 128.305)" fill="rgb(230,230,230)" stroke="none" stroke-width="1" stroke-miterlimit="1"/><rect id="eXWvc8iofZl16" width="11.4396" height="11.4396" rx="0" ry="0" transform="matrix(1 0 0 1 360.074 149.846)" fill="rgb(230,230,230)" stroke="none" stroke-width="1" stroke-miterlimit="1"/><rect id="eXWvc8iofZl17" width="11.4396" height="11.4396" rx="0" ry="0" transform="matrix(1 0 0 1 360.074 170.887)" fill="rgb(108,99,255)" stroke="none" stroke-width="1" stroke-miterlimit="1"/><rect id="eXWvc8iofZl18" width="93.4231" height="7.02188" rx="0" ry="0" transform="matrix(1 0 0 1 402.655 194.268)" fill="rgb(230,230,230)" stroke="none" stroke-width="1" stroke-miterlimit="1"/><rect id="eXWvc8iofZl19" width="144.266" height="7.02188" rx="0" ry="0" transform="matrix(1 0 0 1 402.655 214.882)" fill="rgb(108,99,255)" stroke="none" stroke-width="1" stroke-miterlimit="1"/><rect id="eXWvc8iofZl20" width="117.573" height="7.02188" rx="0" ry="0" transform="matrix(1 0 0 1 404.155 234.514)" fill="rgb(230,230,230)" stroke="none" stroke-width="1" stroke-miterlimit="1"/><rect id="eXWvc8iofZl21" width="68.6374" height="7.02188" rx="0" ry="0" transform="matrix(1 0 0 1 402.655 256.055)" fill="rgb(230,230,230)" stroke="none" stroke-width="1" stroke-miterlimit="1"/><rect id="eXWvc8iofZl22" width="103.592" height="7.02188" rx="0" ry="0" transform="matrix(1 0 0 1 402.655 277.095)" fill="rgb(230,230,230)" stroke="none" stroke-width="1" stroke-miterlimit="1"/><rect id="eXWvc8iofZl23" width="11.4396" height="11.4396" rx="0" ry="0" transform="matrix(1 0 0 1 360.074 192.059)" fill="rgb(230,230,230)" stroke="none" stroke-width="1" stroke-miterlimit="1"/><rect id="eXWvc8iofZl24" width="11.4396" height="11.4395" rx="0" ry="0" transform="matrix(1 0 0 1 360.074 212.673)" fill="rgb(108,99,255)" stroke="none" stroke-width="1" stroke-miterlimit="1"/><rect id="eXWvc8iofZl25" width="11.4396" height="11.4396" rx="0" ry="0" transform="matrix(1 0 0 1 360.074 232.305)" fill="rgb(230,230,230)" stroke="none" stroke-width="1" stroke-miterlimit="1"/><rect id="eXWvc8iofZl26" width="11.4396" height="11.4396" rx="0" ry="0" transform="matrix(1 0 0 1 360.074 253.846)" fill="rgb(230,230,230)" stroke="none" stroke-width="1" stroke-miterlimit="1"/><rect id="eXWvc8iofZl27" width="11.4396" height="11.4396" rx="0" ry="0" transform="matrix(1 0 0 1 360.074 274.887)" fill="rgb(230,230,230)" stroke="none" stroke-width="1" stroke-miterlimit="1"/><rect id="eXWvc8iofZl28" width="93.4231" height="7.02189" rx="0" ry="0" transform="matrix(1 0 0 1 107.112 249.347)" fill="rgb(63,61,86)" stroke="none" stroke-width="1" stroke-miterlimit="1"/><rect id="eXWvc8iofZl29" width="117.573" height="7.02189" rx="0" ry="0" transform="matrix(1 0 0 1 94.6123 267.593)" fill="rgb(63,61,86)" stroke="none" stroke-width="1" stroke-miterlimit="1"/><path id="eXWvc8iofZl30" d="M424.88435,320.79764C424.876442,342.266098,413.587813,362.151107,395.157702,373.161364C376.727591,384.171621,353.867563,384.687222,334.95978,374.51911L334.94793,374.50725C308.685933,360.359239,296.507348,329.294049,306.157089,301.067445C315.806831,272.840841,344.454278,255.73272,373.881216,260.622913C403.308154,265.513106,424.882586,290.967141,424.88435,320.79764Z" transform="matrix(1 0 0 1 -210.340057 -160.027954)" fill="rgb(63,61,86)" stroke="none" stroke-width="1" stroke-miterlimit="1"/><circle id="eXWvc8iofZl31" r="16.5825" transform="matrix(1 0 0 1 153.855 141.226)" fill="rgb(255,255,255)" stroke="none" stroke-width="1" stroke-miterlimit="1"/><path id="eXWvc8iofZl32" d="M392.50991,352.1C373.97177,358.607052,353.757831,358.528762,335.27065,351.87831L335.25879,351.87009L347.61269,327.48394L380.77774,327.48394Z" transform="matrix(1 0 0 1 -210.340057 -160.027954)" fill="rgb(255,255,255)" stroke="none" stroke-width="1" stroke-miterlimit="1"/><polygon id="eXWvc8iofZl33" points="656.072,567.394 643.813,567.394 637.98,520.106 656.075,520.107 656.072,567.394" fill="rgb(255,183,183)" stroke="none" stroke-width="1" stroke-miterlimit="1"/><path id="eXWvc8iofZl34" d="M869.53913,739.30633L830.00837,739.30487L830.00837,738.80487C830.00895,730.307436,836.897406,723.419087,845.39484,723.41864L845.39584,723.41864L869.53984,723.41964Z" transform="matrix(1 0 0 1 -210.340057 -160.027954)" fill="rgb(47,46,65)" stroke="none" stroke-width="1" stroke-miterlimit="1"/><polygon id="eXWvc8iofZl35" points="686.016,567.394 698.276,567.394 704.108,520.106 686.014,520.107 686.016,567.394" fill="rgb(255,183,183)" stroke="none" stroke-width="1" stroke-miterlimit="1"/><path id="eXWvc8iofZl36" d="M893.22884,723.41961L917.37284,723.41861L917.37384,723.41861C925.871273,723.419063,932.759729,730.307407,932.76032,738.80484L932.76032,739.30484L893.22955,739.3063Z" transform="matrix(1 0 0 1 -210.340057 -160.027954)" fill="rgb(47,46,65)" stroke="none" stroke-width="1" stroke-miterlimit="1"/><g id="eXWvc8iofZl37_tr" transform="translate(637.98,214.882) rotate(0)"><g id="eXWvc8iofZl37" transform="translate(-638.838868,-214.808796)"><circle id="eXWvc8iofZl38" r="21.4281" transform="matrix(0.444951 -0.895555 0.895555 0.444951 634.157684 188.319048)" fill="rgb(255,183,183)" stroke="none" stroke-width="1" stroke-miterlimit="1"/><path id="eXWvc8iofZl39" d="M864.36734,327.36577L865.37097,325.34577L860.32097,322.8367C860.32097,322.8367,854.74997,313.77213,844.66913,316.31947C834.58829,318.86681,830.05272,320.39134,830.05272,320.39134L825.01548,322.92591L827.54365,325.44136L823.00821,326.96594L826.03821,328.47137L822.51274,330.49774L824.41058,340.88562C824.41058,340.88562,827.56275,333.00681,833.62272,336.01768C839.68269,339.02855,850.7673,334.46125,850.7673,334.46125L860.39738,353.0985C860.39738,353.0985,862.38407,346.56522,865.92622,348.30729C865.92624,348.30732,874.97551,333.89572,864.36734,327.36577Z" transform="matrix(1 0 0 1 -210.340057 -160.027954)" fill="rgb(47,46,65)" stroke="none" stroke-width="1" stroke-miterlimit="1"/></g></g><path id="eXWvc8iofZl40" d="M828.719,495.75878C828.719,495.75878,821.95222,523.95366,825.33564,537.48723C828.71906,551.0208,838.86921,643.50005,838.86921,643.50005L845.63599,716.80681L872.70307,719.06243L869.31967,633.35L872.70303,558.91543L891.87558,631.09443L891.87558,717.06251L920.58163,718.19032L921.19827,606.28291C921.19827,606.28291,923.45389,518.31483,908.79251,507.03691C894.13113,495.75899,891.87558,493.50337,891.87558,493.50337Z" transform="matrix(1 0 0 1 -210.340057 -160.027954)" fill="rgb(47,46,65)" stroke="none" stroke-width="1" stroke-miterlimit="1"/><path id="eXWvc8iofZl41" d="M869.57968,371.70122L895.25894,385.23476L898.6423,502.52553C898.6423,502.52553,883.98092,493.50316,861.42502,504.78112C838.86912,516.05908,824.20773,508.16451,824.20773,508.16451L837.7413,457.41369L832.1023,389.74593L840.16773,382.42546Z" transform="matrix(1 0 0 1 -210.340057 -160.027954)" fill="rgb(203,203,203)" stroke="none" stroke-width="1" stroke-miterlimit="1"/><path id="eXWvc8iofZl42" d="M840.1705,380.2907L835.48575,384.10698C835.48575,384.10698,806.16305,398.76833,805.03525,408.91851L825.3356,464.18051C825.3356,464.18051,830.9746,476.58627,826.46341,481.09744C821.95222,485.60861,817.44101,496.8866,818.56881,502.52557C819.69661,508.16454,811.80203,531.84827,820.82443,531.84827C829.84683,531.84827,851.27493,477.71405,850.14712,456.28592C849.01931,434.85779,848.23868,378.73,840.1705,380.2907Z" transform="matrix(1 0 0 1 -210.340057 -160.027954)" fill="rgb(47,46,65)" stroke="none" stroke-width="1" stroke-miterlimit="1"/><path id="eXWvc8iofZl43" d="M859.88435,372.972L870.2142,371.25313C870.2142,371.25313,908.55929,381.40328,914.19827,398.32024L898.40909,437.79308C898.40909,437.79308,909.68709,509.972,906.30368,509.972L902.92032,509.972C902.92032,509.972,911.94265,516.73879,906.30368,518.99437C900.66471,521.24995,887.13113,539.29469,883.74777,531.4001C880.36441,523.50551,860.06405,429.89845,862.31967,409.5981C864.57529,389.29775,857.88136,375.09878,859.88435,372.972Z" transform="matrix(1 0 0 1 -210.340057 -160.027954)" fill="rgb(47,46,65)" stroke="none" stroke-width="1" stroke-miterlimit="1"/><path id="eXWvc8iofZl44" d="M895.73611,525.2648C894.608101,522.510911,894.757838,519.398826,896.14503,516.765956C897.532222,514.133085,900.01437,512.249887,902.92357,511.6231L907.2647,476.15292L921.41034,488.18349L915.11925,520.02216C915.86467,525.090489,912.701459,529.915337,907.7563,531.252876C902.81114,532.590414,897.647125,530.017866,895.73611,525.2648Z" transform="matrix(1 0 0 1 -210.340057 -160.027954)" fill="rgb(255,183,183)" stroke="none" stroke-width="1" stroke-miterlimit="1"/><path id="eXWvc8iofZl45" d="M835.234,522.824C836.06364,519.96603,835.584761,516.88737,833.92622,514.416432C832.267678,511.945493,829.599847,510.3361,826.64059,510.02131L818.56293,475.21139L805.77268,488.674L815.40425,519.66612C815.200441,524.784908,818.8574,529.247149,823.916495,530.052808C828.97559,530.858466,833.83772,527.752887,835.234,522.824Z" transform="matrix(1 0 0 1 -210.340057 -160.027954)" fill="rgb(255,183,183)" stroke="none" stroke-width="1" stroke-miterlimit="1"/><path id="eXWvc8iofZl46" d="M896.28134,389.12932C896.28134,389.12932,910.94265,383.49032,915.45389,400.40732C919.96513,417.32432,925.604,451.15816,925.604,451.15816C925.88432,469.97204,924.88432,469.97204,925.604,488.37542L922.22064,505.29235L903.04809,503.03673L903.88432,459.97204L894.02569,416.1964Z" transform="matrix(1 0 0 1 -210.340057 -160.027954)" fill="rgb(47,46,65)" stroke="none" stroke-width="1" stroke-miterlimit="1"/><path id="eXWvc8iofZl47" d="M815.18539,402.15169L808.23398,402.89525C808.23398,402.89525,801.65182,407.79067,801.65182,419.06862C801.65182,430.34657,800.52401,464.18047,800.52401,464.18047C800.52401,464.18047,799.88435,464.97204,805.03518,493.50316C807.54577,507.40961,811.88435,513.97204,811.88435,513.97204L825.88435,500.97204L824.20779,467.56383L828.71896,449.51909Z" transform="matrix(1 0 0 1 -210.340057 -160.027954)" fill="rgb(47,46,65)" stroke="none" stroke-width="1" stroke-miterlimit="1"/><path id="eXWvc8iofZl48" d="M988.65994,739.972L764.65994,739.972C764.107655,739.972,763.65994,739.524285,763.65994,738.972C763.65994,738.419715,764.107655,737.972,764.65994,737.972L988.65994,737.972C989.212225,737.972,989.65994,738.419715,989.65994,738.972C989.65994,739.524285,989.212225,739.972,988.65994,739.972Z" transform="matrix(1 0 0 1 -210.340057 -160.027954)" fill="rgb(203,203,203)" stroke="none" stroke-width="1" stroke-miterlimit="1"/><path id="eXWvc8iofZl49" d="M522.65994,739.972L403.65994,739.972C403.107655,739.972,402.65994,739.524285,402.65994,738.972C402.65994,738.419715,403.107655,737.972,403.65994,737.972L522.65994,737.972C523.212225,737.972,523.65994,738.419715,523.65994,738.972C523.65994,739.524285,523.212225,739.972,522.65994,739.972Z" transform="matrix(1 0 0 1 -210.340057 -160.027954)" fill="rgb(203,203,203)" stroke="none" stroke-width="1" stroke-miterlimit="1"/><path id="eXWvc8iofZl50" d="M469.74545,697.43517C450.23461,711.97952,444.70502,737.56982,444.70502,737.56982C444.70502,737.56982,470.80871,739.57909,490.31955,725.03471C509.83039,710.49033,515.36,684.90006,515.36,684.90006C515.36,684.90006,489.2563,682.89085,469.74545,697.43517Z" transform="matrix(1 0 0 1 -210.340057 -160.027954)" fill="rgb(242,242,242)" stroke="none" stroke-width="1" stroke-miterlimit="1"/><path id="eXWvc8iofZl51" d="M477.8728,704.26376C468.49572,726.72,445.011,738.292,445.011,738.292C445.011,738.292,436.72959,713.45535,446.10668,690.99915C455.48377,668.54295,478.9684,656.97092,478.9684,656.97092C478.9684,656.97092,487.24989,681.80755,477.8728,704.26376Z" transform="matrix(1 0 0 1 -210.340057 -160.027954)" fill="rgb(242,242,242)" stroke="none" stroke-width="1" stroke-miterlimit="1"/></svg>