<svg width="957" height="272" viewBox="0 0 957 272" fill="none" xmlns="http://www.w3.org/2000/svg">
<g id="header 2">
<g id="header 1">
<g id="#00ffffff">
<path id="Vector" d="M136.56 65.93C138.14 63.28 141.42 64.12 144.01 63.97C154.29 64.16 164.59 63.73 174.87 64.21C175.27 66.51 175.24 68.88 175.73 71.17C177.24 81.42 179.14 91.74 179.1 102.12C177.8 111.4 177.43 120.82 175.42 129.98C172.34 109.72 170.38 89.29 167.59 68.98C167.52 67.53 166.8 65.94 165.08 66.1C155.58 65.77 146.06 66.18 136.56 65.93Z" fill="#00FFFF"/>
<path id="Vector 2" d="M190.63 65.94C192.27 63.41 195.44 64.05 198 63.96C206.66 64.17 215.34 63.74 223.99 64.15C226.39 64.32 225.51 67.39 225.45 68.97C220.08 111.33 215.03 153.74 209.63 196.09C209.43 200.22 204.37 198.78 201.66 198.98C207.07 154.77 213.15 110.6 217.76 66.32C208.74 65.63 199.67 66.21 190.63 65.94Z" fill="#00FFFF"/>
<path id="Vector 3" d="M273.5 65.93C275.39 63.05 279.12 64.21 282 63.97C292.51 64.24 303.06 63.54 313.55 64.36C317.73 109.01 321.3 153.78 324.57 198.52C321.99 198.94 319.38 199.06 316.78 199.02C313.23 155.07 309.97 111.03 305.82 67.16C295.72 64.4 284.16 66.86 273.5 65.93Z" fill="#00FFFF"/>
<path id="Vector 4" d="M359.63 65.94C360.48 64.88 361.39 63.72 362.94 64.03C374.01 64.03 385.09 63.83 396.15 64.17C396.52 66.14 396.9 68.11 396.96 70.12C397.2 76.18 397.82 82.21 398.02 88.27C395.98 95.07 394.45 102.08 391.55 108.59C390.13 95.43 389.99 82.17 388.88 68.99C388.97 67.36 387.8 65.79 386.05 66.08C377.25 65.8 368.43 66.16 359.63 65.94Z" fill="#00FFFF"/>
<path id="Vector 5" d="M411.7 65.94C412.75 64.65 414.2 63.79 415.93 64.01C426.73 63.97 437.54 64.01 448.35 64.01C449.14 67.46 446.81 70.45 445.62 73.5C434.38 98.93 423 124.3 411.9 149.78C409.09 165.36 408.07 181.26 405.55 196.9C404.78 200.25 400.21 198.61 397.75 198.98C399.83 184.31 401.42 169.57 403.36 154.88C403.92 150.87 405.99 147.32 407.56 143.66C416.9 122.63 426.21 101.59 435.53 80.54C437.53 75.86 440.14 71.37 441.04 66.3C431.27 65.63 421.48 66.21 411.7 65.94Z" fill="#00FFFF"/>
<path id="Vector 6" d="M469.78 65.94C472.06 63.14 475.84 64.13 479 63.98C500.92 64.21 522.86 63.61 544.77 64.28C544.56 73.6 542.9 82.82 541.78 92.05C541.63 96.19 536.52 94.79 533.81 94.99C534.72 85.54 537.25 75.86 536.52 66.46C514.35 65.33 492.01 66.4 469.78 65.94Z" fill="#00FFFF"/>
<path id="Vector 7" d="M566.69 65.94C567.76 64.66 569.2 63.77 570.94 64C593.31 64 615.69 63.99 638.06 64.01C639.51 63.96 641.89 64.07 641.63 66.13C640.85 75.06 639.61 83.97 638.43 92.85C637.49 96.23 633.07 94.66 630.54 94.96C631.85 85.45 633.31 75.92 633.76 66.32C611.43 65.54 589.05 66.28 566.69 65.94Z" fill="#00FFFF"/>
<path id="Vector 8" d="M662.5 65.93C663.24 64.69 664.41 63.79 665.94 64.02C674.97 63.93 684.01 64.05 693.04 63.97C694.54 64.14 696.8 63.66 697.51 65.45C699.78 70.43 701.43 75.67 703.59 80.71C704.47 82.99 705.35 85.31 705.69 87.75C704.15 90.4 702.44 92.93 700.72 95.46C697.08 86.86 693.98 78.04 690.55 69.36C689.89 67.85 689.06 65.8 687.03 66.09C678.86 65.78 670.67 66.17 662.5 65.93Z" fill="#00FFFF"/>
<path id="Vector 9" d="M725.3 65.92C726.21 64.78 727.35 63.75 728.94 64.02C739.3 64.06 749.68 63.77 760.05 64.22C760.4 68.24 759.68 72.23 759.18 76.2C754.27 116.16 749.45 156.13 744.5 196.08C744.4 200.15 739.14 198.77 736.49 198.97C741.37 161.03 745.79 123.02 750.51 85.06C751.14 78.78 752.47 72.54 752.29 66.2C743.3 65.75 734.29 66.18 725.3 65.92Z" fill="#00FFFF"/>
<path id="Vector 10" d="M826.32 65.92C827.59 63.36 830.68 64.12 833.01 63.96C842.28 64.13 851.57 63.78 860.85 64.17C862.21 68.36 859.4 72.09 857.78 75.74C838.37 115.96 819.03 156.23 799.64 196.46C798.57 200.01 794.31 198.79 791.55 199C810.74 159.08 829.97 119.18 849.19 79.28C851.05 75.11 854.2 71 853.16 66.17C844.21 65.79 835.26 66.15 826.32 65.92Z" fill="#00FFFF"/>
<path id="Vector 11" d="M103.56 95.91C106.02 94.84 108.57 93.91 111.27 93.72C111.12 102.8 109.25 111.75 108.41 120.78C107.96 123.42 108.13 127.13 104.85 127.89C92 132.57 78.95 136.74 66.08 141.37C65.85 142.69 67.83 142.7 68.61 143.28C79.59 147.36 90.58 151.45 101.49 155.73C104.72 156.74 103.22 160.55 103.1 162.98C101.73 171.9 101.52 181 99.5 189.81C97.06 189.73 94.77 188.86 92.58 187.85C93.37 178.24 95.42 168.68 95.48 159.07C83.36 152.83 69.82 149.39 57.33 143.79C70.54 138.64 84.19 134.65 97.45 129.63C100.23 128.76 100.14 125.44 100.57 123.09C101.48 114.02 103.07 105.02 103.56 95.91Z" fill="#00FFFF"/>
<path id="Vector 12" d="M878.69 98.17C879 95.9 880.45 92.73 883.18 94.59C904.72 104.74 926.2 115.05 947.71 125.29C951.17 126.39 949.74 130.44 949.62 133.11C948.49 140.68 947.9 148.34 946.61 155.89C946.37 157.95 944.02 158.45 942.51 159.31C921.51 168.26 900.52 177.24 879.53 186.21C875.7 187.74 872.01 190.15 867.73 189.92C890.31 180.06 913.05 170.56 935.66 160.79C937.66 160.11 939.07 158.46 939.11 156.3C940.12 147.83 941.39 139.38 942.18 130.89C942.69 128.8 940.71 127.71 939.16 126.95C918.98 117.4 898.83 107.8 878.69 98.17Z" fill="#00FFFF"/>
<path id="Vector 13" d="M494.12 97.04C496.6 97.02 499.09 97.01 501.59 97.01C501.54 97.44 501.45 98.3 501.41 98.73C500.87 104.49 499.86 110.21 499.51 115.99C506.72 116.09 513.95 115.82 521.16 116.17C521.17 125.47 519.35 134.7 518.29 143.92C518.04 148.12 513.08 146.84 510.3 146.96C511.46 137.38 513.28 127.81 513.35 118.13C506.1 117.87 498.85 118.07 491.6 117.98C492.3 110.98 493.19 104.01 494.12 97.04Z" fill="#00FFFF"/>
<path id="Vector 14" d="M590.93 97.01C593.33 97 595.74 97 598.16 96.99C598.13 97.42 598.06 98.28 598.03 98.71C597.71 104.5 596.6 110.21 596.27 116C603.47 116.08 610.69 115.81 617.89 116.18C617.9 125.54 616.12 134.81 615 144.07C614.75 148.17 609.75 146.8 607.06 146.95C608.27 137.39 609.9 127.84 610.17 118.19C602.9 117.82 595.63 118.08 588.36 117.99C589.07 110.98 589.9 103.98 590.93 97.01Z" fill="#00FFFF"/>
<path id="Vector 15" d="M269.45 155.15C272.83 142.73 274.86 129.73 279.32 117.72C279.51 125.76 279.75 133.81 279.87 141.85C279.22 145.54 278.16 149.14 277.26 152.77C278.28 153.02 279.3 153.26 280.32 153.52C278.21 156.88 272.88 154.57 269.45 155.15Z" fill="#00FFFF"/>
<path id="Vector 16" d="M683.82 119.44C686.11 122.73 687.61 126.47 689.18 130.13C689.94 134.1 688.81 138.08 688.45 142.04C686.15 160.05 684.04 178.08 681.68 196.09C681.64 200.25 676.39 198.75 673.71 198.99C677.31 172.5 680.11 145.91 683.82 119.44Z" fill="#00FFFF"/>
<path id="Vector 17" d="M699.65 134.8C703.45 129.46 706.9 123.86 711.13 118.84C710.94 122.23 710.63 125.62 710.09 128.97C707.62 132.78 704.94 136.45 702.42 140.23C702.17 139.73 701.66 138.74 701.41 138.24C700.81 137.1 700.23 135.95 699.65 134.8Z" fill="#00FFFF"/>
<path id="Vector 18" d="M147.54 199.01C150.25 178.92 152.19 158.72 155 138.65C156.6 148.87 157.88 159.15 158.88 169.46C157.39 179.07 156.68 188.8 155.08 198.4C152.61 198.94 150.07 199.08 147.54 199.01Z" fill="#00FFFF"/>
<path id="Vector 19" d="M487.68 149.11C490.19 149.05 492.71 148.99 495.23 148.98C495.17 149.5 495.06 150.54 495.01 151.06C494.43 156.68 493.62 162.27 493.04 167.89C506 168.25 518.97 167.7 531.92 168.19C531.97 177.59 530.06 186.89 529.04 196.21C528.64 200.18 523.79 198.78 521.12 198.95C522.23 189.38 523.99 179.84 524.21 170.19C511.24 169.75 498.27 170.13 485.3 169.99C485.88 163 486.88 156.07 487.68 149.11Z" fill="#00FFFF"/>
<path id="Vector 20" d="M584.44 149.08C586.95 149.04 589.46 148.99 591.98 148.98C591.93 149.5 591.83 150.53 591.77 151.05C591.21 156.68 590.28 162.26 589.83 167.9C602.61 168.57 615.94 167.07 628.39 168.64C629.16 177.48 626.56 186.92 625.84 195.97C625.66 200.14 620.58 198.82 617.82 198.99C619.03 189.43 620.72 179.87 620.94 170.21C607.95 169.69 594.95 170.22 581.96 169.93C582.71 162.97 583.62 156.03 584.44 149.08Z" fill="#00FFFF"/>
<path id="Vector 21" d="M262.09 183.04C264.49 183.03 266.9 183.02 269.31 183C269.17 183.48 268.9 184.43 268.76 184.9C267.46 189.25 266.97 193.87 265.11 198.03C263.25 199.77 260.16 198.71 257.81 199.02C259.37 193.73 260.44 188.3 262.09 183.04Z" fill="#00FFFF"/>
</g>
<g id="#191919ff">
<path id="Vector 22" d="M129.03 67.9801C130.24 64.9901 134.06 66.2401 136.56 65.9301C146.06 66.1801 155.58 65.7701 165.08 66.1001C166.8 65.9401 167.52 67.5301 167.59 68.9801C170.38 89.2901 172.34 109.72 175.42 129.98C177.43 120.82 177.8 111.4 179.1 102.12C180.48 90.7501 181.55 79.3301 183.13 67.9901C184.38 65.0301 188.13 66.2201 190.63 65.9401C199.67 66.2101 208.74 65.6301 217.76 66.3201C213.15 110.6 207.07 154.77 201.66 198.98C200.62 202.06 196.7 200.74 194.25 201.06C184.51 200.81 174.74 201.26 165 200.89C162.93 200.98 162.79 198.48 162.47 197.01C161.25 187.83 160.38 178.6 158.88 169.46C157.88 159.15 156.6 148.87 155 138.65C152.19 158.72 150.25 178.92 147.54 199.01C146.31 201.97 142.52 200.75 140.03 201.03C131.06 200.83 122.08 201.33 113.13 200.71C117.62 156.41 123.62 112.2 129.03 67.9801Z" fill="#072C33"/>
<path id="Vector 23" d="M265.84 68.0501C267.15 65.1101 270.95 66.1701 273.5 65.9301C284.16 66.8601 295.72 64.4001 305.82 67.1601C309.97 111.03 313.23 155.07 316.78 199.02C316 202.13 311.72 200.68 309.36 201.06C300.14 200.94 290.92 201.02 281.7 201.02C280.6 195.11 281.03 189.08 280.63 183.12C276.86 183.01 273.08 182.92 269.31 183C266.9 183.02 264.49 183.03 262.09 183.04C260.44 188.3 259.37 193.73 257.81 199.02C256.71 202.02 252.81 200.74 250.37 201.06C241.25 200.81 232.12 201.33 223.02 200.72C223.6 196.48 224.99 192.42 226.43 188.41C239.58 148.3 252.72 108.17 265.84 68.0501ZM269.45 155.15C272.88 154.57 278.21 156.88 280.32 153.52C279.88 149.64 280.05 145.74 279.87 141.85C279.75 133.81 279.51 125.76 279.32 117.72C274.86 129.73 272.83 142.73 269.45 155.15Z" fill="#072C33"/>
<path id="Vector 24" d="M352.16 68.01C353.14 64.85 357.16 66.32 359.63 65.94C368.43 66.16 377.25 65.8 386.05 66.08C387.8 65.79 388.97 67.36 388.88 68.99C389.99 82.17 390.13 95.43 391.55 108.59C394.45 102.08 395.98 95.07 398.02 88.27C400.24 81.56 402.07 74.72 404.28 68C405.41 65.03 409.25 66.25 411.7 65.94C421.48 66.21 431.27 65.63 441.04 66.3C440.14 71.37 437.53 75.86 435.53 80.54C426.21 101.59 416.9 122.63 407.56 143.66C405.99 147.32 403.92 150.87 403.36 154.88C401.42 169.57 399.83 184.31 397.75 198.98C396.74 202.04 392.74 200.74 390.32 201.06C381.12 200.59 371.83 201.79 362.7 200.36C364.21 185.79 366.12 171.27 367.9 156.74C368.66 150.9 366.73 145.23 365.78 139.54C361.29 115.69 356.37 91.9 352.16 68.01Z" fill="#072C33"/>
<path id="Vector 25" d="M462.49 68.0101C463.67 65.0701 467.32 66.2001 469.78 65.9401C492.01 66.4001 514.35 65.3301 536.52 66.4601C537.25 75.8601 534.72 85.5401 533.81 94.9901C532.72 98.0201 528.79 96.7101 526.35 97.1201C518.89 100.79 509.58 97.7601 501.41 98.7301C501.45 98.3001 501.54 97.4401 501.59 97.0101C499.09 97.0101 496.6 97.0201 494.12 97.0401C493.19 104.01 492.3 110.98 491.6 117.98C498.85 118.07 506.1 117.87 513.35 118.13C513.28 127.81 511.46 137.38 510.3 146.96C509.21 149.93 505.36 148.77 502.96 149.05C500.38 149.02 497.8 148.98 495.23 148.98C492.71 148.99 490.19 149.05 487.68 149.11C486.88 156.07 485.88 163 485.3 169.99C498.27 170.13 511.24 169.75 524.21 170.19C523.99 179.84 522.23 189.38 521.12 198.95C519.94 201.98 516 200.77 513.48 201.08C491.23 200.77 468.97 201.31 446.72 200.8C446.63 196.61 447.08 192.43 447.69 188.28C452.7 148.2 457.38 108.08 462.49 68.0101Z" fill="#072C33"/>
<path id="Vector 26" d="M559.27 68.01C560.4 65 564.22 66.23 566.69 65.94C589.05 66.28 611.43 65.54 633.76 66.32C633.31 75.92 631.85 85.45 630.54 94.96C630.09 95.67 629.62 96.37 629.12 97.04C627.11 96.99 625.11 97.02 623.11 97C622.38 97.58 621.66 98.17 620.96 98.76C613.31 98.7 605.67 98.78 598.03 98.71C598.06 98.28 598.13 97.42 598.16 96.99C595.74 97 593.33 97 590.93 97.01C589.9 103.98 589.07 110.98 588.36 117.99C595.63 118.08 602.9 117.82 610.17 118.19C609.9 127.84 608.27 137.39 607.06 146.95C605.96 149.87 602.17 148.82 599.77 149.04C597.17 149.01 594.57 148.97 591.98 148.98C589.46 148.99 586.95 149.04 584.44 149.08C583.62 156.03 582.71 162.97 581.96 169.93C594.95 170.22 607.95 169.69 620.94 170.21C620.72 179.87 619.03 189.43 617.82 198.99C616.7 202 612.82 200.76 610.37 201.06C588.02 200.67 565.63 201.54 543.31 200.62C547.96 156.36 553.84 112.19 559.27 68.01Z" fill="#072C33"/>
<path id="Vector 27" d="M654.79 68.02C655.97 64.93 659.96 66.28 662.5 65.93C670.67 66.17 678.86 65.78 687.03 66.09C689.06 65.8 689.89 67.85 690.55 69.36C693.98 78.04 697.08 86.86 700.72 95.46C702.44 92.93 704.15 90.4 705.69 87.75C709.52 81.12 713.55 74.61 717.46 68.03C718.99 65.16 722.64 66.15 725.3 65.92C734.29 66.18 743.3 65.75 752.29 66.2C752.47 72.54 751.14 78.78 750.51 85.06C745.79 123.02 741.37 161.03 736.49 198.97C735.39 201.92 731.71 200.8 729.29 201.07C720.11 200.84 710.93 201.24 701.75 200.8C703.56 176.78 707.51 152.93 710.09 128.97C710.63 125.62 710.94 122.23 711.13 118.84C706.9 123.86 703.45 129.46 699.65 134.8C697.97 137.28 696.3 139.77 694.48 142.16C693.68 140.38 692.89 138.59 692.11 136.81C691.11 134.59 690.12 132.37 689.18 130.13C687.61 126.47 686.11 122.73 683.82 119.44C680.11 145.91 677.31 172.5 673.71 198.99C672.8 202.03 668.78 200.75 666.42 201.06C657.17 200.58 647.83 201.8 638.65 200.35C643.81 156.22 649.27 112.11 654.79 68.02Z" fill="#072C33"/>
<path id="Vector 28" d="M818.57 68.02C819.95 65.07 823.72 66.19 826.32 65.92C835.26 66.15 844.21 65.79 853.16 66.17C854.2 71 851.05 75.11 849.19 79.28C829.97 119.18 810.74 159.08 791.55 199C790.29 201.86 786.62 200.8 784.16 201.07C774.94 200.85 765.71 201.22 756.5 200.83C757.1 197.11 758.7 193.69 760.43 190.38C779.85 149.61 799.11 108.76 818.57 68.02Z" fill="#072C33"/>
<path id="Vector 29" d="M96.12 97.9C98.46 96.79 100.93 95.91 103.56 95.91C103.07 105.02 101.48 114.02 100.57 123.09C100.14 125.44 100.23 128.76 97.45 129.63C84.19 134.65 70.54 138.64 57.33 143.79C69.82 149.39 83.36 152.83 95.48 159.07C95.42 168.68 93.37 178.24 92.58 187.85C92.8 193.63 87.05 191.15 84.07 189.24C63.42 178.9 41.95 169.97 21.75 158.89C21.52 150.86 23.61 142.93 24.16 134.92C24.6 132.2 24.31 128.45 27.53 127.38C50.31 117.37 73.33 107.89 96.12 97.9Z" fill="#072C33"/>
<path id="Vector 30" d="M872.92 95.66C874.86 96.44 876.8 97.25 878.69 98.17C898.83 107.8 918.98 117.4 939.16 126.95C940.71 127.71 942.69 128.8 942.18 130.89C941.39 139.38 940.12 147.83 939.11 156.3C939.07 158.46 937.66 160.11 935.66 160.79C913.05 170.56 890.31 180.06 867.73 189.92C865.36 190.95 862.93 192.08 860.29 191.89C860.94 182.87 862.31 173.92 863.17 164.92C863.57 162.53 863.45 159.12 866.29 158.22C879.6 153.19 893.28 149.14 906.56 144.01C895.2 139.33 883.59 135.28 872.11 130.91C870.45 130.06 867.53 129.43 868.16 126.97C868.9 118.04 870.36 109.17 871.31 100.25C871.4 98.59 872.15 97.1 872.92 95.66Z" fill="#072C33"/>
</g>
<g id="#ff0000ff">
<path id="Vector 31" d="M121.09 71.0001C121.38 66.9101 126.26 68.1401 129.03 67.9801C123.62 112.2 117.62 156.41 113.13 200.71C122.08 201.33 131.06 200.83 140.03 201.03C139.35 201.67 138.69 202.33 138.03 202.99C127.7 202.9 117.34 203.21 107.01 202.86C105.07 202.96 105.15 200.37 105.37 199.07C110.67 156.39 115.74 113.67 121.09 71.0001Z" fill="#FF0000"/>
<path id="Vector 32" d="M175.97 69.0501C177.94 67.3401 180.77 68.2 183.13 67.99C181.55 79.33 180.48 90.7501 179.1 102.12C179.14 91.7401 177.24 81.42 175.73 71.17C175.79 70.64 175.91 69.5801 175.97 69.0501Z" fill="#FF0000"/>
<path id="Vector 33" d="M257.9 70.71C258.72 67 263.09 68.11 265.84 68.05C252.72 108.17 239.58 148.3 226.43 188.41C224.99 192.42 223.6 196.48 223.02 200.72C232.12 201.33 241.25 200.81 250.37 201.06C249.39 201.9 248.48 203.13 247.02 202.96C236.61 203.04 226.19 203.04 215.77 202.92C215.01 199.34 216.96 196.04 217.92 192.7C231.29 152.05 244.53 111.36 257.9 70.71Z" fill="#FF0000"/>
<path id="Vector 34" d="M344.52 70.89C344.13 66.67 349.57 68.3 352.16 68.01C356.37 91.9 361.29 115.69 365.78 139.54C366.73 145.23 368.66 150.9 367.9 156.74C366.12 171.27 364.21 185.79 362.7 200.36C371.83 201.79 381.12 200.59 390.32 201.06C389.19 202.24 387.82 203.3 386.07 203.01C376.39 202.92 366.7 203.16 357.03 202.89C354.84 203 354.95 200.43 355.22 198.95C356.95 185.29 358.51 171.61 360.23 157.95C360.87 153.49 359.39 149.14 358.66 144.8C354 120.15 349 95.56 344.52 70.89Z" fill="#FF0000"/>
<path id="Vector 35" d="M396.96 70.12C397.23 66.73 402 68.42 404.28 68C402.07 74.72 400.24 81.56 398.02 88.27C397.82 82.21 397.2 76.18 396.96 70.12Z" fill="#FF0000"/>
<path id="Vector 36" d="M454.55 71.14C454.77 66.99 459.67 68.09 462.49 68.01C457.38 108.08 452.7 148.2 447.69 188.28C447.08 192.43 446.63 196.61 446.72 200.8C468.97 201.31 491.23 200.77 513.48 201.08C512.4 202.49 510.85 203.25 509.06 203.01C486.35 202.95 463.63 203.08 440.92 202.95C438.8 203.11 438.5 200.6 438.9 199.06C444.12 156.42 449.27 113.77 454.55 71.14Z" fill="#FF0000"/>
<path id="Vector 37" d="M551.32 71.1001C551.57 66.9601 556.45 68.1001 559.27 68.0101C553.84 112.19 547.96 156.36 543.31 200.62C565.63 201.54 588.02 200.67 610.37 201.06C609.21 202.24 607.82 203.29 606.06 203.01C583.36 202.95 560.64 203.08 537.94 202.94C535.68 203.27 535.14 200.79 535.63 199.11C540.89 156.45 546 113.76 551.32 71.1001Z" fill="#FF0000"/>
<path id="Vector 38" d="M647.18 70.96C647.32 66.94 652.14 68.13 654.79 68.02C649.27 112.11 643.81 156.22 638.65 200.35C647.83 201.8 657.17 200.58 666.42 201.06C665.48 202.02 664.56 203.22 663.04 202.97C653.05 202.97 643.04 203.16 633.05 202.87C631 202.83 631.16 200.37 631.43 198.94C636.72 156.29 641.76 113.59 647.18 70.96Z" fill="#FF0000"/>
<path id="Vector 39" d="M703.59 80.71C707.43 75.73 709.12 65.74 717.46 68.03C713.55 74.61 709.52 81.12 705.69 87.75C705.35 85.31 704.47 82.99 703.59 80.71Z" fill="#FF0000"/>
<path id="Vector 40" d="M810.53 70.61C811.7 67.1 815.73 68.08 818.57 68.02C799.11 108.76 779.85 149.61 760.43 190.38C758.7 193.69 757.1 197.11 756.5 200.83C765.71 201.22 774.94 200.85 784.16 201.07C781.88 203.83 778.12 202.86 775 203.02C766.3 202.87 757.6 203.23 748.92 202.81C748.87 199.27 750.91 196.26 752.32 193.16C771.75 152.32 791.06 111.42 810.53 70.61Z" fill="#FF0000"/>
<path id="Vector 41" d="M85.17 101.34C88.71 99.91 92.16 97.7501 96.12 97.9001C73.33 107.89 50.31 117.37 27.53 127.38C24.31 128.45 24.6 132.2 24.16 134.92C23.61 142.93 21.52 150.86 21.75 158.89C41.95 169.97 63.42 178.9 84.07 189.24L84.45 189.97C84.85 191.93 83.42 195 81.09 193.4C59.96 183.5 38.95 173.32 17.85 163.35C16.16 162.4 13.38 161.6 13.8 159.12C14.69 150.38 15.91 141.67 17 132.96C16.98 131.03 18.46 129.73 20.15 129.14C41.81 119.85 63.5 110.62 85.17 101.34Z" fill="#FF0000"/>
<path id="Vector 42" d="M864 99.9101C865.06 96.1101 869.07 99.5701 871.31 100.25C870.36 109.17 868.9 118.04 868.16 126.97C867.53 129.43 870.45 130.06 872.11 130.91C883.59 135.28 895.2 139.33 906.56 144.01C893.28 149.14 879.6 153.19 866.29 158.22C863.45 159.12 863.57 162.53 863.17 164.92C862.31 173.92 860.94 182.87 860.29 191.89C857.82 192.85 855.33 193.76 852.73 194.24C852.82 185.4 854.61 176.68 855.34 167.88C855.85 165.27 855.31 161.48 858.33 160.27C871.67 155.28 885.37 151.25 898.62 146.01C886.63 140.86 874.18 136.85 862.11 131.93C859.52 131.07 860.38 128.11 860.61 126.1C861.9 117.4 862.58 108.59 864 99.9101Z" fill="#FF0000"/>
<path id="Vector 43" d="M702.42 140.23C704.94 136.45 707.62 132.78 710.09 128.97C707.51 152.93 703.56 176.78 701.75 200.8C710.93 201.24 720.11 200.84 729.29 201.07C728.09 202.13 726.82 203.34 725.07 203.01C715.39 202.94 705.7 203.12 696.02 202.92C694.47 203.05 693.75 201.28 694.13 200C696.4 179.4 699.61 158.88 701.41 138.24C701.66 138.74 702.17 139.73 702.42 140.23Z" fill="#FF0000"/>
<path id="Vector 44" d="M689.18 130.13C690.12 132.37 691.11 134.59 692.11 136.81C690.91 138.57 689.71 140.32 688.45 142.04C688.81 138.08 689.94 134.1 689.18 130.13Z" fill="#FF0000"/>
<path id="Vector 45" d="M277.26 152.77C278.16 149.14 279.22 145.54 279.87 141.85C280.05 145.74 279.88 149.64 280.32 153.52C279.3 153.26 278.28 153.02 277.26 152.77Z" fill="#FF0000"/>
<path id="Vector 46" d="M495.23 148.98C497.8 148.98 500.38 149.02 502.96 149.05C500.97 151.44 497.78 151.03 495.01 151.06C495.06 150.54 495.17 149.5 495.23 148.98Z" fill="#FF0000"/>
<path id="Vector 47" d="M591.98 148.98C594.57 148.97 597.17 149.01 599.77 149.04C597.7 151.35 594.6 151.1 591.77 151.05C591.83 150.53 591.93 149.5 591.98 148.98Z" fill="#FF0000"/>
<path id="Vector 48" d="M155.08 198.4C156.68 188.8 157.39 179.07 158.88 169.46C160.38 178.6 161.25 187.83 162.47 197.01C162.79 198.48 162.93 200.98 165 200.89C174.74 201.26 184.51 200.81 194.25 201.06C193.06 202.11 191.83 203.35 190.08 203.01C178.51 202.81 166.92 203.4 155.37 202.67C155.22 201.25 154.88 199.82 155.08 198.4Z" fill="#FF0000"/>
<path id="Vector 49" d="M269.31 183C273.08 182.92 276.86 183.01 280.63 183.12C281.03 189.08 280.6 195.11 281.7 201.02C290.92 201.02 300.14 200.94 309.36 201.06C307.83 203.74 304.56 202.89 302 203.03C292.74 202.79 283.44 203.36 274.2 202.76C272.15 197.27 273.68 190.94 272.9 185.14C271.52 185.06 270.14 184.98 268.76 184.9C268.9 184.43 269.17 183.48 269.31 183Z" fill="#FF0000"/>
</g>
</g>
</g>
</svg>
