<?xml version="1.0" encoding="UTF-8" ?>
<!DOCTYPE svg PUBLIC "-//W3C//DTD SVG 1.1//EN" "http://www.w3.org/Graphics/SVG/1.1/DTD/svg11.dtd">
<svg width="318pt" height="200pt" viewBox="0 0 318 200" version="1.1" xmlns="http://www.w3.org/2000/svg">
<g id="#ffffffff">
</g>
<g id="#00ffffff">
<path fill="#00ffff" opacity="1.00" d=" M 185.41 42.97 C 186.19 41.76 187.41 40.79 188.94 41.01 C 198.66 41.00 208.39 40.95 218.11 41.04 C 220.25 40.63 220.86 43.24 220.58 44.85 C 219.44 48.13 217.73 51.17 216.26 54.30 C 197.64 92.97 179.01 131.64 160.41 170.32 C 159.47 172.05 158.95 174.13 157.49 175.51 C 155.39 176.38 153.00 175.88 150.79 176.01 C 171.07 133.87 191.36 91.73 211.65 49.60 C 212.71 47.65 213.34 45.19 211.88 43.26 C 203.08 42.62 194.23 43.23 185.41 42.97 Z" />
<path fill="#00ffff" opacity="1.00" d=" M 108.95 73.00 C 111.01 72.18 113.03 71.18 115.23 70.78 C 117.18 70.56 116.83 72.82 116.80 74.05 C 115.64 83.35 114.59 92.67 113.30 101.95 C 112.80 104.53 109.87 105.05 107.80 105.85 C 95.49 110.23 82.96 114.08 70.80 118.85 C 82.65 123.61 94.67 127.94 106.59 132.52 C 108.18 132.94 109.38 134.31 108.95 136.04 C 108.14 144.39 107.02 152.71 106.11 161.05 C 105.80 162.90 105.92 165.04 104.58 166.54 C 102.28 167.45 100.19 165.39 98.08 164.75 C 99.10 155.80 100.22 146.85 101.18 137.89 C 101.46 136.53 100.58 135.20 99.27 134.82 C 87.20 130.03 74.92 125.77 62.89 120.87 C 76.19 115.48 90.08 111.57 103.48 106.43 C 105.93 105.33 105.62 102.21 106.05 100.01 C 106.93 91.00 108.69 82.06 108.95 73.00 Z" />
<path fill="#00ffff" opacity="1.00" d=" M 238.10 75.25 C 238.31 73.42 239.10 69.98 241.72 71.28 C 263.49 81.47 285.14 91.96 306.88 102.22 C 308.37 102.79 309.73 104.21 309.33 105.93 C 308.27 114.67 307.23 123.41 306.04 132.13 C 306.05 134.39 303.88 135.39 302.12 136.14 C 280.43 145.38 258.76 154.66 237.08 163.92 C 233.77 165.24 230.58 167.37 226.85 166.94 C 247.59 157.97 268.41 149.17 289.18 140.26 C 291.69 139.15 294.33 138.27 296.69 136.84 C 298.38 135.91 298.20 133.75 298.54 132.12 C 299.44 124.04 300.63 115.99 301.49 107.90 C 301.90 106.07 300.39 104.76 298.86 104.18 C 278.60 94.56 258.35 84.91 238.10 75.25 Z" />
</g>
<g id="#ff1414ff">
<path fill="#ff1414" opacity="1.00" d=" M 177.59 44.97 C 179.39 42.31 182.68 43.05 185.41 42.97 C 194.23 43.23 203.08 42.62 211.88 43.26 C 213.34 45.19 212.71 47.65 211.65 49.60 C 191.36 91.73 171.07 133.87 150.79 176.01 C 149.57 178.96 145.86 177.72 143.40 178.06 C 142.40 178.85 141.50 180.23 140.03 179.99 C 129.71 179.97 119.38 180.09 109.06 179.94 C 107.14 179.08 108.37 177.14 108.87 175.75 C 128.40 134.64 147.91 93.51 167.43 52.39 C 168.68 49.79 169.69 46.96 171.83 44.92 C 173.75 44.99 175.67 45.00 177.59 44.97 Z" />
<path fill="#ff1414" opacity="1.00" d=" M 100.01 74.96 C 103.16 75.00 105.73 72.43 108.95 73.00 C 108.69 82.06 106.93 91.00 106.05 100.01 C 105.62 102.21 105.93 105.33 103.48 106.43 C 90.08 111.57 76.19 115.48 62.89 120.87 C 74.92 125.77 87.20 130.03 99.27 134.82 C 100.58 135.20 101.46 136.53 101.18 137.89 C 100.22 146.85 99.10 155.80 98.08 164.75 C 97.91 166.23 97.65 168.34 95.93 168.83 C 94.03 168.48 92.32 167.53 90.52 166.87 C 90.27 168.77 88.94 172.13 86.49 170.44 C 65.04 160.28 43.63 150.01 22.19 139.84 C 20.68 139.15 18.76 138.01 19.18 136.03 C 20.29 127.15 21.39 118.25 22.51 109.37 C 22.66 107.46 24.41 106.56 25.98 105.94 C 48.18 96.43 70.40 86.98 92.60 77.47 C 95.02 76.52 97.33 75.03 100.01 74.96 Z" />
<path fill="#ff1414" opacity="1.00" d=" M 230.50 77.27 C 230.89 75.73 230.88 73.09 233.02 73.00 C 234.79 73.56 236.43 74.46 238.10 75.25 C 258.35 84.91 278.60 94.56 298.86 104.18 C 300.39 104.76 301.90 106.07 301.49 107.90 C 300.63 115.99 299.44 124.04 298.54 132.12 C 298.20 133.75 298.38 135.91 296.69 136.84 C 294.33 138.27 291.69 139.15 289.18 140.26 C 268.41 149.17 247.59 157.97 226.85 166.94 C 224.97 167.74 223.11 168.72 221.03 168.85 C 217.81 168.87 215.20 171.29 211.93 171.04 C 212.21 160.96 214.09 150.97 215.06 140.94 C 215.04 137.27 219.19 136.60 221.89 135.65 C 233.80 131.35 245.98 127.72 257.72 122.99 C 245.98 117.99 233.82 113.97 221.96 109.26 C 220.63 108.83 219.11 107.57 219.51 106.00 C 220.59 96.97 221.74 87.94 222.84 78.90 C 223.01 77.41 223.24 75.31 225.04 74.92 C 226.95 75.46 228.71 76.42 230.50 77.27 Z" />
</g>
</svg>
