<svg width="1082" height="423" viewBox="0 0 1082 423" fill="none" xmlns="http://www.w3.org/2000/svg">
<g id="name 1">
<g id="#00ffffff">
<path id="Vector" d="M88.06 87C88.99 85.68 90.15 84.22 91.95 84.29C109 84.22 126.06 84.22 143.12 84.29C147.26 84.43 147.16 89.4 147.61 92.42C149.28 107.73 151.72 122.97 153.14 138.31C151.81 152.21 149.89 166.05 148.38 179.93C148.18 180.88 148.36 183.32 146.7 182.63C142.84 152.27 139.05 121.9 135.2 91.54C135.12 89.34 133.56 86.91 131.12 87.04C116.77 86.94 102.41 87.03 88.06 87Z" fill="#00FFFF"/>
<path id="Vector_2" d="M171.57 87C171.54 85.06 174.22 84.22 175.89 84.26C190.91 84.26 205.93 84.18 220.94 84.31C223.28 84.26 224.6 86.83 224.16 88.91C216.05 154.67 207.87 220.43 199.71 286.18C199.53 288.08 198.61 289.87 196.99 290.92C193.79 291.57 190.5 291.12 187.27 291.24C188.13 288.22 188.21 285.06 188.68 281.97C196.52 218.65 204.41 155.33 212.23 92C212.78 89.87 211.6 87.13 209.17 87.06C196.64 86.91 184.1 87.05 171.57 87Z" fill="#00FFFF"/>
<path id="Vector_3" d="M298.45 87C299.22 84.81 301.93 84.13 304.03 84.25C321.34 84.28 338.66 84.17 355.98 84.3C358.51 84.17 360.21 86.65 360.04 89.01C365.42 154.7 370.82 220.39 376.19 286.08C376.52 288.04 375.6 289.87 373.95 290.92C370.74 291.55 367.43 291.15 364.18 291.23C364.44 289.12 364.14 287.02 363.97 284.92C358.7 220.61 353.44 156.3 348.16 91.99C348.33 89.56 346.74 86.91 344.06 87.05C328.86 86.93 313.65 87.04 298.45 87Z" fill="#00FFFF"/>
<path id="Vector_4" d="M430.96 87C431.54 85.32 433.1 84.17 434.91 84.28C450.26 84.19 465.62 84.28 480.98 84.24C482.62 84.27 484.48 84.12 485.85 85.25C487.66 87.12 487.11 89.93 487.42 92.29C487.87 102.27 488.76 112.24 489.05 122.22C486.03 131.81 483.47 141.6 480.1 151.04L478.93 151.27C477.5 131.14 476.55 110.98 475.21 90.85C475.2 88.74 473.27 86.91 471.15 87.05C457.76 86.94 444.36 87.04 430.96 87Z" fill="#00FFFF"/>
<path id="Vector_5" d="M510.93 86.99C511.98 85.25 513.86 84.15 515.93 84.27C530.95 84.21 545.97 84.27 560.99 84.24C562.46 84.25 563.97 84.18 565.43 84.54C567.34 85.48 566.93 87.88 566.27 89.51C547.55 131.7 528.64 173.81 509.95 216.01C506.82 239.3 504.09 262.65 501.05 285.96C500.78 288.13 499.36 290.66 496.9 290.69C494.13 290.85 491.35 290.66 488.58 290.82C489.33 288.65 489.46 286.33 489.76 284.07C492.32 263.65 494.9 243.24 497.46 222.82C497.71 221.05 497.75 219.21 498.52 217.57C516.24 177.92 533.9 138.24 551.58 98.58C552.69 95.74 554.44 93.1 554.91 90.05C555.35 88.41 553.71 86.89 552.12 87.05C538.39 86.92 524.66 87.04 510.93 86.99Z" fill="#00FFFF"/>
<path id="Vector_6" d="M600.83 86.99C601.41 85.33 603.17 84.16 604.94 84.27C640.33 84.24 675.72 84.22 711.12 84.27C713.65 84 715.44 86.68 714.84 89.01C713.35 101.5 711.79 113.98 710.28 126.46C710.12 128.59 709.11 130.83 707.04 131.7C703.98 131.83 700.92 131.73 697.86 131.74C699.97 118.59 701.17 105.28 702.92 92.07C703.65 89.58 701.8 86.64 699.05 87.02C666.31 86.97 633.57 87.02 600.83 86.99Z" fill="#00FFFF"/>
<path id="Vector_7" d="M749.43 87C749.65 85.02 752.1 84.14 753.89 84.25C788.93 84.24 823.99 84.24 859.04 84.25C861.26 83.92 863.63 85.64 863.37 88.05C862 100.75 860.28 113.41 858.81 126.1C858.66 128.31 857.72 130.66 855.63 131.69C852.51 131.85 849.39 131.69 846.29 131.77C848.48 118.57 849.64 105.18 851.4 91.9C851.94 89.68 850.56 86.92 848.03 87.05C815.17 86.93 782.29 87.04 749.43 87Z" fill="#00FFFF"/>
<path id="Vector_8" d="M896.44 87C896.6 84.96 899.2 84.12 901 84.25C915.66 84.25 930.33 84.23 944.99 84.26C946.94 84.23 949.11 85.04 949.79 87.05C952.87 94.35 955.75 101.74 958.8 109.07C959.94 112.09 961.3 115.02 962.37 118.06C959.83 121.83 957.64 125.83 954.92 129.48C953.44 129.18 953.43 127.43 952.81 126.37C947.88 114.25 942.97 102.12 938 90.03C937.37 87.94 935.2 86.91 933.15 87.01C920.91 86.98 908.67 87.01 896.44 87Z" fill="#00FFFF"/>
<path id="Vector_9" d="M992.62 87C993.05 84.76 996.06 84.28 998.02 84.25C1012.7 84.25 1027.39 84.23 1042.07 84.26C1044.61 83.92 1046.37 86.68 1045.8 88.99C1037.78 154.71 1029.71 220.43 1021.65 286.15C1021.49 288.05 1020.43 289.76 1018.87 290.84C1015.71 291.67 1012.39 291.07 1009.18 291.24C1011.02 281.6 1011.69 271.74 1013.06 262.01C1020 205.34 1026.96 148.66 1033.88 91.99C1034.35 89.94 1033.36 87.34 1031.06 87.05C1018.25 86.93 1005.43 87.04 992.62 87Z" fill="#00FFFF"/>
<path id="Vector_10" d="M637.03 134.75C640.79 134.21 644.61 134.63 648.41 134.51C648.3 135.04 648.09 136.09 647.98 136.62C647.5 145.43 645.83 154.17 645.06 162.98C645.9 164.32 647.76 163.52 649.06 163.76C657.72 163.76 666.38 163.71 675.04 163.78C677.35 163.48 679.17 165.82 678.79 168.01C677.34 180.66 675.72 193.29 674.2 205.93C674.12 208.38 672.58 211.04 669.98 211.41C667.23 211.52 664.46 211.64 661.73 211.37C663.87 198.35 665.03 185.16 666.77 172.07C667.33 169.92 666.6 166.78 663.95 166.59C654.12 166.34 644.28 166.6 634.45 166.46C634.11 166.33 633.44 166.07 633.1 165.93C634.37 155.54 635.46 145.1 637.03 134.75Z" fill="#00FFFF"/>
<path id="Vector_11" d="M784.36 142.89C784.93 140.14 784.52 137.05 785.86 134.53C789.53 134.66 793.34 134.15 796.93 134.75C796.85 135.24 796.67 136.22 796.58 136.72C795.76 145.54 794.37 154.3 793.49 163.12C794.71 164.22 796.52 163.56 798.01 163.76C806.66 163.78 815.32 163.68 823.98 163.8C826.11 163.77 827.63 165.96 827.26 167.97C825.81 180.7 824.17 193.42 822.64 206.14C822.46 208.35 821.22 210.71 818.96 211.31C816.03 211.71 813.07 211.41 810.14 211.5C812.39 198.4 813.49 185.08 815.27 171.89C815.78 169.79 815.01 166.84 812.5 166.61C802.28 166.21 792.02 166.84 781.81 166.29C782.06 158.49 783.6 150.69 784.36 142.89Z" fill="#00FFFF"/>
<path id="Vector_12" d="M305.72 166.15L306.86 166.06C307.38 178.46 307.25 190.9 307.86 203.28L307.64 203.35C306.27 203.82 307.67 205.92 306.8 206.88C305.77 211.32 304.26 215.71 303.74 220.25C305.18 220.5 306.64 220.58 308.12 220.5C308.24 221.56 307.88 222.45 307.06 223.17C301.99 223.21 296.88 223.46 291.83 223.03C291.76 221.66 292.22 220.35 292.53 219.04C296.96 201.42 301.24 183.76 305.72 166.15Z" fill="#00FFFF"/>
<path id="Vector_13" d="M927.61 172.08C928.02 170.42 927.48 168.2 929.09 167.08C932.34 172.72 934.48 178.99 937.26 184.9C937.35 190.47 936.04 195.99 935.58 201.55C932.12 229.69 928.7 257.83 925.25 285.97C925.09 288.29 923.67 291.15 921.01 291.19C918.27 291.32 915.53 291.25 912.8 291.21C915 277.9 916.18 264.41 917.96 251.02C921.18 224.71 924.41 198.39 927.61 172.08Z" fill="#00FFFF"/>
<path id="Vector_14" d="M969.22 167.59L970.6 167.19C970.44 172.2 969.49 177.16 968.97 182.14C965 188.04 960.91 193.86 956.9 199.73C956.33 198.46 955.77 197.19 955.23 195.93C954.52 194.25 953.73 192.61 953.04 190.93C958.26 183.2 963.78 175.31 969.22 167.59Z" fill="#00FFFF"/>
<path id="Vector_15" d="M115.4 198.42C115.67 198.64 116.21 199.07 116.49 199.29C118.11 213.99 120.49 228.63 121.62 243.37C120.05 257.3 118.33 271.21 116.73 285.14C116.65 286.47 116.24 287.75 115.74 288.98C113.14 292.76 107.95 290.76 104.14 291.21C104.87 288.8 104.99 286.28 105.3 283.81C108.68 255.35 112.01 226.88 115.4 198.42Z" fill="#00FFFF"/>
<path id="Vector_16" d="M627.34 214.38C631.11 214.11 634.91 214.31 638.7 214.25C638.61 214.93 638.45 216.3 638.36 216.99C637.34 225.71 636.19 234.42 635.27 243.16L636.07 243.65C654.68 243.91 673.31 243.62 691.92 243.8C694.21 243.58 695.82 245.82 695.33 247.97C693.86 260.71 692.23 273.43 690.7 286.16C690.53 288.06 689.46 289.82 687.85 290.83C684.71 291.65 681.42 291.09 678.23 291.23C680.52 277.92 681.65 264.38 683.42 250.98C684.01 248.71 682.36 246.28 679.92 246.55C663.27 246.43 646.62 246.53 629.98 246.5C627.81 246.43 625.61 246.73 623.5 246.2C624.43 235.59 625.66 224.91 627.34 214.38Z" fill="#00FFFF"/>
<path id="Vector_17" d="M775.58 214.69C779.3 213.69 783.32 214.52 787.15 214.25C787.07 214.94 786.91 216.31 786.83 216.99C785.8 225.41 784.82 233.83 783.76 242.24C783.9 242.61 784.19 243.34 784.33 243.7C802.85 243.83 821.38 243.69 839.91 243.77C842.36 243.35 844.39 245.63 843.81 248.02C842.31 260.72 840.73 273.41 839.18 286.1C839 288.36 837.51 290.83 835.09 291.14C832.3 291.35 829.5 291.26 826.72 291.19C828.99 277.89 830.11 264.38 831.89 250.99C832.4 248.95 831.19 246.63 828.95 246.58C812.3 246.38 795.63 246.56 778.97 246.5C776.59 246.4 774.15 246.79 771.84 246.12C772.93 235.63 774.28 225.16 775.58 214.69Z" fill="#00FFFF"/>
<path id="Vector_18" d="M280.33 266.48C283.82 265.4 287.7 266.28 291.34 266.01C291.16 266.68 290.81 268.01 290.63 268.68C288.89 275.24 287.49 281.91 285.51 288.4C283.22 292.8 277.57 290.83 273.62 291.23C276.18 283.08 277.46 274.49 280.33 266.48Z" fill="#00FFFF"/>
</g>
<g id="#191919ff" filter="url(#filter0_d)">
<path id="Vector_19" d="M76.14 89.76C78.48 85.35 84.1 87.51 88.06 87C102.41 87.03 116.77 86.94 131.12 87.04C133.56 86.91 135.12 89.34 135.2 91.54C139.05 121.9 142.84 152.27 146.7 182.63C148.36 183.32 148.18 180.88 148.38 179.93C149.89 166.05 151.81 152.21 153.14 138.31C155.51 122.18 156.65 105.85 159.25 89.77C161.73 85.31 167.49 87.53 171.57 87C184.1 87.05 196.64 86.91 209.17 87.06C211.6 87.13 212.78 89.87 212.23 92C204.41 155.33 196.52 218.65 188.68 281.97C188.21 285.06 188.13 288.22 187.27 291.24C185.04 295.76 179.21 293.42 175.24 294.01C160.83 293.96 146.41 294.05 131.99 293.97C130.08 294.15 128.06 292.99 127.89 290.94C125.52 275.13 124.32 259.11 121.62 243.37C120.49 228.63 118.11 213.99 116.49 199.29C116.21 199.07 115.67 198.64 115.4 198.42C112.01 226.88 108.68 255.35 105.3 283.81C104.99 286.28 104.87 288.8 104.14 291.21C101.81 295.69 96.12 293.47 92.13 294.01C79.73 293.97 67.33 294.05 54.94 293.96C52.32 294.24 50.87 291.27 51.47 289.02C59.44 223.64 67.49 158.26 75.49 92.88C75.64 91.83 75.85 90.79 76.14 89.76Z" fill="#072C33"/>
<path id="Vector_20" d="M286.35 89.77C288.83 85.51 294.44 87.43 298.45 87C313.65 87.04 328.86 86.93 344.06 87.05C346.74 86.91 348.33 89.56 348.16 91.99C353.44 156.3 358.7 220.61 363.97 284.92C364.14 287.02 364.44 289.12 364.18 291.23C362.05 295.8 356.13 293.4 352.21 294.01C339.1 293.95 325.99 294.09 312.89 293.94C311.12 293.96 309.65 292.33 309.67 290.61C309.25 282.46 309.42 274.27 308.85 266.13C303.02 265.85 297.17 266.06 291.34 266.01C287.7 266.28 283.82 265.4 280.33 266.48C277.46 274.49 276.18 283.08 273.62 291.23C271.15 295.61 265.5 293.52 261.46 294.01C248.64 293.91 235.81 294.17 223.01 293.88C220.18 293.54 220.38 289.95 221.29 287.99C243.01 221.93 264.52 155.79 286.35 89.77ZM305.72 166.15C301.24 183.76 296.96 201.42 292.53 219.04C292.22 220.35 291.76 221.66 291.83 223.03C296.88 223.46 301.99 223.21 307.06 223.17C307.88 222.45 308.24 221.56 308.12 220.5C307.87 214.83 308.02 208.76 307.64 203.35L307.86 203.28C307.25 190.9 307.38 178.46 306.86 166.06L305.72 166.15Z" fill="#072C33"/>
<path id="Vector_21" d="M419.08 89.76C421.02 85.1 427.09 87.65 430.96 87C444.36 87.04 457.76 86.94 471.15 87.05C473.27 86.91 475.2 88.74 475.21 90.85C476.55 110.98 477.5 131.14 478.93 151.27L480.1 151.04C483.47 141.6 486.03 131.81 489.05 122.22C492.42 111.42 495.52 100.53 498.99 89.76C501.51 85.56 506.94 87.4 510.93 86.99C524.66 87.04 538.39 86.92 552.12 87.05C553.71 86.89 555.35 88.41 554.91 90.05C554.44 93.1 552.69 95.74 551.58 98.58C533.9 138.24 516.24 177.92 498.52 217.57C497.75 219.21 497.71 221.05 497.46 222.82C494.9 243.24 492.32 263.65 489.76 284.07C489.46 286.33 489.33 288.65 488.58 290.82C486.37 295.24 480.6 292.95 476.72 293.5C464.18 293.49 451.65 293.55 439.11 293.47C436.72 293.77 434.82 291.33 435.34 289.06C437.91 267.35 440.59 245.65 443.21 223.94C443.4 221.99 443.93 220.03 443.47 218.08C435.39 176.54 427.39 134.97 419.31 93.42C419.08 92.21 419 90.99 419.08 89.76Z" fill="#072C33"/>
<path id="Vector_22" d="M588.76 89.72C591.16 85.28 596.82 87.56 600.83 86.99C633.57 87.02 666.31 86.97 699.05 87.02C701.8 86.64 703.65 89.58 702.92 92.07C701.17 105.28 699.97 118.59 697.86 131.74C695.26 137.77 686.76 131.43 683.83 136.7C671.88 136.72 659.92 136.87 647.98 136.62C648.09 136.09 648.3 135.04 648.41 134.51C644.61 134.63 640.79 134.21 637.03 134.75C635.46 145.1 634.37 155.54 633.1 165.93C633.44 166.07 634.11 166.33 634.45 166.46C644.28 166.6 654.12 166.34 663.95 166.59C666.6 166.78 667.33 169.92 666.77 172.07C665.03 185.16 663.87 198.35 661.73 211.37C659.48 215.82 653.84 213.8 649.89 214.25C646.16 214.24 642.43 214.26 638.7 214.25C634.91 214.31 631.11 214.11 627.34 214.38C625.66 224.91 624.43 235.59 623.5 246.2C625.61 246.73 627.81 246.43 629.98 246.5C646.62 246.53 663.27 246.43 679.92 246.55C682.36 246.28 684.01 248.71 683.42 250.98C681.65 264.38 680.52 277.92 678.23 291.23C675.85 295.65 670.18 293.48 666.2 294.01C633.45 293.98 600.7 294.02 567.95 293.99C565.13 294.44 563.31 291.41 564.06 288.91C571.89 224.64 579.8 160.39 587.66 96.12C587.92 93.97 588.08 91.79 588.76 89.72Z" fill="#072C33"/>
<path id="Vector_23" d="M737.18 89.76C739.6 85.26 745.36 87.56 749.43 87C782.29 87.04 815.17 86.93 848.03 87.05C850.56 86.92 851.94 89.68 851.4 91.9C849.64 105.18 848.48 118.57 846.29 131.77C844.07 136.61 838.05 133.57 834.04 134.69C833.5 135.94 832.46 137.1 830.96 136.74C819.5 136.72 808.04 136.77 796.58 136.72C796.67 136.22 796.85 135.24 796.93 134.75C793.34 134.15 789.53 134.66 785.86 134.53C784.52 137.05 784.93 140.14 784.36 142.89C783.6 150.69 782.06 158.49 781.81 166.29C792.02 166.84 802.28 166.21 812.5 166.61C815.01 166.84 815.78 169.79 815.27 171.89C813.49 185.08 812.39 198.4 810.14 211.5C807.7 215.79 802.17 213.79 798.18 214.27C794.5 214.23 790.83 214.26 787.15 214.25C783.32 214.52 779.3 213.69 775.58 214.69C774.28 225.16 772.93 235.63 771.84 246.12C774.15 246.79 776.59 246.4 778.97 246.5C795.63 246.56 812.3 246.38 828.95 246.58C831.19 246.63 832.4 248.95 831.89 250.99C830.11 264.38 828.99 277.89 826.72 291.19C824.33 295.69 818.56 293.48 814.51 294C781.64 293.97 748.77 294.05 715.91 293.96C713.34 294.2 711.94 291.27 712.51 289.07C718.96 236.05 725.5 183.03 731.98 130.01C733.79 116.6 734.94 103.09 737.18 89.76Z" fill="#072C33"/>
<path id="Vector_24" d="M884.19 89.75C886.6 85.27 892.38 87.55 896.44 87C908.67 87.01 920.91 86.98 933.15 87.01C935.2 86.91 937.37 87.94 938 90.03C942.97 102.12 947.88 114.25 952.81 126.37C953.43 127.43 953.44 129.18 954.92 129.48C957.64 125.83 959.83 121.83 962.37 118.06C968.36 108.62 974.45 99.24 980.38 89.76C982.98 85.56 988.55 87.4 992.62 87C1005.43 87.04 1018.25 86.93 1031.06 87.05C1033.36 87.34 1034.35 89.94 1033.88 91.99C1026.96 148.66 1020 205.34 1013.06 262.01C1011.69 271.74 1011.02 281.6 1009.18 291.24C1006.82 295.68 1001.13 293.47 997.14 294.01C984.41 293.94 971.67 294.09 958.94 293.94C956.52 293.9 955.42 291.1 955.94 289.03C960.23 253.4 964.66 217.78 968.97 182.14C969.49 177.16 970.44 172.2 970.6 167.19L969.22 167.59C963.78 175.31 958.26 183.2 953.04 190.93C950.42 194.48 947.94 198.15 945.57 201.87C945.33 201.83 944.85 201.75 944.62 201.71C943.52 198.98 942.28 196.31 941.11 193.61C939.83 190.7 938.54 187.8 937.26 184.9C934.48 178.99 932.34 172.72 929.09 167.08C927.48 168.2 928.02 170.42 927.61 172.08C924.41 198.39 921.18 224.71 917.96 251.02C916.18 264.41 915 277.9 912.8 291.21C910.56 295.86 904.57 293.37 900.54 294C888.33 293.98 876.13 294.02 863.92 293.99C861.25 294.01 858.58 292.03 859.5 289.08C866 235.7 872.57 182.33 879.1 128.96C880.88 115.9 881.95 102.73 884.19 89.75Z" fill="#072C33"/>
</g>
<g id="#ff0000ff">
<path id="Vector_25" d="M579.1 90.13C582.25 89.33 585.54 89.96 588.76 89.72C588.08 91.79 587.92 93.97 587.66 96.12C579.8 160.39 571.89 224.64 564.06 288.91C563.31 291.41 565.13 294.44 567.95 293.99C600.7 294.02 633.45 293.98 666.2 294.01C665.34 296.02 663.14 297 661.04 296.75C626 296.75 590.97 296.77 555.93 296.74C553.32 297.1 551.48 294.3 552.13 291.92C560.14 226.23 568.22 160.55 576.26 94.87C576.42 92.92 577.45 91.18 579.1 90.13Z" fill="#FF0000"/>
<path id="Vector_26" d="M63.66 95.1C63.79 92.7 65.37 89.98 68 89.79C70.71 89.69 73.42 89.77 76.14 89.76C75.85 90.79 75.64 91.83 75.49 92.88C67.49 158.26 59.44 223.64 51.47 289.02C50.87 291.27 52.32 294.24 54.94 293.96C67.33 294.05 79.73 293.97 92.13 294.01C91.38 295.55 89.82 296.84 88.03 296.73C73.01 296.76 57.99 296.78 42.98 296.72C40.55 296.94 39.03 294.22 39.54 292.06C47.54 226.4 55.62 160.75 63.66 95.1Z" fill="#FF0000"/>
<path id="Vector_27" d="M147.61 92.42C149.74 88.08 155.45 90.29 159.25 89.77C156.65 105.85 155.51 122.18 153.14 138.31C151.72 122.97 149.28 107.73 147.61 92.42Z" fill="#FF0000"/>
<path id="Vector_28" d="M274.19 93.21C276.11 88.22 282.26 90.09 286.35 89.77C264.52 155.79 243.01 221.93 221.29 287.99C220.38 289.95 220.18 293.54 223.01 293.88C235.81 294.17 248.64 293.91 261.46 294.01C261.02 295.8 258.82 296.81 257.06 296.74C242.03 296.75 227.01 296.79 211.98 296.71C209.34 297.08 208.1 294.02 209.02 291.88C230.76 225.66 252.4 159.41 274.19 93.21Z" fill="#FF0000"/>
<path id="Vector_29" d="M407.11 93.95C407.24 87.74 415.1 90.23 419.08 89.76C419 90.99 419.08 92.21 419.31 93.42C427.39 134.97 435.39 176.54 443.47 218.08C443.93 220.03 443.4 221.99 443.21 223.94C440.59 245.65 437.91 267.35 435.34 289.06C434.82 291.33 436.72 293.77 439.11 293.47C451.65 293.55 464.18 293.49 476.72 293.5C475.95 295.44 473.95 296.49 471.92 296.25C456.95 296.24 441.98 296.29 427.01 296.22C424.77 296.4 423.04 294.18 423.41 292.04C426.06 268.65 429.26 245.29 431.76 221.9C423.6 179.24 415.11 136.63 407.11 93.95Z" fill="#FF0000"/>
<path id="Vector_30" d="M487.42 92.29C489.78 88.25 495.2 90.22 498.99 89.76C495.52 100.53 492.42 111.42 489.05 122.22C488.76 112.24 487.87 102.27 487.42 92.29Z" fill="#FF0000"/>
<path id="Vector_31" d="M724.71 95.05C724.89 92.69 726.38 90.01 728.98 89.8C731.7 89.68 734.44 89.77 737.18 89.76C734.94 103.09 733.79 116.6 731.98 130.01C725.5 183.03 718.96 236.05 712.51 289.07C711.94 291.27 713.34 294.2 715.91 293.96C748.77 294.05 781.64 293.97 814.51 294C814.19 295.93 811.85 296.8 810.08 296.74C774.71 296.75 739.34 296.79 703.96 296.72C701.54 296.92 700.08 294.17 700.59 292.04C708.59 226.37 716.68 160.71 724.71 95.05Z" fill="#FF0000"/>
<path id="Vector_32" d="M871.7 95.08C871.87 92.68 873.41 89.96 876.06 89.8C878.76 89.69 881.47 89.77 884.19 89.75C881.95 102.73 880.88 115.9 879.1 128.96C872.57 182.33 866 235.7 859.5 289.08C858.58 292.03 861.25 294.01 863.92 293.99C876.13 294.02 888.33 293.98 900.54 294C900.6 295.66 898.5 296.71 897.02 296.7C882.04 296.82 867.05 296.71 852.07 296.76C850.68 296.82 849.47 295.94 848.2 295.57C847.52 294.17 847.35 292.63 847.68 291.12C855.68 225.77 863.69 160.43 871.7 95.08Z" fill="#FF0000"/>
<path id="Vector_33" d="M969.32 91.41C972.29 88.68 976.74 90.11 980.38 89.76C974.45 99.24 968.36 108.62 962.37 118.06C961.3 115.02 959.94 112.09 958.8 109.07L958.63 108.06C962.2 102.52 965.64 96.88 969.32 91.41Z" fill="#FF0000"/>
<path id="Vector_34" d="M956.9 199.73C960.91 193.86 965 188.04 968.97 182.14C964.66 217.78 960.23 253.4 955.94 289.03C955.42 291.1 956.52 293.9 958.94 293.94C971.67 294.09 984.41 293.94 997.14 294.01C996.44 295.63 994.78 296.86 992.99 296.74C977.66 296.74 962.34 296.81 947.02 296.7C944.69 296.59 943.53 293.99 944.01 291.95C947.65 261.98 951.34 232.02 954.99 202.05C955.16 200.01 955.78 197.96 955.23 195.93C955.77 197.19 956.33 198.46 956.9 199.73Z" fill="#FF0000"/>
<path id="Vector_35" d="M937.26 184.9C938.54 187.8 939.83 190.7 941.11 193.61C939.23 196.23 937.51 198.96 935.58 201.55C936.04 195.99 937.35 190.47 937.26 184.9Z" fill="#FF0000"/>
<path id="Vector_36" d="M306.8 206.88C307.67 205.92 306.27 203.82 307.64 203.35C308.02 208.76 307.87 214.83 308.12 220.5C306.64 220.58 305.18 220.5 303.74 220.25C304.26 215.71 305.77 211.32 306.8 206.88Z" fill="#FF0000"/>
<path id="Vector_37" d="M638.7 214.25C642.43 214.26 646.16 214.24 649.89 214.25C647.43 218.34 642.26 216.68 638.36 216.99C638.45 216.3 638.61 214.93 638.7 214.25Z" fill="#FF0000"/>
<path id="Vector_38" d="M787.15 214.25C790.83 214.26 794.5 214.23 798.18 214.27C795.96 218.48 790.62 216.59 786.83 216.99C786.91 216.31 787.07 214.94 787.15 214.25Z" fill="#FF0000"/>
<path id="Vector_39" d="M116.73 285.14C118.33 271.21 120.05 257.3 121.62 243.37C124.32 259.11 125.52 275.13 127.89 290.94C128.06 292.99 130.08 294.15 131.99 293.97C146.41 294.05 160.83 293.96 175.24 294.01C174.65 295.74 172.91 296.85 171.1 296.73C154.06 296.77 137.01 296.76 119.96 296.73C115.9 297.06 115.07 291.96 115.74 288.98C116.24 287.75 116.65 286.47 116.73 285.14Z" fill="#FF0000"/>
<path id="Vector_40" d="M291.34 266.01C297.17 266.06 303.02 265.85 308.85 266.13C309.42 274.27 309.25 282.46 309.67 290.61C309.65 292.33 311.12 293.96 312.89 293.94C325.99 294.09 339.1 293.95 352.21 294.01C351.59 295.71 349.85 296.87 348.04 296.73C332.68 296.78 317.32 296.75 301.97 296.75C299.77 297.07 297.51 295.33 297.75 293.01C297.48 285.02 297.33 277.03 297.1 269.04C294.98 268.48 292.78 268.93 290.63 268.68C290.81 268.01 291.16 266.68 291.34 266.01Z" fill="#FF0000"/>
</g>
</g>
<defs>
<filter id="filter0_d" x="47.3354" y="86.8752" width="990.659" height="215.239" filterUnits="userSpaceOnUse" color-interpolation-filters="sRGB">
<feFlood flood-opacity="0" result="BackgroundImageFix"/>
<feColorMatrix in="SourceAlpha" type="matrix" values="0 0 0 0 0 0 0 0 0 0 0 0 0 0 0 0 0 0 127 0"/>
<feOffset dy="4"/>
<feGaussianBlur stdDeviation="2"/>
<feColorMatrix type="matrix" values="0 0 0 0 0 0 0 0 0 0 0 0 0 0 0 0 0 0 0.25 0"/>
<feBlend mode="normal" in2="BackgroundImageFix" result="effect1_dropShadow"/>
<feBlend mode="normal" in="SourceGraphic" in2="effect1_dropShadow" result="shape"/>
</filter>
</defs>
</svg>
