<svg id="eituXpZBoFJ1" xmlns="http://www.w3.org/2000/svg" xmlns:xlink="http://www.w3.org/1999/xlink" viewBox="0 0 854 818" shape-rendering="geometricPrecision" text-rendering="geometricPrecision" width="854" height="818"><style><![CDATA[#eituXpZBoFJ22_to {animation: eituXpZBoFJ22_to__to 3000ms linear infinite normal forwards}@keyframes eituXpZBoFJ22_to__to { 0% {transform: translate(648.424071px,-44.851204px)} 33.333333% {transform: translate(4.550156px,707.329344px)} 100% {transform: translate(4.550156px,707.329344px)}} #eituXpZBoFJ23_to {animation: eituXpZBoFJ23_to__to 3000ms linear infinite normal forwards}@keyframes eituXpZBoFJ23_to__to { 0% {transform: translate(884.528608px,10.924308px)} 53.333333% {transform: translate(884.528608px,10.924308px)} 86.666667% {transform: translate(149.764565px,843.544402px)} 100% {transform: translate(149.764565px,843.544402px)}}]]></style><defs><linearGradient id="eituXpZBoFJ22-fill" x1="516.519" y1="355.558" x2="603.329" y2="355.558" spreadMethod="pad" gradientUnits="userSpaceOnUse"><stop id="eituXpZBoFJ22-fill-0" offset="0%" stop-color="rgb(255,255,255)"/><stop id="eituXpZBoFJ22-fill-1" offset="100%" stop-color="rgba(255,255,255,0.3)"/></linearGradient><linearGradient id="eituXpZBoFJ23-fill" x1="55258.8" y1="54868.9" x2="62794.7" y2="54868.9" spreadMethod="pad" gradientUnits="userSpaceOnUse"><stop id="eituXpZBoFJ23-fill-0" offset="0%" stop-color="rgb(255,255,255)"/><stop id="eituXpZBoFJ23-fill-1" offset="100%" stop-color="rgba(255,255,255,0.3)"/></linearGradient></defs><g id="eituXpZBoFJ2" clip-path="url(#eituXpZBoFJ48)"><g id="eituXpZBoFJ3" transform="matrix(1 0 0 1 0.000001 0)"><path id="eituXpZBoFJ4" d="M707.501,464.249C599.784,627.243,549.122,818,353.751,818C158.38,818,0,659.62,0,464.249C0,268.878,176.535,192.745,353.751,110.499C929.357,-156.643,948.524,99.543,707.501,464.249Z" transform="matrix(1 0 0 1 -0.000001 0)" fill="rgb(63,61,86)" stroke="none" stroke-width="1" stroke-miterlimit="1"/><path id="eituXpZBoFJ5" d="M669.522,160.414C706.079,160.414,735.714,130.779,735.714,94.2219C735.714,57.6647,706.079,28.0293,669.522,28.0293C632.965,28.0293,603.329,57.6647,603.329,94.2219C603.329,130.779,632.965,160.414,669.522,160.414Z" fill="rgb(230,230,230)" stroke="none" stroke-width="1" stroke-miterlimit="1"/><path id="eituXpZBoFJ6" d="M663.011,56.2425C667.206,56.2425,670.607,52.8417,670.607,48.6467C670.607,44.4516,667.206,41.0508,663.011,41.0508C658.816,41.0508,655.415,44.4516,655.415,48.6467C655.415,52.8417,658.816,56.2425,663.011,56.2425Z" fill="rgb(203,203,203)" stroke="none" stroke-width="1" stroke-miterlimit="1"/><path id="eituXpZBoFJ7" d="M676.033,132.201C680.228,132.201,683.628,128.8,683.628,124.605C683.628,120.41,680.228,117.01,676.033,117.01C671.838,117.01,668.437,120.41,668.437,124.605C668.437,128.8,671.838,132.201,676.033,132.201Z" fill="rgb(203,203,203)" stroke="none" stroke-width="1" stroke-miterlimit="1"/><path id="eituXpZBoFJ8" d="M705.331,87.7112C708.327,87.7112,710.757,85.2821,710.757,82.2856C710.757,79.2891,708.327,76.86,705.331,76.86C702.334,76.86,699.905,79.2891,699.905,82.2856C699.905,85.2821,702.334,87.7112,705.331,87.7112Z" fill="rgb(203,203,203)" stroke="none" stroke-width="1" stroke-miterlimit="1"/><path id="eituXpZBoFJ9" d="M643.479,117.009C653.068,117.009,660.841,109.236,660.841,99.6475C660.841,90.0587,653.068,82.2855,643.479,82.2855C633.89,82.2855,626.117,90.0587,626.117,99.6475C626.117,109.236,633.89,117.009,643.479,117.009Z" fill="rgb(203,203,203)" stroke="none" stroke-width="1" stroke-miterlimit="1"/><path id="eituXpZBoFJ10" d="M441.646,207.075C447.639,207.075,452.497,202.217,452.497,196.224C452.497,190.231,447.639,185.372,441.646,185.372C435.653,185.372,430.794,190.231,430.794,196.224C430.794,202.217,435.653,207.075,441.646,207.075Z" fill="rgb(124,245,130)" stroke="none" stroke-width="1" stroke-miterlimit="1"/><path id="eituXpZBoFJ11" d="M732.459,235.288C738.452,235.288,743.31,230.43,743.31,224.437C743.31,218.444,738.452,213.586,732.459,213.586C726.466,213.586,721.608,218.444,721.608,224.437C721.608,230.43,726.466,235.288,732.459,235.288Z" transform="matrix(2 0 0 2 -732.458984 -224.4375)" fill="rgb(124,245,130)" stroke="none" stroke-width="1" stroke-miterlimit="1"/><path id="eituXpZBoFJ12" d="M603.329,251.565C606.925,251.565,609.84,248.65,609.84,245.054C609.84,241.458,606.925,238.543,603.329,238.543C599.733,238.543,596.818,241.458,596.818,245.054C596.818,248.65,599.733,251.565,603.329,251.565Z" transform="matrix(1 0 0 1 0 0.000001)" fill="rgb(230,230,230)" stroke="none" stroke-width="1" stroke-miterlimit="1"/><path id="eituXpZBoFJ13" d="M102.002,456.654C105.598,456.654,108.512,453.739,108.512,450.143C108.512,446.547,105.598,443.632,102.002,443.632C98.4059,443.632,95.491,446.547,95.491,450.143C95.491,453.739,98.4059,456.654,102.002,456.654Z" fill="rgb(230,230,230)" stroke="none" stroke-width="1" stroke-miterlimit="1"/><path id="eituXpZBoFJ14" d="M487.221,631.359C490.817,631.359,493.732,628.444,493.732,624.848C493.732,621.252,490.817,618.337,487.221,618.337C483.625,618.337,480.71,621.252,480.71,624.848C480.71,628.444,483.625,631.359,487.221,631.359Z" fill="rgb(230,230,230)" stroke="none" stroke-width="1" stroke-miterlimit="1"/><g id="eituXpZBoFJ15"><path id="eituXpZBoFJ16" d="M751.993,155.028L748.743,158.255L745.516,155.006L743.349,157.157L746.577,160.407L743.327,163.635L745.479,165.801L748.729,162.574L751.956,165.823L754.123,163.672L750.895,160.422L754.145,157.194L751.993,155.028Z" fill="rgb(230,230,230)" stroke="none" stroke-width="1" stroke-miterlimit="1"/></g><path id="eituXpZBoFJ17" d="M589.224,438.245L585.975,441.473L582.747,438.223L580.581,440.375L583.808,443.625L580.558,446.852L582.71,449.019L585.96,445.791L589.188,449.041L591.354,446.889L588.126,443.639L591.376,440.412L589.224,438.245Z" fill="rgb(124,245,130)" stroke="none" stroke-width="1" stroke-miterlimit="1"/><g id="eituXpZBoFJ18" transform="matrix(1 0 0 1 0 0.000001)"><path id="eituXpZBoFJ19" d="M158.43,544.588L155.18,547.815L151.953,544.565L149.786,546.717L153.014,549.967L149.764,553.194L151.916,555.361L155.165,552.133L158.393,555.383L160.56,553.231L157.332,549.982L160.582,546.754L158.43,544.588Z" fill="rgb(230,230,230)" stroke="none" stroke-width="1" stroke-miterlimit="1"/><path id="eituXpZBoFJ20" d="M495.904,245.093L492.654,248.321L489.426,245.071L487.26,247.223L490.487,250.472L487.238,253.7L489.389,255.867L492.639,252.639L495.867,255.889L498.033,253.737L494.806,250.487L498.055,247.26L495.904,245.093Z" fill="rgb(230,230,230)" stroke="none" stroke-width="1" stroke-miterlimit="1"/></g><path id="eituXpZBoFJ21" d="M184.473,355.776L181.223,359.003L177.996,355.754L175.829,357.905L179.057,361.155L175.807,364.383L177.959,366.549L181.208,363.322L184.436,366.571L186.603,364.42L183.375,361.17L186.625,357.942L184.473,355.776Z" fill="rgb(230,230,230)" stroke="none" stroke-width="1" stroke-miterlimit="1"/><g id="eituXpZBoFJ22_to" transform="translate(648.424071,-44.851204)"><path id="eituXpZBoFJ22" d="M518.442,405.991L551.413,367.393L584.383,328.794L602.996,307.005C604.025,305.799,602.436,303.918,601.407,305.124L568.436,343.722L535.465,382.321L516.853,404.111C515.823,405.316,517.412,407.197,518.442,405.991L518.442,405.991Z" transform="translate(-559.924245,-355.557475)" opacity="0.8" fill="url(#eituXpZBoFJ22-fill)" stroke="none" stroke-width="1" stroke-miterlimit="1"/></g><g id="eituXpZBoFJ23_to" transform="translate(884.528608,10.924308)"><path id="eituXpZBoFJ23" d="M459.845,544.887L492.816,506.289L525.786,467.69L544.399,445.901C545.429,444.695,543.84,442.814,542.81,444.02L509.839,482.618L476.869,521.217L458.256,543.006C457.226,544.212,458.816,546.093,459.845,544.887L459.845,544.887Z" transform="translate(-501.328125,-494.453125)" opacity="0.8" fill="url(#eituXpZBoFJ23-fill)" stroke="none" stroke-width="1" stroke-miterlimit="1"/></g><g id="eituXpZBoFJ24" transform="matrix(1 0 0 1 -4.733406 -33.213589)"><path id="eituXpZBoFJ25" d="M293.526,331.322L355.378,331.322L355.378,355.66C355.378,359.854,353.712,363.875,350.747,366.84C347.782,369.805,343.761,371.471,339.567,371.471L309.337,371.471C305.144,371.471,301.122,369.805,298.157,366.84C295.192,363.875,293.526,359.854,293.526,355.66L293.526,331.322L293.526,331.322Z" fill="rgb(47,46,65)" stroke="none" stroke-width="1" stroke-miterlimit="1"/><path id="eituXpZBoFJ26" d="M375.996,654.689C361.911,668.959,347.804,669.055,333.676,655.149L322.825,559.198L315.229,655.349C301.11,666.776,287.953,668.315,276.164,655.774C264.919,572.699,258.806,495.52,268.568,436.579L247.951,353.024L294.611,331.322C304.008,354.565,289.188,366.453,322.7,366.055C355.916,365.661,353.435,353.166,352.123,331.322L395.046,347.831C398.702,349.237,401.683,351.984,403.383,355.513C405.083,359.041,405.372,363.085,404.193,366.82L382.506,435.494C390.855,470.16,382.283,566.594,375.996,654.689Z" fill="rgb(230,230,230)" stroke="none" stroke-width="1" stroke-miterlimit="1"/><path id="eituXpZBoFJ27" d="M310.888,738.243C310.888,738.243,276.248,741.278,271.607,739.367C271.314,739.246,271.029,739.115,270.752,738.973C263.856,735.452,263.646,725.591,270.091,721.3L283.76,712.2L271.824,648.178L317.941,648.721L310.888,738.243Z" fill="rgb(47,46,65)" stroke="none" stroke-width="1" stroke-miterlimit="1"/><path id="eituXpZBoFJ28" d="M336.931,738.786C336.931,738.786,371.572,741.82,376.212,739.91C376.505,739.789,376.79,739.658,377.067,739.516C383.964,735.995,384.174,726.134,377.728,721.843L364.059,712.743L380.879,648.721L332.591,648.721L336.931,738.786Z" transform="matrix(1 0 0 1 0 0.000001)" fill="rgb(47,46,65)" stroke="none" stroke-width="1" stroke-miterlimit="1"/><path id="eituXpZBoFJ29" d="M255.547,510.367L262.413,537.833C263.257,541.209,263.016,544.764,261.723,547.995C260.43,551.226,258.152,553.967,255.212,555.829L255.212,555.829C252.837,557.333,250.118,558.208,247.311,558.37C244.504,558.532,241.702,557.976,239.169,556.755C236.637,555.534,234.457,553.687,232.836,551.39C231.214,549.093,230.205,546.421,229.903,543.626L228.419,529.899L222.993,399.444C222.993,388.594,226.21,377.987,232.236,368.964C238.263,359.941,246.829,352.907,256.852,348.751L267.483,344.343L255.547,510.367Z" fill="rgb(230,230,230)" stroke="none" stroke-width="1" stroke-miterlimit="1"/><g id="eituXpZBoFJ30"><path id="eituXpZBoFJ31" d="M429.072,388.691L429.169,389.456L442.442,494.008L445.007,514.21L445.521,518.217L446.349,531.999C446.485,534.264,446.155,536.533,445.377,538.665C444.6,540.797,443.393,542.746,441.83,544.392C440.268,546.038,438.383,547.344,436.295,548.231C434.206,549.117,431.957,549.565,429.688,549.546C427.418,549.526,425.177,549.041,423.104,548.119C421.03,547.197,419.169,545.858,417.634,544.186C416.1,542.514,414.926,540.545,414.185,538.4C413.444,536.255,413.152,533.981,413.327,531.718L415.51,503.492L415.02,501.506L411.989,489.077L376,341.797L387.221,344.363C397.793,346.797,407.408,352.304,414.856,360.192C422.303,368.08,427.25,377.996,429.072,388.691L429.072,388.691Z" fill="rgb(230,230,230)" stroke="none" stroke-width="1" stroke-miterlimit="1"/><path id="eituXpZBoFJ32" d="M431.212,388.328L431.308,389.093L412.012,398.428L395.194,375.436L404.051,349.7C411.171,353.707,417.305,359.255,422.005,365.939C426.704,372.622,429.85,380.272,431.212,388.328L431.212,388.328Z" fill="rgb(124,245,130)" stroke="none" stroke-width="1" stroke-miterlimit="1"/><path id="eituXpZBoFJ33" d="M443.052,493.905L445.583,514.112L415.644,504.02L414.5,501.594L411.432,489.171L443.052,493.905Z" transform="matrix(1 0 0 1 0.000001 0)" fill="rgb(124,245,130)" stroke="none" stroke-width="1" stroke-miterlimit="1"/></g><path id="eituXpZBoFJ34" d="M327.225,518.191C287.808,518.191,263.493,504.521,263.15,504.323L264.234,502.443C264.718,502.723,313.483,530.076,385.128,506.366L385.811,508.426C366.932,514.8,347.151,518.097,327.225,518.191L327.225,518.191Z" fill="rgb(47,46,65)" stroke="none" stroke-width="1" stroke-miterlimit="1"/><path id="eituXpZBoFJ35" d="M288.194,618.235C279.519,598.717,279.475,513.883,279.478,510.281L281.648,510.283C281.648,511.161,281.688,598.254,290.178,617.354L288.194,618.235Z" transform="matrix(1 0 0 1 0 0.000001)" fill="rgb(47,46,65)" stroke="none" stroke-width="1" stroke-miterlimit="1"/><path id="eituXpZBoFJ36" d="M292.706,619.111C284.979,619.111,279.845,617.465,276.497,615.578C270.403,612.141,269.146,607.458,269.096,607.261L271.198,606.723L270.147,606.992L271.196,606.718C271.24,606.882,272.338,610.78,277.659,613.741C283.519,617,295.314,619.432,318.218,612.506L318.845,614.583C307.884,617.897,299.34,619.111,292.706,619.111Z" transform="matrix(1 0 0 1 0 0.000001)" fill="rgb(47,46,65)" stroke="none" stroke-width="1" stroke-miterlimit="1"/><path id="eituXpZBoFJ37" d="M273.323,341.674L271.155,341.78L279.479,511.741L281.647,511.634L273.323,341.674Z" fill="rgb(47,46,65)" stroke="none" stroke-width="1" stroke-miterlimit="1"/><path id="eituXpZBoFJ38" d="M361.796,618.235L359.812,617.354C368.301,598.254,368.343,511.161,368.342,510.283L370.512,510.281C370.514,513.883,370.47,598.717,361.796,618.235Z" transform="matrix(1 0 0 1 0 0.000001)" fill="rgb(47,46,65)" stroke="none" stroke-width="1" stroke-miterlimit="1"/><path id="eituXpZBoFJ39" d="M357.284,619.111C350.65,619.111,342.108,617.898,331.144,614.583L331.772,612.506C354.676,619.431,366.468,617.001,372.33,613.741C377.652,610.78,378.749,606.882,378.792,606.718L380.894,607.261C380.843,607.458,379.586,612.141,373.492,615.578C370.145,617.465,365.009,619.111,357.284,619.111Z" transform="matrix(1 0 0 1 0 0.000001)" fill="rgb(47,46,65)" stroke="none" stroke-width="1" stroke-miterlimit="1"/><path id="eituXpZBoFJ40" d="M376.658,341.674L368.351,511.635L370.519,511.741L378.826,341.78L376.658,341.674Z" fill="rgb(47,46,65)" stroke="none" stroke-width="1" stroke-miterlimit="1"/><path id="eituXpZBoFJ41" d="M355.248,367.131L339.101,391.003L304.377,391.003L292.767,367.131L297.867,367.131L306.548,386.663L335.846,386.663L349.953,367.131L355.248,367.131Z" fill="rgb(124,245,130)" stroke="none" stroke-width="1" stroke-miterlimit="1"/><path id="eituXpZBoFJ42" d="M394.443,379.067L394.725,379.631L394.443,380.152L394.443,379.067Z" fill="rgb(0,0,0)" stroke="none" stroke-width="1" stroke-miterlimit="1"/><path id="eituXpZBoFJ43" d="M221.658,398.361L221.691,399.131L242.276,405.11L255.015,379.631L241.983,355.737C235.632,360.878,230.511,367.373,226.995,374.748C223.478,382.123,221.655,390.19,221.658,398.361L221.658,398.361Z" transform="matrix(1 0 0 1 0.000001 0)" fill="rgb(124,245,130)" stroke="none" stroke-width="1" stroke-miterlimit="1"/><path id="eituXpZBoFJ44" d="M324.452,349.226C356.215,349.226,381.964,323.477,381.964,291.715C381.964,259.952,356.215,234.203,324.452,234.203C292.689,234.203,266.941,259.952,266.941,291.715C266.941,323.477,292.689,349.226,324.452,349.226Z" fill="rgb(230,230,230)" stroke="none" stroke-width="1" stroke-miterlimit="1"/><path id="eituXpZBoFJ45" d="M324.452,341.63C347.825,341.63,366.772,322.683,366.772,299.31C366.772,275.938,347.825,256.991,324.452,256.991C301.08,256.991,282.132,275.938,282.132,299.31C282.132,322.683,301.08,341.63,324.452,341.63Z" fill="rgb(47,46,65)" stroke="none" stroke-width="1" stroke-miterlimit="1"/><path id="eituXpZBoFJ46" d="M226.324,504.432L227.25,524.778L256.503,509.825L257.263,507.242L258.26,494.481L226.324,504.432Z" fill="rgb(124,245,130)" stroke="none" stroke-width="1" stroke-miterlimit="1"/><path id="eituXpZBoFJ47" d="M339.678,392.089L303.698,392.089L283.777,351.139L282.753,336.41L284.918,336.26L285.913,350.568L305.057,389.918L338.525,389.918L363.075,353.628L368.301,337.605L370.366,338.277L364.958,354.718L339.678,392.089Z" fill="rgb(47,46,65)" stroke="none" stroke-width="1" stroke-miterlimit="1"/></g></g><clipPath id="eituXpZBoFJ48"><rect id="eituXpZBoFJ49" width="853.297" height="818" rx="0" ry="0" fill="rgb(255,255,255)" stroke="none" stroke-width="1" stroke-miterlimit="1"/></clipPath></g></svg>