<svg id="Capa_1" enable-background="new 0 0 512 512" height="512" viewBox="0 0 512 512" width="512" xmlns="http://www.w3.org/2000/svg"><g><g><path d="m472.175 504.5h-432.35c-17.852 0-32.325-14.472-32.325-32.325v-367.699h497v367.699c0 17.853-14.473 32.325-32.325 32.325z" fill="#e5f6fd"/><path d="m472.175 104.476v367.699c0 17.853-14.473 32.325-32.325 32.325h32.325c17.853 0 32.325-14.473 32.325-32.325v-367.699z" fill="#d3eefd"/><path d="m39.825 375.199v-228.297c0-5.579 4.523-10.102 10.102-10.102h412.146c5.579 0 10.102 4.523 10.102 10.102v228.297z" fill="#fe73c5"/><path d="m104.476 439.85v32.325h357.598c5.579 0 10.102-4.523 10.102-10.102v-22.223z" fill="#9be69d"/><path d="m272.163 239.837h32.325v367.699h-32.325z" fill="#6fd7a3" transform="matrix(0 1 -1 0 712.012 135.362)"/><path d="m272.163 207.512h32.325v367.699h-32.325z" fill="#9be69d" transform="matrix(0 1 -1 0 679.687 103.037)"/><path d="m55.988 359.037h32.325v64.65h-32.325z" fill="#688ed5" transform="matrix(0 1 -1 0 463.512 319.211)"/><path d="m55.988 391.362h32.325v64.65h-32.325z" fill="#30569f" transform="matrix(0 1 -1 0 495.837 351.537)"/><path d="m39.825 439.85v22.224c0 5.579 4.523 10.102 10.102 10.102h54.549v-32.326z" fill="#688ed5"/><path d="m504.5 104.476h-497v-64.65c0-17.853 14.473-32.326 32.325-32.326h432.35c17.853 0 32.325 14.472 32.325 32.325z" fill="#688ed5"/><path d="m472.175 7.5h-32.325c17.853 0 32.325 14.473 32.325 32.325v64.65h32.325v-64.65c0-17.852-14.473-32.325-32.325-32.325z" fill="#4172ca"/><circle cx="456.012" cy="55.988" fill="#9be69d" r="16.163"/><circle cx="391.362" cy="55.988" fill="#ffd15b" r="16.163"/><circle cx="326.711" cy="55.988" fill="#fe73c5" r="16.163"/></g><circle cx="345.679" cy="256" fill="#ffe177" r="48.488"/><path d="m370.352 214.262c4.283 7.229 6.75 15.661 6.75 24.673 0 26.779-21.709 48.488-48.488 48.488-9.012 0-17.444-2.467-24.673-6.75 8.444 14.253 23.971 23.815 41.738 23.815 26.779 0 48.488-21.709 48.488-48.488 0-17.767-9.562-33.294-23.815-41.738z" fill="#ffd15b"/><circle cx="118.618" cy="256" fill="#fbf5ce" r="48.488"/><g><path d="m39.83 321.336c-4.142 0-7.5 3.358-7.5 7.5v133.234c0 9.705 7.896 17.6 17.6 17.6h412.14c9.705 0 17.6-7.896 17.6-17.6v-315.17c0-9.705-7.896-17.6-17.6-17.6h-412.14c-9.705 0-17.6 7.896-17.6 17.6v146.937c0 4.142 3.358 7.5 7.5 7.5s7.5-3.358 7.5-7.5v-146.937c0-1.434 1.167-2.6 2.6-2.6h412.14c1.434 0 2.6 1.167 2.6 2.6v220.799h-201.17v-17.325h4.622c4.142 0 7.5-3.358 7.5-7.5s-3.358-7.5-7.5-7.5h-24.244c-4.142 0-7.5 3.358-7.5 7.5s3.358 7.5 7.5 7.5h4.622v17.325h-201.17v-38.863c0-4.142-3.358-7.5-7.5-7.5zm208.67 111.014h-136.524v-17.325h136.524zm15-17.326h201.17v17.325h-201.17zm-15 32.326v17.32h-136.524v-17.32zm-151.524-15h-49.646v-17.325h49.646zm-49.646 29.72v-14.72h49.646v17.32h-47.046c-1.433 0-2.6-1.167-2.6-2.6zm414.74 2.6h-198.57v-17.32h201.17v14.72c0 1.433-1.167 2.6-2.6 2.6zm2.6-81.971v17.325h-201.17v-17.325zm-216.17 17.325h-136.524v-17.325h136.524zm-151.524-17.325v17.325h-49.646v-17.325z"/><path d="m472.17 0h-432.34c-21.962 0-39.83 17.868-39.83 39.83v106.3c0 4.142 3.358 7.5 7.5 7.5s7.5-3.358 7.5-7.5v-34.154h482v29.015c0 4.142 3.358 7.5 7.5 7.5s7.5-3.358 7.5-7.5v-101.161c0-21.962-17.868-39.83-39.83-39.83zm-457.17 96.976v-57.146c0-13.691 11.139-24.83 24.83-24.83h432.34c13.691 0 24.83 11.139 24.83 24.83v57.146z"/><path d="m504.5 168.49c-4.142 0-7.5 3.358-7.5 7.5v296.18c0 13.691-11.139 24.83-24.83 24.83h-432.34c-13.691 0-24.83-11.139-24.83-24.83v-291.04c0-4.142-3.358-7.5-7.5-7.5s-7.5 3.358-7.5 7.5v291.04c0 21.962 17.868 39.83 39.83 39.83h432.34c21.962 0 39.83-17.868 39.83-39.83v-296.18c0-4.142-3.358-7.5-7.5-7.5z"/><path d="m456.012 32.325c-13.047 0-23.663 10.615-23.663 23.663s10.615 23.663 23.663 23.663 23.663-10.615 23.663-23.663-10.615-23.663-23.663-23.663zm0 32.325c-4.776 0-8.663-3.886-8.663-8.663s3.886-8.663 8.663-8.663 8.663 3.886 8.663 8.663-3.886 8.663-8.663 8.663z"/><path d="m391.362 32.325c-13.047 0-23.663 10.615-23.663 23.663s10.615 23.663 23.663 23.663 23.663-10.615 23.663-23.663-10.616-23.663-23.663-23.663zm0 32.325c-4.776 0-8.663-3.886-8.663-8.663s3.886-8.663 8.663-8.663 8.663 3.886 8.663 8.663-3.887 8.663-8.663 8.663z"/><path d="m326.711 32.325c-13.047 0-23.663 10.615-23.663 23.663s10.615 23.663 23.663 23.663 23.663-10.615 23.663-23.663-10.615-23.663-23.663-23.663zm0 32.325c-4.776 0-8.663-3.886-8.663-8.663s3.886-8.663 8.663-8.663 8.663 3.886 8.663 8.663-3.886 8.663-8.663 8.663z"/><path d="m418.992 256c0 3.034 1.827 5.768 4.63 6.929.928.384 1.902.571 2.869.571 1.952 0 3.87-.762 5.305-2.197l13.358-13.358c2.929-2.929 2.929-7.678 0-10.606-2.929-2.929-7.678-2.929-10.606 0l-2.11 2.11c-7.77-40.812-43.718-71.762-86.758-71.762-4.142 0-7.5 3.358-7.5 7.5s3.358 7.5 7.5 7.5c40.424 0 73.312 32.888 73.312 73.313z"/><path d="m92.165 287.309c-3.667-3.101-6.735-6.779-9.121-10.934-2.062-3.592-6.647-4.832-10.239-2.769s-4.832 6.646-2.769 10.239c3.255 5.669 7.442 10.689 12.443 14.918 1.409 1.191 3.128 1.773 4.839 1.773 2.131 0 4.248-.903 5.731-2.657 2.675-3.163 2.279-7.895-.884-10.57z"/><path d="m118.712 200.012c-.02 0-.063 0-.107 0-6.533.001-12.935 1.12-19.03 3.323-3.895 1.409-5.911 5.708-4.503 9.604 1.104 3.053 3.984 4.952 7.054 4.952.846 0 1.708-.145 2.55-.449 4.458-1.612 9.149-2.43 14.017-2.43l.02-7.5v7.5c4.142 0 7.5-3.358 7.5-7.5s-3.359-7.5-7.501-7.5z"/><path d="m154.673 213.166c-3.169-2.669-7.9-2.263-10.568.904-2.668 3.168-2.264 7.899.904 10.568 3.672 3.093 6.749 6.766 9.143 10.916 1.389 2.408 3.911 3.754 6.503 3.754 1.271 0 2.561-.324 3.741-1.005 3.588-2.07 4.819-6.656 2.749-10.244-3.268-5.663-7.464-10.674-12.472-14.893z"/><path d="m118.618 296.988h-.133c-4.128-.01-7.526 3.3-7.558 7.442s3.3 7.525 7.442 7.558h227.309c30.872 0 55.988-25.116 55.988-55.988s-25.116-55.988-55.988-55.988c-28.327 0-51.793 21.152-55.471 48.488h-92.797c-4.142 0-7.5 3.358-7.5 7.5s3.358 7.5 7.5 7.5h92.797c1.77 13.152 8.115 24.867 17.386 33.488.001 0-184.155 0-188.975 0zm186.073-40.988c0-22.601 18.387-40.988 40.988-40.988s40.988 18.387 40.988 40.988-18.387 40.988-40.988 40.988-40.988-18.387-40.988-40.988z"/><path d="m158.983 263.162c-.83 4.712-2.468 9.204-4.871 13.351-2.076 3.584-.854 8.173 2.73 10.249 1.184.686 2.476 1.012 3.752 1.012 2.588 0 5.106-1.341 6.497-3.742 3.287-5.673 5.529-11.82 6.664-18.27.718-4.079-2.007-7.968-6.087-8.687-4.078-.717-7.967 2.007-8.685 6.087z"/><path d="m80.453 225.164c-3.58-2.083-8.171-.871-10.254 2.709-3.298 5.667-5.553 11.81-6.701 18.257-.726 4.078 1.991 7.973 6.069 8.699.445.079.887.118 1.324.118 3.566 0 6.728-2.554 7.375-6.187.839-4.711 2.486-9.199 4.897-13.342 2.083-3.58.87-8.171-2.71-10.254z"/></g></g></svg>