<svg width="512" height="512" viewBox="0 0 512 512" fill="none" xmlns="http://www.w3.org/2000/svg">
<g clip-path="url(#clip0)">
<path d="M217.39 466.854V463.342H149.434C143.314 463.342 138.352 468.304 138.352 474.424C138.352 480.544 143.314 485.506 149.434 485.506H236.04C225.784 485.504 217.39 477.112 217.39 466.854V466.854Z" fill="#EDF4FC"/>
<path d="M185.766 412.554H217.39V463.342H185.766V412.554Z" fill="#C7D7E5"/>
<path d="M365.592 464.052V273.162C365.592 261.362 375.246 251.71 387.044 251.71H456.13V180.124C456.13 169.866 447.736 161.474 437.48 161.474H236.042C225.784 161.474 217.392 169.866 217.392 180.124V466.854C217.392 477.112 225.784 485.504 236.042 485.504H387.044C375.246 485.504 365.592 475.852 365.592 464.052V464.052Z" fill="#5290DB"/>
<path d="M217.39 180.124C217.39 169.866 225.782 161.474 236.04 161.474H437.478C447.734 161.474 456.128 169.866 456.128 180.122V93.146C456.128 80.134 445.48 69.486 432.468 69.486H28.66C15.648 69.486 5 80.132 5 93.146V388.894C5 401.908 15.646 412.554 28.66 412.554H217.39V180.124Z" fill="#5290DB"/>
<path d="M485.548 251.71H387.044C375.246 251.71 365.592 261.362 365.592 273.162V464.052C365.592 475.85 375.246 485.504 387.044 485.504H485.548C497.346 485.504 507 475.85 507 464.052V273.162C507 261.364 497.346 251.71 485.548 251.71V251.71Z" fill="#5290DB"/>
<path d="M481.854 270.564H459.784C456.738 270.564 453.948 272.378 452.824 275.21C450.212 281.782 443.798 286.428 436.294 286.428C428.79 286.428 422.376 281.78 419.764 275.21C418.638 272.378 415.85 270.564 412.804 270.564H390.734C387.26 270.564 384.444 273.38 384.444 276.854V460.358C384.444 463.832 387.26 466.648 390.734 466.648H481.852C485.326 466.648 488.142 463.832 488.142 460.358V276.854C488.146 273.38 485.33 270.564 481.854 270.564V270.564Z" fill="#EDF4FC"/>
<path d="M365.592 464.052V273.162C365.592 261.362 375.246 251.71 387.044 251.71H435.772V183.672C435.772 182.656 434.948 181.832 433.93 181.832H239.59C238.574 181.832 237.748 182.656 237.748 183.672V463.306C237.748 464.322 238.572 465.146 239.59 465.146H365.648C365.63 464.782 365.592 464.422 365.592 464.052V464.052Z" fill="#EDF4FC"/>
<path d="M217.39 349.46H5V388.894C5 401.908 15.646 412.554 28.66 412.554H217.39V349.46Z" fill="#EDF4FC"/>
<path d="M217.39 180.124C217.39 169.866 225.782 161.474 236.04 161.474H436.412V93.146C436.412 90.978 434.638 89.204 432.468 89.204H28.66C26.492 89.204 24.716 90.978 24.716 93.146V349.46H217.39V180.124Z" fill="#EDF4FC"/>
<path d="M432.47 89.202H28.66C26.492 89.202 24.716 90.976 24.716 93.146V113H436.414V93.146C436.414 90.978 434.638 89.202 432.47 89.202V89.202Z" fill="#5290DB"/>
<path d="M57 89.202H28.66C26.492 89.202 24.716 90.976 24.716 93.146V113H57V89.202Z" fill="#FC657E"/>
<path d="M119.472 327H56.528C52.37 327 49 323.63 49 319.472V238.53C49 234.372 52.37 231.002 56.528 231.002H119.47C123.628 231.002 126.998 234.372 126.998 238.53V319.472C127 323.63 123.63 327 119.472 327V327Z" fill="#70D6F9"/>
<path d="M217.39 327V231H156.528C152.37 231 149 234.37 149 238.528V319.47C149 323.628 152.37 326.998 156.528 326.998H217.39V327Z" fill="#F5C84C"/>
<path d="M465.498 375.34H407.096C403.894 375.34 401.298 377.936 401.298 381.138V395.586C401.298 398.788 403.894 401.384 407.096 401.384H465.498C468.7 401.384 471.296 398.788 471.296 395.586V381.138C471.296 377.938 468.7 375.34 465.498 375.34Z" fill="#F5C84C"/>
<path d="M465.498 420.614H407.096C403.894 420.614 401.298 423.21 401.298 426.412V440.86C401.298 444.062 403.894 446.658 407.096 446.658H465.498C468.7 446.658 471.296 444.062 471.296 440.86V426.412C471.296 423.21 468.7 420.614 465.498 420.614Z" fill="#FC657E"/>
<path d="M465.498 330.068H407.096C403.894 330.068 401.298 332.664 401.298 335.866V350.314C401.298 353.516 403.894 356.112 407.096 356.112H465.498C468.7 356.112 471.296 353.516 471.296 350.314V335.866C471.296 332.664 468.7 330.068 465.498 330.068Z" fill="#70D6F9"/>
<path d="M268.736 258.61C264.514 258.61 261.09 262.032 261.09 266.256V295.926C261.09 300.148 264.512 303.572 268.736 303.572H365.592V273.164C365.592 267.554 367.792 262.444 371.35 258.612H268.736V258.61Z" fill="#70D6F9"/>
<path d="M268.736 327.61C264.514 327.61 261.09 331.032 261.09 335.256V364.926C261.09 369.148 264.512 372.572 268.736 372.572H365.592V327.612H268.736V327.61Z" fill="#F5C84C"/>
<path d="M268.736 396.61C264.514 396.61 261.09 400.032 261.09 404.256V433.926C261.09 438.148 264.512 441.572 268.736 441.572H365.592V396.612H268.736V396.61Z" fill="#FC657E"/>
<path d="M236.042 490.504H149.436C140.568 490.504 133.354 483.29 133.354 474.422C133.354 465.554 140.568 458.342 149.436 458.342H216.062C218.824 458.342 221.062 460.58 221.062 463.342C221.062 466.104 218.824 468.342 216.062 468.342H149.436C146.082 468.342 143.354 471.068 143.354 474.422C143.354 477.776 146.082 480.504 149.436 480.504H236.042C238.804 480.504 241.042 482.742 241.042 485.504C241.042 488.266 238.802 490.504 236.042 490.504Z" fill="black"/>
<path d="M185.766 466.812C183.004 466.812 180.766 464.574 180.766 461.812V414.084C180.766 411.322 183.004 409.084 185.766 409.084C188.528 409.084 190.766 411.322 190.766 414.084V461.812C190.766 464.574 188.528 466.812 185.766 466.812Z" fill="black"/>
<path d="M387.042 490.504H236.04C222.998 490.504 212.39 479.894 212.39 466.854V180.124C212.39 167.082 223 156.474 236.04 156.474H437.478C450.52 156.474 461.128 167.084 461.128 180.124V250.416C461.128 253.178 458.89 255.416 456.128 255.416C453.366 255.416 451.128 253.178 451.128 250.416V180.124C451.128 172.596 445.004 166.474 437.478 166.474H236.042C228.514 166.474 222.392 172.598 222.392 180.124V466.854C222.392 474.382 228.516 480.504 236.042 480.504H387.044C389.806 480.504 392.044 482.742 392.044 485.504C392.044 488.266 389.804 490.504 387.042 490.504Z" fill="black"/>
<path d="M216.25 417.554H28.66C12.858 417.554 0 404.696 0 388.894V93.144C0 77.342 12.858 64.486 28.66 64.486H432.47C448.272 64.486 461.128 77.342 461.128 93.144V180.12C461.128 182.882 458.89 185.12 456.128 185.12C453.366 185.12 451.128 182.882 451.128 180.12V93.144C451.128 82.854 442.758 74.486 432.47 74.486H28.66C18.37 74.486 10 82.856 10 93.144V388.894C10 399.184 18.372 407.554 28.66 407.554H216.25C219.012 407.554 221.25 409.792 221.25 412.554C221.25 415.316 219.012 417.554 216.25 417.554V417.554Z" fill="black"/>
<path d="M485.548 490.504H387.042C372.456 490.504 360.59 478.638 360.59 464.052V273.162C360.59 258.576 372.456 246.71 387.042 246.71H485.548C500.134 246.71 512 258.576 512 273.162V464.052C512 478.638 500.134 490.504 485.548 490.504ZM387.042 256.71C377.972 256.71 370.59 264.09 370.59 273.162V464.052C370.59 473.122 377.97 480.504 387.042 480.504H485.548C494.618 480.504 502 473.124 502 464.052V273.162C502 264.092 494.62 256.71 485.548 256.71H387.042Z" fill="black"/>
<path d="M73 142H61C58.238 142 56 139.762 56 137C56 134.238 58.238 132 61 132H73C75.762 132 78 134.238 78 137C78 139.762 75.762 142 73 142Z" fill="black"/>
<path d="M108 142H96C93.238 142 91 139.762 91 137C91 134.238 93.238 132 96 132H108C110.762 132 113 134.238 113 137C113 139.762 110.762 142 108 142Z" fill="black"/>
<path d="M143 142H131C128.238 142 126 139.762 126 137C126 134.238 128.238 132 131 132H143C145.762 132 148 134.238 148 137C148 139.762 145.762 142 143 142Z" fill="black"/>
<path d="M275 210H263C260.238 210 258 207.762 258 205C258 202.238 260.238 200 263 200H275C277.762 200 280 202.238 280 205C280 207.762 277.762 210 275 210Z" fill="black"/>
<path d="M310 210H298C295.238 210 293 207.762 293 205C293 202.238 295.238 200 298 200H310C312.762 200 315 202.238 315 205C315 207.762 312.762 210 310 210Z" fill="black"/>
<path d="M345 210H333C330.238 210 328 207.762 328 205C328 202.238 330.238 200 333 200H345C347.762 200 350 202.238 350 205C350 207.762 347.762 210 345 210Z" fill="black"/>
<path d="M467 308H455C452.238 308 450 305.762 450 303C450 300.238 452.238 298 455 298H467C469.762 298 472 300.238 472 303C472 305.762 469.762 308 467 308Z" fill="black"/>
<path d="M481.856 471.65H390.736C384.512 471.65 379.446 466.586 379.446 460.358V276.854C379.446 270.628 384.51 265.562 390.736 265.562H412.806C417.974 265.562 422.53 268.622 424.414 273.358C426.362 278.258 431.026 281.424 436.296 281.424C441.566 281.424 446.232 278.258 448.178 273.358C450.06 268.622 454.616 265.562 459.784 265.562H481.854C488.078 265.562 493.144 270.626 493.144 276.854V460.358C493.144 466.586 488.08 471.65 481.856 471.65V471.65ZM390.736 275.564C390.026 275.564 389.446 276.144 389.446 276.856V460.36C389.446 461.07 390.024 461.652 390.736 461.652H481.856C482.566 461.652 483.146 461.072 483.146 460.36V276.856C483.146 276.146 482.568 275.564 481.856 275.564H459.786C458.756 275.564 457.828 276.164 457.474 277.056C454.004 285.786 445.69 291.428 436.298 291.428C426.904 291.428 418.59 285.788 415.122 277.054C414.766 276.164 413.836 275.564 412.808 275.564H390.736Z" fill="black"/>
<path d="M364.876 470.146H239.59C235.816 470.146 232.748 467.078 232.748 463.306V183.672C232.748 179.898 235.816 176.83 239.59 176.83H433.932C437.704 176.83 440.772 179.898 440.772 183.672V250.75C440.772 253.512 438.534 255.75 435.772 255.75C433.01 255.75 430.772 253.512 430.772 250.75V186.83H242.748V460.146H364.874C367.636 460.146 369.874 462.384 369.874 465.146C369.874 467.908 367.636 470.146 364.876 470.146V470.146Z" fill="black"/>
<path d="M216.626 354.46H6.37399C3.61199 354.46 1.37399 352.222 1.37399 349.46C1.37399 346.698 3.61199 344.46 6.37399 344.46H216.626C219.388 344.46 221.626 346.698 221.626 349.46C221.626 352.222 219.388 354.46 216.626 354.46Z" fill="black"/>
<path d="M24.716 353.5C21.954 353.5 19.716 351.262 19.716 348.5V93.144C19.716 88.214 23.728 84.202 28.66 84.202H432.47C437.402 84.202 441.414 88.214 441.414 93.144V160.25C441.414 163.012 439.176 165.25 436.414 165.25C433.652 165.25 431.414 163.012 431.414 160.25V94.204H29.716V348.5C29.716 351.262 27.478 353.5 24.716 353.5V353.5Z" fill="black"/>
<path d="M435.062 118H26.084C23.322 118 21.084 115.762 21.084 113C21.084 110.238 23.322 108 26.084 108H435.062C437.824 108 440.062 110.238 440.062 113C440.062 115.762 437.824 118 435.062 118Z" fill="black"/>
<path d="M57 116.5C54.238 116.5 52 114.262 52 111.5V90.312C52 87.55 54.238 85.312 57 85.312C59.762 85.312 62 87.55 62 90.312V111.5C62 114.262 59.762 116.5 57 116.5Z" fill="black"/>
<path d="M119.47 332H56.53C49.622 332 44 326.378 44 319.47V238.528C44 231.62 49.622 225.998 56.53 225.998H119.472C126.38 225.998 132.002 231.62 132.002 238.528V319.47C132 326.378 126.378 332 119.47 332V332ZM56.53 236C55.136 236 54 237.134 54 238.53V319.472C54 320.866 55.134 322.002 56.53 322.002H119.472C120.866 322.002 122.002 320.868 122.002 319.472V238.53C122.002 237.136 120.868 236 119.472 236H56.53Z" fill="black"/>
<path d="M215.834 332H156.53C149.622 332 144 326.378 144 319.47V238.528C144 231.62 149.622 225.998 156.53 225.998H216.064C218.826 225.998 221.064 228.236 221.064 230.998C221.064 233.76 218.826 235.998 216.064 235.998H156.53C155.136 235.998 154 237.132 154 238.528V319.47C154 320.864 155.134 322 156.53 322H215.834C218.596 322 220.834 324.238 220.834 327C220.834 329.762 218.596 332 215.834 332Z" fill="black"/>
<path d="M465.498 406.386H407.096C401.14 406.386 396.298 401.542 396.298 395.588V381.14C396.298 375.184 401.142 370.34 407.096 370.34H465.498C471.454 370.34 476.296 375.186 476.296 381.14V395.588C476.296 401.542 471.454 406.386 465.498 406.386ZM407.096 380.34C406.654 380.34 406.298 380.7 406.298 381.14V395.588C406.298 396.03 406.656 396.386 407.096 396.386H465.498C465.94 396.386 466.296 396.028 466.296 395.588V381.14C466.296 380.698 465.938 380.34 465.498 380.34H407.096Z" fill="black"/>
<path d="M465.498 451.66H407.096C401.14 451.66 396.298 446.814 396.298 440.86V426.412C396.298 420.456 401.142 415.614 407.096 415.614H465.498C471.454 415.614 476.296 420.458 476.296 426.412V440.86C476.296 446.814 471.454 451.66 465.498 451.66ZM407.096 425.614C406.654 425.614 406.298 425.972 406.298 426.412V440.86C406.298 441.302 406.656 441.66 407.096 441.66H465.498C465.94 441.66 466.296 441.3 466.296 440.86V426.412C466.296 425.97 465.938 425.614 465.498 425.614H407.096Z" fill="black"/>
<path d="M465.498 361.114H407.096C401.14 361.114 396.298 356.27 396.298 350.316V335.868C396.298 329.912 401.142 325.07 407.096 325.07H465.498C471.454 325.07 476.296 329.914 476.296 335.868V350.316C476.296 356.27 471.454 361.114 465.498 361.114ZM407.096 335.068C406.654 335.068 406.298 335.426 406.298 335.866V350.314C406.298 350.756 406.656 351.112 407.096 351.112H465.498C465.94 351.112 466.296 350.754 466.296 350.314V335.866C466.296 335.424 465.938 335.068 465.498 335.068H407.096Z" fill="black"/>
<path d="M364.5 308.57H268.736C261.764 308.57 256.09 302.898 256.09 295.926V266.256C256.09 259.284 261.764 253.61 268.736 253.61H370.188C372.95 253.61 375.188 255.848 375.188 258.61C375.188 261.372 372.95 263.61 370.188 263.61H268.736C267.278 263.61 266.09 264.798 266.09 266.256V295.926C266.09 297.384 267.278 298.57 268.736 298.57H364.5C367.262 298.57 369.5 300.808 369.5 303.57C369.5 306.332 367.262 308.57 364.5 308.57Z" fill="black"/>
<path d="M364.5 377.57H268.736C261.764 377.57 256.09 371.898 256.09 364.926V335.256C256.09 328.284 261.764 322.61 268.736 322.61H364.688C367.45 322.61 369.688 324.848 369.688 327.61C369.688 330.372 367.45 332.61 364.688 332.61H268.736C267.278 332.61 266.09 333.798 266.09 335.256V364.926C266.09 366.384 267.278 367.57 268.736 367.57H364.5C367.262 367.57 369.5 369.808 369.5 372.57C369.5 375.332 367.262 377.57 364.5 377.57Z" fill="black"/>
<path d="M364.188 446.57H268.736C261.764 446.57 256.09 440.898 256.09 433.926V404.256C256.09 397.284 261.764 391.61 268.736 391.61H364.376C367.138 391.61 369.376 393.848 369.376 396.61C369.376 399.372 367.138 401.61 364.376 401.61H268.736C267.278 401.61 266.09 402.798 266.09 404.256V433.926C266.09 435.384 267.278 436.57 268.736 436.57H364.188C366.95 436.57 369.188 438.808 369.188 441.57C369.188 444.332 366.95 446.57 364.188 446.57Z" fill="black"/>
</g>
<defs>
<clipPath id="clip0">
<rect width="512" height="512" fill="white"/>
</clipPath>
</defs>
</svg>
