<?xml version="1.0" encoding="UTF-8" ?>
<!DOCTYPE svg PUBLIC "-//W3C//DTD SVG 1.1//EN" "http://www.w3.org/Graphics/SVG/1.1/DTD/svg11.dtd">
<svg width="933pt" height="745pt" viewBox="0 0 933 745" version="1.1" xmlns="http://www.w3.org/2000/svg">
<g id="#f8fafbff">
</g>
<g id="#000000ff">
<path fill="#000000" opacity="1.00" d=" M 184.46 43.64 C 191.58 42.73 198.77 43.05 205.93 43.00 C 384.94 43.00 563.95 43.00 742.96 43.00 C 756.82 43.28 770.73 42.36 784.55 43.64 L 784.31 44.51 C 785.68 44.57 787.05 44.63 788.44 44.69 L 788.40 45.48 C 791.18 46.25 793.76 47.55 796.35 48.78 L 796.54 49.23 C 798.08 50.15 799.51 51.25 800.83 52.48 L 801.64 52.25 L 801.62 53.05 C 802.78 54.10 803.90 55.21 804.96 56.39 L 805.74 56.37 L 805.33 57.54 L 806.24 57.54 C 807.04 58.89 807.88 60.21 808.68 61.57 L 809.56 61.62 C 809.55 61.98 809.52 62.68 809.51 63.04 C 811.02 64.97 811.85 67.31 812.49 69.66 L 813.29 69.62 C 813.33 71.00 813.37 72.38 813.43 73.76 L 814.38 73.40 C 815.33 81.24 814.91 89.13 815.00 97.00 C 815.00 258.99 815.00 420.98 815.00 582.97 C 814.90 590.82 815.36 598.70 814.32 606.50 L 813.56 606.30 C 813.05 609.77 811.51 612.96 810.18 616.16 C 810.10 616.26 809.93 616.46 809.85 616.56 C 804.39 625.86 795.33 633.14 784.69 635.43 C 782.17 636.11 779.58 636.56 776.97 636.50 C 761.36 636.51 745.75 636.47 730.14 636.51 C 730.86 640.61 731.55 644.71 732.18 648.82 C 732.57 654.76 731.23 660.60 730.28 666.43 L 729.53 666.46 C 729.52 667.24 729.48 668.82 729.46 669.61 L 728.73 669.45 C 728.02 672.34 726.62 674.99 725.36 677.66 L 724.46 677.69 C 724.49 678.04 724.54 678.74 724.56 679.09 C 719.10 687.22 711.74 693.97 703.05 698.52 C 702.69 698.48 701.97 698.39 701.61 698.35 L 701.48 699.31 C 697.74 700.40 694.13 701.99 690.23 702.40 L 690.55 703.28 C 684.14 704.11 677.67 704.10 671.25 703.47 L 671.82 702.58 C 667.56 702.33 663.60 700.62 659.57 699.39 L 659.40 698.75 C 656.13 697.89 653.42 695.80 650.48 694.23 L 650.47 693.83 C 648.79 692.78 647.24 691.55 645.81 690.21 C 645.46 689.98 644.75 689.54 644.40 689.32 L 644.41 688.93 C 643.23 687.87 642.11 686.75 641.07 685.59 L 640.70 685.64 C 640.43 685.30 639.89 684.62 639.61 684.29 C 638.75 683.41 637.92 682.53 637.14 681.62 L 636.69 681.64 C 636.36 681.32 635.71 680.67 635.38 680.34 L 635.36 679.90 C 634.27 678.89 633.21 677.87 632.13 676.88 C 631.91 676.52 631.47 675.81 631.25 675.45 L 630.68 675.58 C 629.84 674.57 629.00 673.56 628.19 672.56 L 627.72 672.60 C 627.40 672.27 626.76 671.62 626.44 671.29 L 626.45 670.81 C 625.43 669.97 624.42 669.13 623.42 668.31 L 623.56 667.75 C 623.20 667.53 622.48 667.09 622.12 666.87 C 621.12 665.76 620.12 664.67 619.12 663.59 L 618.71 663.60 C 618.46 663.26 617.97 662.58 617.72 662.24 C 616.61 661.25 615.51 660.25 614.43 659.25 L 614.57 658.73 C 614.21 658.52 613.48 658.09 613.11 657.88 C 612.12 656.75 611.12 655.64 610.12 654.54 L 609.70 654.63 C 609.45 654.29 608.95 653.60 608.71 653.26 C 607.66 652.31 606.68 651.32 605.74 650.29 C 605.39 650.04 604.70 649.55 604.36 649.30 L 604.46 648.88 C 603.33 647.88 602.24 646.86 601.10 645.91 C 600.89 645.54 600.47 644.79 600.26 644.41 L 599.75 644.57 C 598.74 643.47 597.73 642.39 596.76 641.27 C 596.42 641.03 595.73 640.54 595.39 640.30 L 595.39 639.91 C 594.25 638.83 593.15 637.72 592.10 636.57 C 588.81 636.46 585.52 636.49 582.24 636.51 C 573.95 636.48 565.66 636.49 557.38 636.50 C 527.01 636.50 496.64 636.49 466.28 636.51 C 460.79 636.49 455.31 636.51 449.83 636.45 C 448.13 635.61 446.41 634.79 444.78 633.82 C 443.16 632.51 441.97 630.75 440.66 629.16 C 440.23 625.69 439.85 622.14 440.66 618.70 C 441.59 616.46 443.29 614.69 444.98 613.01 C 447.52 611.83 450.16 610.49 453.05 610.65 C 490.31 610.62 527.56 610.63 564.82 610.69 C 564.78 610.32 564.68 609.59 564.64 609.22 C 553.29 598.06 542.10 586.75 530.87 575.49 C 526.24 570.92 521.61 566.35 517.07 561.70 C 516.86 561.47 516.43 561.03 516.22 560.80 C 515.95 560.55 515.41 560.05 515.14 559.80 C 514.10 558.73 513.08 557.65 512.12 556.52 L 511.67 556.66 C 511.44 556.29 510.99 555.56 510.76 555.20 C 509.62 554.11 508.37 553.15 507.02 552.36 C 505.07 553.81 502.86 554.84 500.60 555.69 L 500.39 556.63 C 500.04 556.59 499.33 556.53 498.98 556.49 C 496.51 558.19 493.54 558.90 491.00 560.46 C 490.75 560.45 490.24 560.44 489.99 560.43 C 488.85 561.33 487.47 561.79 486.14 562.32 C 484.41 562.84 482.72 563.45 481.09 564.21 C 480.44 564.32 479.14 564.54 478.49 564.65 L 478.64 565.52 C 477.85 565.53 476.26 565.53 475.46 565.54 L 475.47 566.24 C 472.08 566.91 468.83 568.13 465.42 568.71 L 465.53 569.37 C 463.80 569.43 462.08 569.53 460.36 569.60 L 460.70 570.34 C 455.17 571.25 449.58 571.98 444.12 573.19 C 440.36 573.49 436.60 573.64 432.84 573.48 C 433.87 573.68 435.95 574.07 436.99 574.27 C 428.78 574.51 420.56 574.65 412.35 574.52 C 408.74 574.44 405.13 574.29 401.53 574.23 C 401.57 574.05 401.67 573.69 401.72 573.51 C 395.74 573.34 389.89 571.96 383.98 571.16 C 383.78 571.11 383.38 571.00 383.19 570.95 C 381.77 570.57 380.37 570.20 378.98 569.77 C 377.66 569.55 376.35 569.34 375.04 569.12 C 371.40 567.93 367.67 567.02 364.03 565.82 C 363.52 565.67 362.51 565.38 362.01 565.24 C 360.99 564.84 359.97 564.46 358.96 564.09 C 356.98 563.37 355.00 562.66 353.05 561.90 C 351.65 561.33 350.25 560.75 348.85 560.21 C 345.89 558.87 342.91 557.55 339.97 556.16 C 335.28 553.71 330.54 551.34 326.05 548.55 C 320.38 545.20 314.95 541.46 309.69 537.53 C 293.15 524.87 278.64 509.53 267.14 492.16 C 263.52 486.61 260.15 480.90 257.11 475.01 C 256.96 474.73 256.67 474.15 256.52 473.87 C 255.35 471.58 254.30 469.25 253.24 466.92 C 249.94 459.85 247.27 452.50 244.92 445.06 C 242.94 438.78 241.48 432.36 240.18 425.91 C 239.72 423.93 239.44 421.91 239.12 419.92 C 238.31 415.39 237.94 410.80 237.53 406.23 C 236.52 396.07 236.69 385.87 237.59 375.72 C 237.99 371.49 238.38 367.25 239.12 363.07 C 239.45 361.06 239.78 359.05 240.22 357.07 C 241.43 350.61 242.95 344.21 244.91 337.93 C 247.12 330.78 249.80 323.80 252.77 316.94 C 270.05 278.28 301.10 245.98 339.10 227.27 C 342.30 225.68 345.61 224.28 348.85 222.75 C 352.23 221.46 355.62 220.20 358.93 218.74 C 359.46 218.64 360.53 218.43 361.06 218.33 C 362.05 217.88 363.04 217.44 364.04 217.01 C 367.74 216.04 371.44 215.09 375.04 213.81 C 376.36 213.59 377.67 213.38 379.00 213.16 C 384.54 211.46 390.34 211.04 395.98 209.81 C 400.02 209.63 404.03 209.14 408.04 208.61 C 414.35 208.25 420.68 208.40 427.00 208.42 C 432.72 208.36 438.32 209.68 444.04 209.80 C 451.03 211.15 458.10 212.08 465.01 213.87 C 468.64 214.99 472.31 215.96 475.95 217.02 C 477.67 217.61 479.39 218.23 481.12 218.82 C 484.05 219.93 487.01 220.98 489.92 222.15 C 492.95 223.49 495.94 224.90 498.97 226.23 C 499.35 226.33 500.11 226.54 500.49 226.64 L 500.48 227.20 C 507.04 229.97 513.11 233.76 519.10 237.57 C 537.06 249.07 552.84 263.89 565.81 280.79 C 569.85 286.11 573.65 291.62 577.06 297.37 C 580.88 303.66 584.22 310.23 587.32 316.91 C 588.91 320.61 590.36 324.36 591.88 328.09 C 593.03 331.33 594.06 334.60 595.16 337.86 C 597.01 344.30 598.97 350.76 599.69 357.45 C 599.86 357.48 600.20 357.55 600.37 357.59 C 600.46 358.92 600.57 360.26 600.71 361.60 C 600.75 361.95 600.84 362.65 600.88 363.00 C 601.54 366.48 601.87 370.01 602.39 373.51 C 602.95 380.84 603.51 388.16 603.23 395.52 C 601.68 411.77 600.10 428.18 595.04 443.80 C 593.88 449.24 591.03 454.16 590.14 459.66 C 588.90 462.03 587.89 464.50 586.85 466.96 C 585.10 471.30 582.28 475.18 581.14 479.76 C 584.50 482.48 587.45 485.65 590.50 488.69 C 594.71 492.92 598.95 497.12 603.15 501.36 C 618.29 516.45 633.38 531.60 648.51 546.70 C 652.77 550.97 657.04 555.22 661.30 559.51 C 676.11 574.29 690.90 589.09 705.70 603.89 C 707.86 606.02 709.99 608.18 712.00 610.46 C 732.67 610.89 753.36 610.52 774.03 610.68 C 776.81 610.79 779.57 610.33 782.18 609.36 C 783.04 608.65 783.94 607.98 784.78 607.24 C 789.90 603.92 789.12 597.31 789.07 592.03 C 789.02 458.01 789.08 323.99 789.05 189.96 C 789.03 184.06 789.20 178.15 788.78 172.25 C 758.34 172.29 727.91 172.23 697.47 172.28 C 689.77 172.25 682.07 172.26 674.37 172.28 C 643.71 172.26 613.05 172.26 582.39 172.28 C 574.39 172.26 566.39 172.26 558.39 172.28 C 527.72 172.26 497.06 172.26 466.40 172.28 C 458.39 172.26 450.38 172.26 442.38 172.28 C 411.45 172.26 380.53 172.24 349.60 172.29 C 341.24 172.25 332.88 172.27 324.53 172.27 C 294.23 172.28 263.94 172.24 233.64 172.29 C 225.58 172.25 217.51 172.27 209.45 172.27 C 199.71 172.26 189.97 172.27 180.24 172.26 C 179.99 176.84 179.96 181.43 179.99 186.02 C 180.01 323.71 179.97 461.40 180.01 599.09 C 179.93 601.97 181.30 604.65 183.41 606.56 C 186.09 608.88 189.34 610.95 193.05 610.64 C 241.72 610.65 290.40 610.62 339.08 610.68 C 341.00 611.60 342.92 612.54 344.78 613.59 C 348.68 617.12 350.60 622.87 348.64 627.91 C 347.61 631.30 344.66 633.46 341.98 635.52 L 341.20 636.17 C 332.82 636.83 324.40 636.38 316.01 636.50 C 274.68 636.47 233.35 636.54 192.03 636.50 C 188.62 636.61 185.36 635.54 182.03 635.04 C 179.20 633.93 176.38 632.77 173.69 631.34 C 170.43 629.36 167.51 626.90 164.81 624.20 C 163.03 622.21 161.29 620.16 160.11 617.75 L 159.36 617.63 L 159.45 616.82 C 157.46 613.59 156.10 609.97 155.45 606.24 L 154.67 606.55 C 154.33 603.37 154.00 600.20 154.00 597.01 C 154.00 425.68 154.00 254.35 154.00 83.03 C 153.99 79.79 154.30 76.57 154.62 73.35 L 155.63 73.83 C 155.61 73.01 155.59 71.35 155.58 70.52 L 156.25 70.45 C 156.93 68.14 157.83 65.90 158.68 63.65 L 159.66 63.41 C 159.60 62.96 159.49 62.07 159.43 61.62 L 160.32 61.57 C 161.12 60.22 161.96 58.90 162.77 57.56 L 163.31 57.59 C 163.50 57.21 163.89 56.46 164.08 56.08 C 165.14 55.14 166.13 54.12 167.14 53.12 C 167.42 52.90 167.98 52.45 168.26 52.22 C 169.62 51.18 171.02 50.17 172.48 49.27 L 172.64 48.78 C 175.23 47.55 177.81 46.26 180.59 45.49 L 180.56 44.69 C 181.93 44.63 183.31 44.57 184.68 44.52 L 184.46 43.64 M 187.29 70.43 C 185.88 70.92 184.81 72.07 183.56 72.85 C 183.41 73.16 183.12 73.77 182.97 74.08 C 181.97 75.20 181.25 76.52 180.54 77.83 C 180.38 79.89 180.23 81.95 180.23 84.01 C 180.35 104.82 180.12 125.64 180.27 146.45 C 199.04 146.38 217.80 146.46 236.57 146.41 C 244.92 146.43 253.27 146.44 261.61 146.40 C 291.63 146.44 321.64 146.42 351.66 146.41 C 360.29 146.42 368.93 146.45 377.57 146.40 C 407.90 146.44 438.24 146.43 468.57 146.41 C 476.89 146.44 485.21 146.43 493.54 146.41 C 523.91 146.43 554.27 146.44 584.64 146.40 C 592.96 146.44 601.28 146.43 609.60 146.41 C 639.94 146.43 670.28 146.43 700.63 146.41 C 708.63 146.43 716.62 146.44 724.62 146.41 C 746.02 146.44 767.41 146.42 788.81 146.42 C 788.80 127.29 788.80 108.16 788.81 89.04 C 788.77 85.02 789.04 80.94 788.10 77.00 C 787.44 76.00 786.80 75.02 786.11 74.05 C 784.19 71.77 781.61 69.58 778.52 69.38 C 776.68 69.11 774.85 68.88 773.01 68.87 C 579.99 68.91 386.97 68.87 193.95 68.89 C 191.64 68.90 189.32 69.30 187.29 70.43 M 394.04 235.99 L 395.31 236.03 C 393.81 236.30 392.31 236.57 390.81 236.85 C 387.57 237.61 384.30 238.26 381.05 238.99 C 379.75 239.38 378.46 239.77 377.17 240.18 C 371.99 241.58 366.88 243.26 361.88 245.19 L 363.08 245.24 C 359.73 245.78 356.80 247.65 353.61 248.73 L 353.37 249.25 C 350.45 250.29 347.67 251.70 345.04 253.35 C 344.79 253.42 344.27 253.55 344.02 253.62 C 338.85 256.91 333.49 259.90 328.57 263.58 C 310.56 276.37 295.41 293.10 284.26 312.16 C 280.84 317.90 277.91 323.92 275.20 330.04 C 274.56 331.29 274.21 332.63 274.15 334.04 L 274.11 332.75 C 268.75 345.89 265.19 359.83 263.73 373.94 C 263.53 376.62 263.41 379.31 262.84 381.94 C 262.57 388.30 262.56 394.69 262.84 401.06 C 263.91 408.96 264.29 417.00 266.23 424.77 C 268.32 434.21 271.27 443.43 274.89 452.40 C 275.23 452.56 275.91 452.90 276.24 453.07 L 275.17 453.68 C 278.31 459.26 280.98 465.11 283.98 470.79 L 284.85 469.84 L 284.07 470.79 C 291.78 483.38 300.85 495.20 311.55 505.41 C 316.02 509.69 321.00 513.39 325.60 517.52 L 326.02 517.50 C 331.48 521.66 337.27 525.35 343.21 528.79 L 343.85 528.03 L 343.09 528.99 C 343.81 529.28 345.24 529.87 345.95 530.16 C 348.32 531.56 350.79 532.79 353.35 533.80 L 353.59 534.31 C 356.47 535.33 359.26 536.60 362.11 537.72 C 363.08 538.10 364.06 538.48 365.04 538.88 C 366.04 539.25 367.06 539.60 368.08 539.95 C 371.17 541.02 374.25 542.17 377.49 542.70 L 377.58 543.37 C 378.74 543.50 379.90 543.65 381.06 543.81 C 385.68 545.12 390.41 546.35 395.24 546.52 L 393.88 547.05 C 404.53 548.34 415.23 549.12 425.97 548.67 C 432.96 548.92 439.78 547.14 446.75 547.22 C 446.22 546.99 445.17 546.54 444.64 546.31 C 449.52 546.72 454.22 544.89 458.95 543.96 C 460.27 543.61 461.61 543.28 462.92 542.84 C 466.68 541.74 470.44 540.62 474.13 539.31 C 475.38 538.78 476.62 538.21 477.89 537.71 C 480.33 536.88 482.72 535.89 484.98 534.64 C 485.25 534.60 485.79 534.50 486.06 534.46 C 488.94 532.66 492.22 531.59 494.95 529.55 C 495.22 529.52 495.75 529.44 496.02 529.40 C 500.52 526.50 505.22 523.90 509.59 520.79 C 530.60 506.25 547.99 486.52 559.69 463.80 C 561.62 460.27 563.23 456.58 564.84 452.90 C 566.01 450.28 567.04 447.61 568.03 444.92 C 569.84 439.52 571.90 434.16 572.66 428.49 C 572.84 428.49 573.22 428.49 573.40 428.49 C 573.51 426.66 573.64 424.83 573.74 423.02 L 574.04 424.27 C 575.72 416.95 576.15 409.45 577.17 402.05 C 577.52 394.69 577.51 387.31 577.18 379.96 C 576.73 377.93 576.47 375.88 576.22 373.83 C 575.74 366.88 574.42 359.93 572.65 353.19 C 572.52 352.63 572.26 351.51 572.13 350.94 C 570.88 346.59 569.52 342.28 568.02 338.01 C 567.03 335.35 565.98 332.70 564.94 330.06 C 563.41 326.58 561.61 323.22 560.25 319.67 L 559.76 319.38 C 559.18 318.19 558.52 317.04 557.83 315.92 C 554.98 310.19 551.52 304.66 547.44 299.70 L 547.83 299.25 C 544.96 296.39 542.83 292.91 540.08 289.95 C 531.59 279.51 521.34 270.66 510.49 262.75 C 507.24 260.55 503.80 258.60 500.78 256.09 L 500.11 256.39 C 498.48 255.18 496.75 254.09 494.98 253.10 C 492.05 251.62 489.10 250.17 486.20 248.65 C 484.08 247.73 481.95 246.84 479.76 246.13 C 479.30 245.90 478.39 245.43 477.93 245.19 C 476.67 244.68 475.38 244.21 474.15 243.65 C 470.42 242.40 466.68 241.18 462.89 240.17 C 457.34 238.29 451.53 237.40 445.80 236.27 C 432.10 233.87 417.97 233.74 404.10 234.93 C 400.80 235.71 397.37 235.46 394.04 235.99 M 565.32 503.46 L 564.31 503.37 L 564.54 504.21 C 563.00 505.77 561.62 507.47 560.21 509.14 C 559.99 509.45 559.53 510.07 559.30 510.38 C 556.71 513.51 553.64 516.21 551.11 519.41 L 550.69 519.36 C 550.43 519.70 549.93 520.38 549.67 520.72 C 548.81 521.52 547.95 522.32 547.10 523.13 C 544.39 525.73 541.68 528.34 538.89 530.85 C 538.61 531.06 538.04 531.46 537.75 531.67 C 536.39 532.75 535.06 533.87 533.65 534.87 L 533.57 535.26 C 532.16 536.16 530.26 536.88 530.44 538.88 C 531.86 539.94 533.15 541.18 534.19 542.65 L 535.46 542.33 L 534.44 542.83 C 538.85 546.74 543.01 550.95 546.98 555.31 C 547.39 555.45 548.21 555.73 548.61 555.88 L 548.20 556.75 C 550.92 557.82 552.24 562.58 555.53 561.45 C 567.18 549.85 578.70 538.10 590.47 526.61 C 590.45 526.19 590.40 525.33 590.37 524.91 C 588.72 523.56 587.05 522.18 585.95 520.32 L 584.77 520.39 L 585.63 520.20 C 581.22 516.19 576.95 512.00 573.01 507.54 C 572.60 507.47 571.80 507.34 571.40 507.27 L 571.89 506.39 C 570.91 505.51 569.95 504.61 569.01 503.70 L 568.27 503.59 L 568.42 502.37 C 567.98 502.39 567.09 502.43 566.64 502.45 L 566.19 500.76 C 565.89 501.65 565.60 502.55 565.32 503.46 M 608.82 544.49 C 597.01 556.49 585.19 568.50 573.04 580.15 C 573.40 581.00 573.88 581.80 574.47 582.53 C 580.30 588.70 586.78 594.29 592.26 600.79 L 592.73 600.51 C 596.85 605.30 601.56 609.55 606.01 614.04 C 613.77 621.93 621.65 629.70 629.46 637.55 C 636.32 644.69 643.78 651.29 650.25 658.79 L 651.26 658.35 L 650.51 658.73 C 655.42 663.33 660.00 668.25 664.90 672.86 L 665.26 671.86 L 664.95 673.06 C 666.70 673.89 668.44 674.80 670.17 675.71 C 671.74 676.28 673.33 676.80 674.92 677.37 C 678.91 677.65 683.08 678.19 686.95 676.84 C 687.91 676.61 688.89 676.39 689.89 676.18 C 695.47 673.57 700.32 669.56 703.36 664.13 C 704.61 661.25 705.42 658.21 706.30 655.20 C 706.35 652.78 706.34 650.36 706.26 647.95 C 705.38 645.20 704.63 642.41 703.37 639.83 C 702.83 638.69 702.35 637.54 701.92 636.38 C 701.70 636.42 701.26 636.50 701.04 636.53 C 697.69 631.52 692.43 628.17 688.96 623.25 C 688.73 623.28 688.26 623.34 688.02 623.37 C 684.43 618.58 679.66 614.80 675.59 610.42 C 665.11 599.62 653.99 589.40 643.89 578.25 L 642.60 578.55 L 643.57 578.07 C 639.14 574.11 634.81 569.97 631.01 565.40 C 630.59 565.38 629.74 565.35 629.31 565.33 L 630.01 564.67 C 623.23 558.17 616.62 551.50 610.07 544.78 C 609.76 544.71 609.13 544.56 608.82 544.49 Z" />
<path fill="#000000" opacity="1.00" d=" M 226.33 100.42 C 229.78 95.28 237.19 93.17 242.69 96.25 C 245.52 97.67 247.50 100.30 249.05 102.98 C 249.85 105.76 249.68 108.67 249.57 111.52 L 248.89 111.66 C 247.98 115.73 244.64 118.93 240.60 119.83 L 240.52 120.52 C 238.31 120.53 236.11 120.52 233.91 120.40 C 232.91 119.97 231.90 119.55 230.88 119.17 C 228.74 117.92 227.06 116.10 225.54 114.17 C 223.70 109.81 223.35 104.37 226.33 100.42 Z" />
<path fill="#000000" opacity="1.00" d=" M 288.50 95.68 C 295.10 93.01 303.00 96.42 305.67 102.99 C 305.84 103.48 306.17 104.45 306.34 104.94 C 307.85 111.76 303.12 117.95 297.08 120.52 C 294.36 120.53 291.56 120.72 288.96 119.76 C 282.29 117.04 278.84 108.94 281.72 102.27 C 283.34 99.50 285.67 97.21 288.50 95.68 Z" />
<path fill="#000000" opacity="1.00" d=" M 341.91 97.79 C 344.94 95.77 348.46 94.55 352.13 94.66 C 354.67 95.72 357.47 96.47 359.44 98.51 C 361.49 100.44 362.33 103.20 363.33 105.75 C 363.31 107.19 363.29 108.63 363.28 110.07 C 362.14 113.95 359.63 117.14 356.27 119.34 C 353.16 120.59 349.83 120.72 346.53 120.47 L 346.41 119.75 C 344.39 119.34 342.77 118.03 341.15 116.85 C 338.41 113.51 336.85 109.26 337.64 104.92 C 338.09 103.94 338.50 102.94 338.87 101.92 C 339.82 100.50 340.86 99.14 341.91 97.79 Z" />
<path fill="#000000" opacity="1.00" d=" M 444.28 99.30 C 447.37 95.53 452.44 94.75 457.05 94.90 C 543.71 94.87 630.37 94.91 717.03 94.89 C 723.52 94.91 730.03 94.68 736.50 95.43 C 739.45 96.76 741.85 99.05 743.67 101.69 C 746.05 107.19 745.11 114.44 739.88 117.97 C 735.79 121.36 730.26 120.53 725.36 120.60 C 695.03 120.57 664.70 120.58 634.37 120.59 C 626.03 120.58 617.69 120.58 609.35 120.59 C 579.00 120.58 548.65 120.58 518.30 120.59 C 509.98 120.58 501.67 120.58 493.36 120.59 C 479.89 120.54 466.41 120.65 452.95 120.55 C 447.86 120.65 443.86 116.76 441.44 112.66 C 440.73 108.09 440.67 102.75 444.28 99.30 Z" />
<path fill="#000000" opacity="1.00" d=" M 595.46 237.80 C 597.30 234.28 600.04 231.25 603.65 229.49 C 608.74 228.90 613.88 229.27 619.00 229.04 C 626.19 229.05 633.75 227.86 640.65 230.46 C 645.93 233.43 648.75 240.15 646.70 245.94 C 645.59 249.73 642.35 252.26 639.07 254.15 C 637.90 254.37 636.73 254.57 635.57 254.79 C 626.02 254.52 616.46 254.84 606.91 254.65 C 601.71 254.70 597.92 250.48 595.54 246.31 C 595.37 243.48 595.37 240.64 595.46 237.80 Z" />
<path fill="#000000" opacity="1.00" d=" M 682.01 232.97 C 686.23 228.11 693.26 228.93 699.05 228.85 C 711.26 229.16 723.52 228.23 735.69 229.40 C 742.66 231.57 746.51 239.25 744.49 246.22 C 743.00 249.68 740.07 252.15 737.01 254.18 C 731.37 255.08 725.66 254.62 720.00 254.72 C 710.00 254.66 700.01 254.81 690.02 254.64 C 684.50 254.51 680.34 249.97 678.45 245.12 C 678.05 240.80 678.63 236.05 682.01 232.97 Z" />
<path fill="#000000" opacity="1.00" d=" M 390.79 262.86 C 400.16 261.43 409.54 260.01 419.04 259.81 C 433.62 259.93 448.20 262.16 462.03 266.81 C 468.65 269.06 475.09 271.81 481.27 275.09 C 500.07 284.98 516.35 299.59 528.42 317.05 C 532.16 322.43 535.44 328.13 538.35 334.00 C 541.50 340.44 543.96 347.18 546.24 353.97 C 546.38 355.00 546.54 356.04 546.69 357.08 C 546.86 357.24 547.20 357.56 547.37 357.72 C 551.15 374.09 552.99 391.10 550.51 407.82 C 549.64 414.99 548.21 422.09 546.15 429.02 C 544.59 434.00 542.80 438.90 540.82 443.73 C 528.12 472.97 504.49 497.11 475.72 510.77 C 475.63 510.87 475.44 511.09 475.35 511.19 C 470.90 512.81 466.50 514.56 462.06 516.19 C 453.38 519.03 444.44 520.96 435.41 522.25 C 410.84 524.75 385.55 521.02 363.29 510.09 C 357.10 507.22 351.24 503.69 345.61 499.85 C 328.02 487.70 313.32 471.28 303.44 452.30 C 299.70 445.13 296.56 437.63 294.29 429.87 C 285.67 402.55 286.80 372.49 296.70 345.66 C 310.19 309.31 340.46 279.67 377.18 267.15 L 378.15 266.79 C 383.02 265.21 387.93 263.63 393.06 263.18 C 392.30 263.07 391.54 262.96 390.79 262.86 M 398.09 288.15 C 396.55 288.35 395.02 288.54 393.49 288.70 L 393.65 289.48 C 392.95 289.53 391.56 289.62 390.87 289.66 C 387.67 291.13 384.13 291.72 381.03 293.42 C 380.76 293.43 380.21 293.45 379.94 293.46 C 376.98 295.18 373.78 296.42 370.64 297.75 L 370.45 298.67 C 370.10 298.66 369.40 298.63 369.05 298.62 C 367.19 299.97 365.21 301.15 363.23 302.31 C 361.02 303.82 358.83 305.35 356.58 306.79 L 356.46 307.20 C 354.79 308.35 353.18 309.59 351.56 310.81 L 351.57 311.68 L 350.41 311.33 L 350.44 312.13 C 345.59 315.85 341.75 320.63 337.61 325.07 C 337.56 325.28 337.45 325.71 337.40 325.93 C 335.75 327.56 334.38 329.45 333.21 331.44 L 332.77 331.53 C 331.61 333.54 330.38 335.51 329.26 337.55 L 328.40 337.62 C 328.42 337.97 328.47 338.67 328.50 339.03 C 326.60 341.54 325.20 344.41 324.20 347.39 L 323.65 347.55 C 322.80 350.03 321.87 352.48 320.71 354.83 C 320.62 355.49 320.45 356.83 320.36 357.49 L 319.46 357.40 C 319.46 358.18 319.45 359.73 319.45 360.51 L 318.70 360.48 C 318.25 362.99 317.61 365.46 316.81 367.88 C 316.75 368.61 316.65 370.06 316.60 370.78 L 315.78 370.62 C 315.64 373.61 315.44 376.60 315.38 379.61 L 314.60 379.39 C 314.29 387.46 314.29 395.54 314.60 403.61 L 315.39 403.39 C 315.44 405.77 315.55 408.15 315.61 410.54 L 316.46 410.51 C 316.46 411.16 316.47 412.47 316.47 413.13 C 317.24 416.24 318.09 419.33 318.70 422.49 L 319.44 422.53 C 319.45 423.30 319.47 424.83 319.47 425.60 L 320.38 425.51 C 320.46 426.17 320.62 427.50 320.70 428.16 C 321.85 430.46 322.82 432.85 323.47 435.34 L 324.24 435.63 C 325.23 438.60 326.62 441.44 328.49 443.96 C 328.48 444.32 328.44 445.03 328.42 445.38 L 329.27 445.43 C 330.39 447.46 331.61 449.43 332.77 451.44 L 333.22 451.56 C 335.46 455.30 338.41 458.52 341.16 461.88 C 344.06 465.04 347.03 468.18 350.41 470.86 L 350.44 471.27 C 350.80 471.50 351.51 471.95 351.87 472.17 C 353.26 473.43 354.72 474.62 356.22 475.76 C 357.15 476.50 358.17 477.15 359.14 477.88 C 361.22 479.17 363.24 480.57 365.21 482.04 L 365.71 481.57 C 366.82 483.26 368.82 483.89 370.56 484.74 L 370.60 485.59 C 370.96 485.57 371.67 485.54 372.03 485.52 C 375.36 487.20 378.69 489.59 382.54 489.62 C 382.41 489.79 382.14 490.13 382.00 490.30 C 384.96 491.27 387.97 492.12 390.86 493.29 C 391.56 493.35 392.98 493.46 393.68 493.51 L 393.45 494.38 C 395.14 494.45 396.82 494.55 398.51 494.63 L 398.50 495.31 C 403.29 495.91 408.09 496.45 412.86 497.17 C 422.47 497.85 432.01 496.61 441.50 495.33 L 441.50 494.63 C 443.18 494.55 444.87 494.46 446.56 494.39 L 446.33 493.53 C 447.04 493.47 448.45 493.36 449.16 493.30 C 451.40 492.43 453.70 491.75 455.94 490.85 C 456.58 490.73 457.87 490.49 458.51 490.37 L 458.54 489.74 C 460.09 489.26 461.62 488.69 463.16 488.16 C 464.77 487.34 466.38 486.52 467.93 485.57 C 468.30 485.57 469.05 485.57 469.42 485.57 L 469.55 484.32 C 469.91 484.34 470.63 484.38 470.99 484.40 C 472.64 483.11 474.46 482.08 476.37 481.22 L 476.38 480.41 L 477.29 480.50 C 479.26 478.98 481.35 477.64 483.42 476.26 L 483.54 475.84 C 485.17 474.74 486.70 473.52 488.23 472.28 C 488.51 472.04 489.06 471.56 489.34 471.31 C 495.92 465.51 501.99 459.04 506.77 451.66 L 507.25 451.51 C 508.43 449.49 509.66 447.51 510.78 445.46 L 511.63 445.39 C 511.61 445.04 511.55 444.35 511.53 444.00 C 513.46 441.48 514.84 438.58 515.85 435.58 L 516.42 435.49 C 517.27 433.03 518.17 430.58 519.25 428.21 C 519.89 426.36 520.51 424.50 520.86 422.58 L 521.34 422.53 C 521.81 420.04 522.43 417.58 523.24 415.18 C 523.29 414.44 523.39 412.96 523.44 412.22 L 524.26 412.47 C 524.30 408.98 524.66 405.52 525.35 402.10 C 526.02 394.24 525.64 386.33 525.36 378.46 L 524.61 378.60 C 524.55 375.91 524.38 373.23 524.27 370.54 L 523.58 370.76 C 522.99 365.95 521.24 361.39 520.20 356.68 C 520.02 356.59 519.68 356.43 519.50 356.35 C 518.95 353.26 517.37 350.50 516.40 347.54 L 515.88 347.35 C 514.81 344.39 513.44 341.53 511.60 338.98 C 511.56 338.74 511.50 338.26 511.46 338.01 C 511.18 337.36 510.61 336.05 510.33 335.39 L 509.84 336.21 C 509.03 334.61 508.18 333.06 507.34 331.49 L 506.83 331.38 C 501.87 323.75 495.56 317.00 488.62 311.14 L 488.51 310.73 C 486.85 309.54 485.22 308.32 483.55 307.17 L 483.43 306.72 C 481.40 305.39 479.40 304.06 477.41 302.70 C 477.05 302.46 476.34 301.98 475.99 301.73 C 474.24 300.81 472.53 299.80 470.99 298.56 C 470.63 298.59 469.93 298.64 469.57 298.67 L 469.37 297.73 C 467.52 296.99 465.70 296.17 463.96 295.21 C 463.07 295.00 461.28 294.59 460.39 294.38 C 460.56 294.17 460.89 293.73 461.05 293.51 C 460.53 293.47 459.49 293.39 458.96 293.35 C 455.89 291.66 452.40 291.02 449.18 289.72 C 448.32 289.57 446.61 289.26 445.76 289.11 L 447.15 288.99 C 445.41 288.66 443.65 288.40 441.91 288.12 C 437.10 286.59 431.97 286.86 427.10 285.79 C 422.36 285.62 417.63 285.61 412.90 285.79 C 408.03 286.88 402.89 286.58 398.09 288.15 Z" />
<path fill="#000000" opacity="1.00" d=" M 621.81 300.04 C 624.10 294.81 628.97 290.69 634.91 290.82 C 667.30 290.75 699.69 290.71 732.07 290.83 C 739.34 290.86 745.97 297.67 744.84 305.07 C 744.85 310.04 740.93 313.66 737.00 316.03 C 734.71 316.45 732.39 316.68 730.08 316.66 C 710.12 316.61 690.15 316.65 670.19 316.64 C 661.71 316.64 653.23 316.63 644.75 316.64 C 639.82 316.59 634.88 316.89 629.99 316.20 C 627.11 314.46 624.56 312.23 622.72 309.39 C 622.33 308.25 621.93 307.12 621.53 306.00 C 621.57 304.01 621.64 302.02 621.81 300.04 Z" />
<path fill="#000000" opacity="1.00" d=" M 408.96 330.81 C 410.56 327.63 413.91 326.11 416.89 324.52 C 418.97 324.51 421.05 324.50 423.13 324.51 C 425.09 325.57 427.08 326.60 428.94 327.84 C 434.57 333.16 434.12 343.33 427.56 347.71 C 421.97 352.20 413.20 350.35 409.40 344.43 C 408.72 343.34 408.07 342.24 407.43 341.14 C 407.26 337.65 406.87 333.86 408.96 330.81 Z" />
<path fill="#000000" opacity="1.00" d=" M 695.48 353.50 C 703.89 352.06 712.47 353.04 720.96 352.76 C 726.32 353.02 731.95 351.86 737.09 353.86 C 739.77 354.83 741.61 357.10 743.49 359.13 C 744.85 362.59 745.42 366.48 744.30 370.10 C 742.49 375.08 737.36 378.75 732.03 378.56 C 720.31 378.55 708.58 378.71 696.86 378.46 C 691.84 376.31 687.19 371.85 687.35 366.00 C 686.90 360.48 690.95 356.00 695.48 353.50 Z" />
<path fill="#000000" opacity="1.00" d=" M 407.63 391.09 C 409.33 386.98 412.94 384.28 416.90 382.54 C 418.96 382.53 421.03 382.53 423.10 382.53 C 426.29 383.99 429.31 385.90 431.39 388.80 C 431.82 390.03 432.31 391.25 432.71 392.50 C 432.91 411.18 432.89 429.88 432.74 448.57 C 431.55 453.43 427.54 456.71 423.08 458.51 C 420.64 458.54 418.19 458.46 415.82 457.88 L 414.98 457.53 C 410.49 455.56 407.15 450.98 407.26 446.01 C 407.18 431.33 407.28 416.65 407.23 401.98 C 407.21 398.34 407.15 394.70 407.63 391.09 Z" />
<path fill="#000000" opacity="1.00" d=" M 385.54 614.44 C 391.01 608.67 400.88 610.02 405.37 616.32 C 407.66 620.44 408.29 625.69 405.78 629.87 C 403.01 634.95 397.00 637.22 391.43 636.52 L 391.47 635.62 C 390.79 635.56 389.44 635.44 388.77 635.38 C 386.40 633.65 384.39 631.51 382.64 629.18 C 382.01 624.17 381.28 618.13 385.54 614.44 Z" />
</g>
<g id="#7dbfd3ff">
<path fill="#7dbfd3" opacity="1.00" d=" M 187.29 70.43 C 189.32 69.30 191.64 68.90 193.95 68.89 C 386.97 68.87 579.99 68.91 773.01 68.87 C 774.85 68.88 776.68 69.11 778.52 69.38 C 777.99 69.50 776.94 69.74 776.41 69.86 C 746.03 69.85 715.65 69.73 685.26 69.90 C 676.95 69.91 668.64 69.88 660.33 69.91 C 629.97 69.79 599.62 69.73 569.27 69.93 C 560.94 69.91 552.61 69.87 544.28 69.90 C 513.64 69.82 483.00 69.68 452.37 69.97 C 444.04 69.93 435.70 69.83 427.37 69.88 C 397.01 69.84 366.64 69.69 336.28 69.96 C 328.28 69.89 320.27 69.87 312.27 69.91 C 281.60 69.80 250.92 69.71 220.25 69.95 C 209.27 70.08 198.25 69.42 187.29 70.43 Z" />
</g>
<g id="#89d2e8ff">
<path fill="#89d2e8" opacity="1.00" d=" M 778.52 69.38 C 781.61 69.58 784.19 71.77 786.11 74.05 C 786.91 76.00 787.75 77.97 788.07 80.07 C 788.46 82.27 786.59 83.85 785.32 85.33 C 770.94 99.63 756.60 113.95 742.28 128.31 C 736.45 134.39 730.10 139.98 724.62 146.41 C 716.62 146.44 708.63 146.43 700.63 146.41 C 708.32 137.29 717.67 129.72 725.36 120.60 C 730.26 120.53 735.79 121.36 739.88 117.97 C 745.11 114.44 746.05 107.19 743.67 101.69 C 746.45 99.86 749.05 97.75 751.31 95.31 C 759.55 86.70 768.22 78.51 776.41 69.86 C 776.94 69.74 777.99 69.50 778.52 69.38 Z" />
<path fill="#89d2e8" opacity="1.00" d=" M 183.56 72.85 C 184.81 72.07 185.88 70.92 187.29 70.43 C 198.25 69.42 209.27 70.08 220.25 69.95 C 211.23 79.68 201.58 88.81 192.41 98.40 C 188.87 102.13 185.08 105.61 181.19 108.96 C 180.89 102.64 181.03 96.30 181.10 89.97 C 181.21 84.65 180.32 78.97 182.97 74.08 C 183.12 73.77 183.41 73.16 183.56 72.85 Z" />
<path fill="#89d2e8" opacity="1.00" d=" M 312.27 69.91 C 320.27 69.87 328.28 69.89 336.28 69.96 C 329.77 76.90 323.11 83.71 316.45 90.50 C 312.40 94.24 308.31 98.08 305.67 102.99 C 303.00 96.42 295.10 93.01 288.50 95.68 C 290.66 90.72 295.12 87.51 298.76 83.72 C 303.28 79.13 307.99 74.73 312.27 69.91 Z" />
<path fill="#89d2e8" opacity="1.00" d=" M 427.37 69.88 C 435.70 69.83 444.04 69.93 452.37 69.97 C 441.97 81.37 430.74 91.99 420.28 103.33 C 415.80 107.47 411.25 111.53 407.16 116.07 C 399.89 123.17 392.53 130.18 385.59 137.61 C 382.70 140.34 379.73 143.03 377.57 146.40 C 368.93 146.45 360.29 146.42 351.66 146.41 C 357.27 139.82 363.72 134.01 369.75 127.82 C 384.13 113.50 398.38 99.07 412.80 84.79 C 417.68 79.85 422.75 75.08 427.37 69.88 Z" />
<path fill="#89d2e8" opacity="1.00" d=" M 544.28 69.90 C 552.61 69.87 560.94 69.91 569.27 69.93 C 561.70 78.36 553.04 85.75 545.62 94.31 C 537.30 94.41 528.98 94.40 520.66 94.28 C 528.09 85.73 536.71 78.32 544.28 69.90 Z" />
<path fill="#89d2e8" opacity="1.00" d=" M 660.33 69.91 C 668.64 69.88 676.95 69.91 685.26 69.90 C 677.71 78.32 669.07 85.70 661.67 94.26 C 653.36 94.42 645.05 94.38 636.74 94.28 C 644.11 85.68 652.78 78.34 660.33 69.91 Z" />
<path fill="#89d2e8" opacity="1.00" d=" M 275.72 106.66 C 277.40 104.80 279.37 103.18 281.72 102.27 C 278.84 108.94 282.29 117.04 288.96 119.76 C 281.61 123.50 276.81 130.47 271.01 136.08 C 267.68 139.34 264.02 142.34 261.61 146.40 C 253.27 146.44 244.92 146.43 236.57 146.41 C 249.14 132.70 262.83 120.06 275.72 106.66 Z" />
<path fill="#89d2e8" opacity="1.00" d=" M 493.36 120.59 C 501.67 120.58 509.98 120.58 518.30 120.59 C 510.68 129.79 501.24 137.28 493.54 146.41 C 485.21 146.43 476.89 146.44 468.57 146.41 C 476.28 137.27 485.74 129.80 493.36 120.59 Z" />
<path fill="#89d2e8" opacity="1.00" d=" M 609.35 120.59 C 617.69 120.58 626.03 120.58 634.37 120.59 C 626.66 129.71 617.31 137.29 609.60 146.41 C 601.28 146.43 592.96 146.44 584.64 146.40 C 592.31 137.26 601.69 129.73 609.35 120.59 Z" />
</g>
<g id="#91def5ff">
<path fill="#91def5" opacity="1.00" d=" M 220.25 69.95 C 250.92 69.71 281.60 69.80 312.27 69.91 C 307.99 74.73 303.28 79.13 298.76 83.72 C 295.12 87.51 290.66 90.72 288.50 95.68 C 285.67 97.21 283.34 99.50 281.72 102.27 C 279.37 103.18 277.40 104.80 275.72 106.66 C 262.83 120.06 249.14 132.70 236.57 146.41 C 217.80 146.46 199.04 146.38 180.27 146.45 C 180.12 125.64 180.35 104.82 180.23 84.01 C 180.23 81.95 180.38 79.89 180.54 77.83 C 181.25 76.52 181.97 75.20 182.97 74.08 C 180.32 78.97 181.21 84.65 181.10 89.97 C 181.03 96.30 180.89 102.64 181.19 108.96 C 185.08 105.61 188.87 102.13 192.41 98.40 C 201.58 88.81 211.23 79.68 220.25 69.95 M 226.33 100.42 C 223.35 104.37 223.70 109.81 225.54 114.17 C 227.06 116.10 228.74 117.92 230.88 119.17 C 231.90 119.55 232.91 119.97 233.91 120.40 C 236.11 120.52 238.31 120.53 240.52 120.52 L 240.60 119.83 C 244.64 118.93 247.98 115.73 248.89 111.66 L 249.57 111.52 C 249.68 108.67 249.85 105.76 249.05 102.98 C 247.50 100.30 245.52 97.67 242.69 96.25 C 237.19 93.17 229.78 95.28 226.33 100.42 Z" />
<path fill="#91def5" opacity="1.00" d=" M 336.28 69.96 C 366.64 69.69 397.01 69.84 427.37 69.88 C 422.75 75.08 417.68 79.85 412.80 84.79 C 398.38 99.07 384.13 113.50 369.75 127.82 C 363.72 134.01 357.27 139.82 351.66 146.41 C 321.64 146.42 291.63 146.44 261.61 146.40 C 264.02 142.34 267.68 139.34 271.01 136.08 C 276.81 130.47 281.61 123.50 288.96 119.76 C 291.56 120.72 294.36 120.53 297.08 120.52 C 303.12 117.95 307.85 111.76 306.34 104.94 C 306.17 104.45 305.84 103.48 305.67 102.99 C 308.31 98.08 312.40 94.24 316.45 90.50 C 323.11 83.71 329.77 76.90 336.28 69.96 M 341.91 97.79 C 340.86 99.14 339.82 100.50 338.87 101.92 C 338.50 102.94 338.09 103.94 337.64 104.92 C 336.85 109.26 338.41 113.51 341.15 116.85 C 342.77 118.03 344.39 119.34 346.41 119.75 L 346.53 120.47 C 349.83 120.72 353.16 120.59 356.27 119.34 C 359.63 117.14 362.14 113.95 363.28 110.07 C 363.29 108.63 363.31 107.19 363.33 105.75 C 362.33 103.20 361.49 100.44 359.44 98.51 C 357.47 96.47 354.67 95.72 352.13 94.66 C 348.46 94.55 344.94 95.77 341.91 97.79 Z" />
<path fill="#91def5" opacity="1.00" d=" M 452.37 69.97 C 483.00 69.68 513.64 69.82 544.28 69.90 C 536.71 78.32 528.09 85.73 520.66 94.28 C 498.10 94.38 475.53 94.49 452.98 94.22 C 444.79 94.16 438.14 102.78 440.19 110.72 C 440.51 111.20 441.13 112.18 441.44 112.66 C 443.86 116.76 447.86 120.65 452.95 120.55 C 466.41 120.65 479.89 120.54 493.36 120.59 C 485.74 129.80 476.28 137.27 468.57 146.41 C 438.24 146.43 407.90 146.44 377.57 146.40 C 379.73 143.03 382.70 140.34 385.59 137.61 C 392.53 130.18 399.89 123.17 407.16 116.07 C 411.25 111.53 415.80 107.47 420.28 103.33 C 430.74 91.99 441.97 81.37 452.37 69.97 Z" />
<path fill="#91def5" opacity="1.00" d=" M 569.27 69.93 C 599.62 69.73 629.97 69.79 660.33 69.91 C 652.78 78.34 644.11 85.68 636.74 94.28 C 606.37 94.45 575.99 94.37 545.62 94.31 C 553.04 85.75 561.70 78.36 569.27 69.93 Z" />
<path fill="#91def5" opacity="1.00" d=" M 685.26 69.90 C 715.65 69.73 746.03 69.85 776.41 69.86 C 768.22 78.51 759.55 86.70 751.31 95.31 C 749.05 97.75 746.45 99.86 743.67 101.69 C 741.85 99.05 739.45 96.76 736.50 95.43 C 735.38 94.83 734.22 94.44 732.99 94.27 C 709.23 94.47 685.44 94.39 661.67 94.26 C 669.07 85.70 677.71 78.32 685.26 69.90 Z" />
<path fill="#91def5" opacity="1.00" d=" M 786.11 74.05 C 786.80 75.02 787.44 76.00 788.10 77.00 C 789.04 80.94 788.77 85.02 788.81 89.04 C 788.80 108.16 788.80 127.29 788.81 146.42 C 767.41 146.42 746.02 146.44 724.62 146.41 C 730.10 139.98 736.45 134.39 742.28 128.31 C 756.60 113.95 770.94 99.63 785.32 85.33 C 786.59 83.85 788.46 82.27 788.07 80.07 C 787.75 77.97 786.91 76.00 786.11 74.05 Z" />
<path fill="#91def5" opacity="1.00" d=" M 518.30 120.59 C 548.65 120.58 579.00 120.58 609.35 120.59 C 601.69 129.73 592.31 137.26 584.64 146.40 C 554.27 146.44 523.91 146.43 493.54 146.41 C 501.24 137.28 510.68 129.79 518.30 120.59 Z" />
<path fill="#91def5" opacity="1.00" d=" M 634.37 120.59 C 664.70 120.58 695.03 120.57 725.36 120.60 C 717.67 129.72 708.32 137.29 700.63 146.41 C 670.28 146.43 639.94 146.43 609.60 146.41 C 617.31 137.29 626.66 129.71 634.37 120.59 Z" />
</g>
<g id="#69a0b0ff">
<path fill="#69a0b0" opacity="1.00" d=" M 440.19 110.72 C 438.14 102.78 444.79 94.16 452.98 94.22 C 475.53 94.49 498.10 94.38 520.66 94.28 C 528.98 94.40 537.30 94.41 545.62 94.31 C 575.99 94.37 606.37 94.45 636.74 94.28 C 645.05 94.38 653.36 94.42 661.67 94.26 C 685.44 94.39 709.23 94.47 732.99 94.27 C 734.22 94.44 735.38 94.83 736.50 95.43 C 730.03 94.68 723.52 94.91 717.03 94.89 C 630.37 94.91 543.71 94.87 457.05 94.90 C 452.44 94.75 447.37 95.53 444.28 99.30 C 440.67 102.75 440.73 108.09 441.44 112.66 C 441.13 112.18 440.51 111.20 440.19 110.72 Z" />
</g>
<g id="#919191ff">
<path fill="#919191" opacity="1.00" d=" M 179.99 186.02 C 179.96 181.43 179.99 176.84 180.24 172.26 C 180.82 181.95 180.40 191.67 180.56 201.38 C 180.57 209.36 180.57 217.34 180.58 225.32 C 180.49 255.69 180.54 286.07 180.55 316.44 C 180.57 324.73 180.57 333.01 180.58 341.29 C 180.49 371.67 180.55 402.04 180.55 432.42 C 180.58 440.72 180.57 449.02 180.58 457.33 C 180.50 488.33 180.52 519.33 180.57 550.32 C 180.57 558.00 180.57 565.68 180.58 573.36 C 180.56 580.90 180.48 588.43 180.54 595.96 C 180.53 599.69 182.12 603.13 183.41 606.56 C 181.30 604.65 179.93 601.97 180.01 599.09 C 179.97 461.40 180.01 323.71 179.99 186.02 Z" />
<path fill="#919191" opacity="1.00" d=" M 788.78 172.25 C 789.20 178.15 789.03 184.06 789.05 189.96 C 789.08 323.99 789.02 458.01 789.07 592.03 C 789.12 597.31 789.90 603.92 784.78 607.24 C 786.99 603.54 788.73 599.40 788.56 595.01 C 788.50 579.52 788.55 564.03 788.52 548.54 C 788.50 540.17 788.52 531.79 788.48 523.42 C 788.59 493.13 788.51 462.84 788.52 432.55 C 788.50 423.91 788.50 415.26 788.50 406.62 C 788.55 375.95 788.55 345.28 788.50 314.60 C 788.51 306.93 788.51 299.26 788.48 291.59 C 788.57 260.60 788.53 229.61 788.50 198.62 C 788.56 190.96 788.41 183.30 788.55 175.65 C 788.60 174.80 788.72 173.10 788.78 172.25 Z" />
<path fill="#919191" opacity="1.00" d=" M 595.04 443.80 C 600.10 428.18 601.68 411.77 603.23 395.52 C 603.42 399.34 603.70 403.20 603.08 407.01 C 601.75 415.21 601.55 423.60 599.30 431.65 C 596.92 441.17 594.63 450.88 590.14 459.66 C 591.03 454.16 593.88 449.24 595.04 443.80 Z" />
</g>
<g id="#f9f9f9ff">
<path fill="#f9f9f9" opacity="1.00" d=" M 180.24 172.26 C 189.97 172.27 199.71 172.26 209.45 172.27 C 205.29 177.78 200.06 182.33 195.25 187.24 C 190.36 191.96 185.86 197.10 180.56 201.38 C 180.40 191.67 180.82 181.95 180.24 172.26 Z" />
<path fill="#f9f9f9" opacity="1.00" d=" M 233.64 172.29 C 263.94 172.24 294.23 172.28 324.53 172.27 C 320.72 177.52 315.71 181.69 311.26 186.35 C 271.95 225.68 232.60 264.96 193.32 304.30 C 189.12 308.41 185.22 312.84 180.55 316.44 C 180.54 286.07 180.49 255.69 180.58 225.32 C 188.06 220.32 193.41 212.97 199.96 206.94 C 207.00 199.99 213.84 192.83 221.15 186.17 C 225.40 181.62 230.48 177.74 233.64 172.29 Z" />
<path fill="#f9f9f9" opacity="1.00" d=" M 349.60 172.29 C 380.53 172.24 411.45 172.26 442.38 172.28 C 437.72 178.28 431.93 183.25 426.66 188.69 C 420.43 195.06 413.88 201.12 407.90 207.74 C 414.95 207.86 422.00 207.97 429.04 207.81 C 431.71 208.02 433.57 205.96 435.30 204.27 C 443.53 195.84 451.90 187.55 460.27 179.25 C 462.48 177.08 464.48 174.71 466.40 172.28 C 497.06 172.26 527.72 172.26 558.39 172.28 C 555.51 176.06 552.12 179.39 548.70 182.68 C 536.05 195.37 523.32 207.97 510.72 220.71 C 507.91 223.56 505.06 227.50 500.49 226.64 C 500.11 226.54 499.35 226.33 498.97 226.23 C 495.94 224.90 492.95 223.49 489.92 222.15 C 487.01 220.98 484.05 219.93 481.12 218.82 C 479.39 218.23 477.67 217.61 475.95 217.02 C 472.31 215.96 468.64 214.99 465.01 213.87 C 458.10 212.08 451.03 211.15 444.04 209.80 C 438.32 209.68 432.72 208.36 427.00 208.42 C 420.68 208.40 414.35 208.25 408.04 208.61 C 404.03 209.14 400.02 209.63 395.98 209.81 C 390.34 211.04 384.54 211.46 379.00 213.16 C 377.67 213.38 376.36 213.59 375.04 213.81 C 371.44 215.09 367.74 216.04 364.04 217.01 C 363.04 217.44 362.05 217.88 361.06 218.33 C 360.53 218.43 359.46 218.64 358.93 218.74 C 355.62 220.20 352.23 221.46 348.85 222.75 C 345.61 224.28 342.30 225.68 339.10 227.27 C 301.10 245.98 270.05 278.28 252.77 316.94 C 249.80 323.80 247.12 330.78 244.91 337.93 C 242.95 344.21 241.43 350.61 240.22 357.07 C 239.78 359.05 239.45 361.06 239.12 363.07 C 238.38 367.25 237.99 371.49 237.59 375.72 C 223.79 390.20 209.38 404.09 195.31 418.30 C 190.44 423.05 185.92 428.19 180.55 432.42 C 180.55 402.04 180.49 371.67 180.58 341.29 C 190.68 334.28 198.07 324.23 207.12 316.03 C 213.79 308.72 221.41 302.37 228.25 295.22 C 254.20 269.20 280.19 243.22 306.20 217.26 C 315.88 207.29 325.33 197.07 335.70 187.80 C 340.34 182.64 346.35 178.57 349.60 172.29 Z" />
<path fill="#f9f9f9" opacity="1.00" d=" M 582.39 172.28 C 613.05 172.26 643.71 172.26 674.37 172.28 C 670.03 177.94 664.63 182.64 659.66 187.72 C 648.50 198.87 637.31 210.00 626.19 221.19 C 624.03 223.30 622.12 225.75 619.56 227.39 C 614.44 229.18 608.40 226.30 603.65 229.49 C 600.04 231.25 597.30 234.28 595.46 237.80 C 595.37 240.64 595.37 243.48 595.54 246.31 C 595.61 247.77 595.69 249.23 595.78 250.69 C 585.85 260.78 575.71 270.66 565.81 280.79 C 552.84 263.89 537.06 249.07 519.10 237.57 C 522.46 232.23 527.42 228.27 531.75 223.77 C 545.19 210.20 558.74 196.75 572.23 183.23 C 575.82 179.78 579.43 176.31 582.39 172.28 Z" />
<path fill="#f9f9f9" opacity="1.00" d=" M 697.47 172.28 C 727.91 172.23 758.34 172.29 788.78 172.25 C 788.72 173.10 788.60 174.80 788.55 175.65 C 782.90 179.90 778.25 185.25 773.23 190.18 C 761.87 201.51 750.60 212.93 739.13 224.15 C 737.63 225.65 736.61 227.52 735.69 229.40 C 723.52 228.23 711.26 229.16 699.05 228.85 C 693.26 228.93 686.23 228.11 682.01 232.97 C 678.63 236.05 678.05 240.80 678.45 245.12 C 680.34 249.97 684.50 254.51 690.02 254.64 C 700.01 254.81 710.00 254.66 720.00 254.72 C 725.66 254.62 731.37 255.08 737.01 254.18 C 740.07 252.15 743.00 249.68 744.49 246.22 C 745.92 243.41 746.48 240.07 748.76 237.76 C 757.10 229.46 765.48 221.21 773.78 212.86 C 778.62 208.05 783.19 202.94 788.50 198.62 C 788.53 229.61 788.57 260.60 788.48 291.59 C 779.48 299.16 771.65 308.03 763.22 316.22 C 753.24 326.21 743.16 336.10 733.28 346.19 C 730.84 348.40 728.74 351.85 725.10 351.95 C 715.90 352.44 706.65 351.54 697.45 352.20 C 696.96 352.53 695.97 353.18 695.48 353.50 C 690.95 356.00 686.90 360.48 687.35 366.00 C 687.19 371.85 691.84 376.31 696.86 378.46 C 708.58 378.71 720.31 378.55 732.03 378.56 C 737.36 378.75 742.49 375.08 744.30 370.10 C 745.42 366.48 744.85 362.59 743.49 359.13 C 756.75 345.86 770.01 332.60 783.24 319.32 C 784.93 317.67 786.70 316.13 788.50 314.60 C 788.55 345.28 788.55 375.95 788.50 406.62 C 782.95 411.01 778.32 416.38 773.24 421.26 C 759.44 435.13 745.59 448.95 731.76 462.79 C 722.97 471.65 713.87 480.22 705.74 489.70 C 686.59 508.63 667.80 527.93 648.51 546.70 C 633.38 531.60 618.29 516.45 603.15 501.36 C 604.24 499.43 605.29 497.44 606.82 495.80 C 644.63 457.95 682.53 420.18 720.29 382.28 C 723.38 379.10 728.28 380.26 732.27 379.53 C 723.52 378.57 714.72 378.90 705.94 378.74 C 703.84 378.91 701.42 378.48 699.59 379.70 C 671.77 407.81 643.64 435.67 615.71 463.69 C 607.30 472.02 599.07 480.53 590.50 488.69 C 587.45 485.65 584.50 482.48 581.14 479.76 C 582.28 475.18 585.10 471.30 586.85 466.96 C 587.89 464.50 588.90 462.03 590.14 459.66 C 594.63 450.88 596.92 441.17 599.30 431.65 C 601.55 423.60 601.75 415.21 603.08 407.01 C 603.70 403.20 603.42 399.34 603.23 395.52 C 603.51 388.16 602.95 380.84 602.39 373.51 C 603.02 376.39 603.57 379.28 604.04 382.20 C 616.31 370.78 627.81 358.54 639.82 346.83 C 649.99 336.82 659.83 326.46 670.19 316.64 C 690.15 316.65 710.12 316.61 730.08 316.66 C 732.39 316.68 734.71 316.45 737.00 316.03 C 740.93 313.66 744.85 310.04 744.84 305.07 C 745.97 297.67 739.34 290.86 732.07 290.83 C 699.69 290.71 667.30 290.75 634.91 290.82 C 628.97 290.69 624.10 294.81 621.81 300.04 C 621.64 302.02 621.57 304.01 621.53 306.00 C 621.93 307.12 622.33 308.25 622.72 309.39 C 624.56 312.23 627.11 314.46 629.99 316.20 C 634.88 316.89 639.82 316.59 644.75 316.64 C 644.19 318.30 643.59 320.01 642.29 321.24 C 630.33 333.00 618.49 344.87 606.70 356.78 C 604.86 358.58 602.74 360.04 600.71 361.60 C 600.57 360.26 600.46 358.92 600.37 357.59 C 600.20 357.55 599.86 357.48 599.69 357.45 C 598.97 350.76 597.01 344.30 595.16 337.86 C 594.06 334.60 593.03 331.33 591.88 328.09 C 590.36 324.36 588.91 320.61 587.32 316.91 C 584.22 310.23 580.88 303.66 577.06 297.37 C 577.18 295.16 577.52 292.82 579.27 291.28 C 589.88 280.57 600.70 270.06 611.21 259.25 C 612.58 257.99 613.95 256.37 615.93 256.16 C 622.45 255.25 629.22 257.11 635.57 254.79 C 636.73 254.57 637.90 254.37 639.07 254.15 C 642.35 252.26 645.59 249.73 646.70 245.94 C 648.75 240.15 645.93 233.43 640.65 230.46 C 643.62 226.84 646.95 223.55 650.32 220.31 C 663.64 206.97 676.95 193.62 690.34 180.34 C 692.95 177.87 695.33 175.17 697.47 172.28 M 690.70 255.47 C 695.69 256.79 700.89 255.89 705.99 256.25 C 695.30 267.72 683.66 278.29 673.06 289.82 C 680.37 290.13 687.70 290.07 695.02 289.98 C 698.07 290.37 699.83 287.64 701.75 285.80 C 711.96 275.56 722.16 265.30 732.42 255.10 C 718.52 255.02 704.57 254.70 690.70 255.47 Z" />
<path fill="#f9f9f9" opacity="1.00" d=" M 197.30 441.27 C 209.97 428.66 222.55 415.94 235.30 403.40 C 236.04 404.34 236.78 405.28 237.53 406.23 C 237.94 410.80 238.31 415.39 239.12 419.92 C 239.44 421.91 239.72 423.93 240.18 425.91 C 241.48 432.36 242.94 438.78 244.92 445.06 C 247.27 452.50 249.94 459.85 253.24 466.92 C 254.30 469.25 255.35 471.58 256.52 473.87 C 253.95 477.79 250.50 480.99 247.13 484.21 C 232.21 499.26 217.14 514.16 202.20 529.19 C 194.96 536.21 188.19 543.72 180.57 550.32 C 180.52 519.33 180.50 488.33 180.58 457.33 C 186.63 452.49 191.79 446.69 197.30 441.27 Z" />
<path fill="#f9f9f9" opacity="1.00" d=" M 774.21 446.18 C 778.89 441.55 783.25 436.55 788.52 432.55 C 788.51 462.84 788.59 493.13 788.48 523.42 C 786.65 524.58 784.81 525.74 783.23 527.23 C 762.99 547.64 742.61 567.93 722.28 588.25 C 716.76 593.47 711.98 599.52 705.70 603.89 C 690.90 589.09 676.11 574.29 661.30 559.51 C 674.62 545.13 688.97 531.72 702.67 517.70 C 726.53 493.88 750.36 470.02 774.21 446.18 Z" />
<path fill="#f9f9f9" opacity="1.00" d=" M 264.25 490.39 C 265.22 490.97 266.18 491.54 267.14 492.16 C 278.64 509.53 293.15 524.87 309.69 537.53 C 295.21 552.41 280.36 566.93 265.73 581.66 C 256.49 591.05 246.85 600.07 237.92 609.76 C 244.97 609.98 252.04 610.15 259.10 609.91 C 260.92 609.98 262.53 609.07 263.76 607.79 C 282.33 589.02 301.16 570.49 319.69 551.67 C 321.32 549.81 323.74 549.13 326.05 548.55 C 330.54 551.34 335.28 553.71 339.97 556.16 C 342.91 557.55 345.89 558.87 348.85 560.21 C 350.25 560.75 351.65 561.33 353.05 561.90 C 355.00 562.66 356.98 563.37 358.96 564.09 C 359.97 564.46 360.99 564.84 362.01 565.24 C 362.51 565.38 363.52 565.67 364.03 565.82 C 367.67 567.02 371.40 567.93 375.04 569.12 C 376.35 569.34 377.66 569.55 378.98 569.77 C 380.37 570.20 381.77 570.57 383.19 570.95 C 383.38 571.00 383.78 571.11 383.98 571.16 C 385.25 571.98 386.49 572.85 387.75 573.72 C 376.26 585.59 364.37 597.07 352.84 608.90 C 350.60 611.10 348.35 614.16 344.78 613.59 C 342.92 612.54 341.00 611.60 339.08 610.68 C 290.40 610.62 241.72 610.65 193.05 610.64 C 189.34 610.95 186.09 608.88 183.41 606.56 C 182.12 603.13 180.53 599.69 180.54 595.96 C 180.48 588.43 180.56 580.90 180.58 573.36 C 182.19 572.03 183.80 570.70 185.33 569.27 C 211.64 542.99 237.90 516.64 264.25 490.39 Z" />
<path fill="#f9f9f9" opacity="1.00" d=" M 774.17 562.22 C 778.94 557.65 783.24 552.56 788.52 548.54 C 788.55 564.03 788.50 579.52 788.56 595.01 C 788.73 599.40 786.99 603.54 784.78 607.24 C 783.94 607.98 783.04 608.65 782.18 609.36 C 779.57 610.33 776.81 610.79 774.03 610.68 C 753.36 610.52 732.67 610.89 712.00 610.46 C 716.63 609.81 721.33 610.26 725.95 609.58 C 728.34 608.64 729.92 606.42 731.76 604.72 C 745.75 590.40 760.09 576.44 774.17 562.22 Z" />
<path fill="#f9f9f9" opacity="1.00" d=" M 520.20 584.21 C 523.46 580.97 526.31 577.00 530.87 575.49 C 542.10 586.75 553.29 598.06 564.64 609.22 C 563.09 609.51 561.53 609.78 559.97 609.81 C 538.23 609.69 516.48 609.82 494.74 609.75 C 503.09 601.10 511.69 592.70 520.20 584.21 Z" />
</g>
<g id="#ecececff">
<path fill="#ececec" opacity="1.00" d=" M 209.45 172.27 C 217.51 172.27 225.58 172.25 233.64 172.29 C 230.48 177.74 225.40 181.62 221.15 186.17 C 213.84 192.83 207.00 199.99 199.96 206.94 C 193.41 212.97 188.06 220.32 180.58 225.32 C 180.57 217.34 180.57 209.36 180.56 201.38 C 185.86 197.10 190.36 191.96 195.25 187.24 C 200.06 182.33 205.29 177.78 209.45 172.27 Z" />
<path fill="#ececec" opacity="1.00" d=" M 324.53 172.27 C 332.88 172.27 341.24 172.25 349.60 172.29 C 346.35 178.57 340.34 182.64 335.70 187.80 C 325.33 197.07 315.88 207.29 306.20 217.26 C 280.19 243.22 254.20 269.20 228.25 295.22 C 221.41 302.37 213.79 308.72 207.12 316.03 C 198.07 324.23 190.68 334.28 180.58 341.29 C 180.57 333.01 180.57 324.73 180.55 316.44 C 185.22 312.84 189.12 308.41 193.32 304.30 C 232.60 264.96 271.95 225.68 311.26 186.35 C 315.71 181.69 320.72 177.52 324.53 172.27 Z" />
<path fill="#ececec" opacity="1.00" d=" M 442.38 172.28 C 450.38 172.26 458.39 172.26 466.40 172.28 C 464.48 174.71 462.48 177.08 460.27 179.25 C 451.90 187.55 443.53 195.84 435.30 204.27 C 433.57 205.96 431.71 208.02 429.04 207.81 C 422.00 207.97 414.95 207.86 407.90 207.74 C 413.88 201.12 420.43 195.06 426.66 188.69 C 431.93 183.25 437.72 178.28 442.38 172.28 Z" />
<path fill="#ececec" opacity="1.00" d=" M 558.39 172.28 C 566.39 172.26 574.39 172.26 582.39 172.28 C 579.43 176.31 575.82 179.78 572.23 183.23 C 558.74 196.75 545.19 210.20 531.75 223.77 C 527.42 228.27 522.46 232.23 519.10 237.57 C 513.11 233.76 507.04 229.97 500.48 227.20 L 500.49 226.64 C 505.06 227.50 507.91 223.56 510.72 220.71 C 523.32 207.97 536.05 195.37 548.70 182.68 C 552.12 179.39 555.51 176.06 558.39 172.28 Z" />
<path fill="#ececec" opacity="1.00" d=" M 674.37 172.28 C 682.07 172.26 689.77 172.25 697.47 172.28 C 695.33 175.17 692.95 177.87 690.34 180.34 C 676.95 193.62 663.64 206.97 650.32 220.31 C 646.95 223.55 643.62 226.84 640.65 230.46 C 633.75 227.86 626.19 229.05 619.00 229.04 C 613.88 229.27 608.74 228.90 603.65 229.49 C 608.40 226.30 614.44 229.18 619.56 227.39 C 622.12 225.75 624.03 223.30 626.19 221.19 C 637.31 210.00 648.50 198.87 659.66 187.72 C 664.63 182.64 670.03 177.94 674.37 172.28 Z" />
<path fill="#ececec" opacity="1.00" d=" M 773.23 190.18 C 778.25 185.25 782.90 179.90 788.55 175.65 C 788.41 183.30 788.56 190.96 788.50 198.62 C 783.19 202.94 778.62 208.05 773.78 212.86 C 765.48 221.21 757.10 229.46 748.76 237.76 C 746.48 240.07 745.92 243.41 744.49 246.22 C 746.51 239.25 742.66 231.57 735.69 229.40 C 736.61 227.52 737.63 225.65 739.13 224.15 C 750.60 212.93 761.87 201.51 773.23 190.18 Z" />
<path fill="#ececec" opacity="1.00" d=" M 595.54 246.31 C 597.92 250.48 601.71 254.70 606.91 254.65 C 616.46 254.84 626.02 254.52 635.57 254.79 C 629.22 257.11 622.45 255.25 615.93 256.16 C 613.95 256.37 612.58 257.99 611.21 259.25 C 600.70 270.06 589.88 280.57 579.27 291.28 C 577.52 292.82 577.18 295.16 577.06 297.37 C 573.65 291.62 569.85 286.11 565.81 280.79 C 575.71 270.66 585.85 260.78 595.78 250.69 C 595.69 249.23 595.61 247.77 595.54 246.31 Z" />
<path fill="#ececec" opacity="1.00" d=" M 690.70 255.47 C 704.57 254.70 718.52 255.02 732.42 255.10 C 722.16 265.30 711.96 275.56 701.75 285.80 C 699.83 287.64 698.07 290.37 695.02 289.98 C 687.70 290.07 680.37 290.13 673.06 289.82 C 683.66 278.29 695.30 267.72 705.99 256.25 C 700.89 255.89 695.69 256.79 690.70 255.47 Z" />
<path fill="#ececec" opacity="1.00" d=" M 763.22 316.22 C 771.65 308.03 779.48 299.16 788.48 291.59 C 788.51 299.26 788.51 306.93 788.50 314.60 C 786.70 316.13 784.93 317.67 783.24 319.32 C 770.01 332.60 756.75 345.86 743.49 359.13 C 741.61 357.10 739.77 354.83 737.09 353.86 C 731.95 351.86 726.32 353.02 720.96 352.76 C 712.47 353.04 703.89 352.06 695.48 353.50 C 695.97 353.18 696.96 352.53 697.45 352.20 C 706.65 351.54 715.90 352.44 725.10 351.95 C 728.74 351.85 730.84 348.40 733.28 346.19 C 743.16 336.10 753.24 326.21 763.22 316.22 Z" />
<path fill="#ececec" opacity="1.00" d=" M 644.75 316.64 C 653.23 316.63 661.71 316.64 670.19 316.64 C 659.83 326.46 649.99 336.82 639.82 346.83 C 627.81 358.54 616.31 370.78 604.04 382.20 C 603.57 379.28 603.02 376.39 602.39 373.51 C 601.87 370.01 601.54 366.48 600.88 363.00 C 600.84 362.65 600.75 361.95 600.71 361.60 C 602.74 360.04 604.86 358.58 606.70 356.78 C 618.49 344.87 630.33 333.00 642.29 321.24 C 643.59 320.01 644.19 318.30 644.75 316.64 Z" />
<path fill="#ececec" opacity="1.00" d=" M 195.31 418.30 C 209.38 404.09 223.79 390.20 237.59 375.72 C 236.69 385.87 236.52 396.07 237.53 406.23 C 236.78 405.28 236.04 404.34 235.30 403.40 C 222.55 415.94 209.97 428.66 197.30 441.27 C 191.79 446.69 186.63 452.49 180.58 457.33 C 180.57 449.02 180.58 440.72 180.55 432.42 C 185.92 428.19 190.44 423.05 195.31 418.30 Z" />
<path fill="#ececec" opacity="1.00" d=" M 699.59 379.70 C 701.42 378.48 703.84 378.91 705.94 378.74 C 714.72 378.90 723.52 378.57 732.27 379.53 C 728.28 380.26 723.38 379.10 720.29 382.28 C 682.53 420.18 644.63 457.95 606.82 495.80 C 605.29 497.44 604.24 499.43 603.15 501.36 C 598.95 497.12 594.71 492.92 590.50 488.69 C 599.07 480.53 607.30 472.02 615.71 463.69 C 643.64 435.67 671.77 407.81 699.59 379.70 Z" />
<path fill="#ececec" opacity="1.00" d=" M 773.24 421.26 C 778.32 416.38 782.95 411.01 788.50 406.62 C 788.50 415.26 788.50 423.91 788.52 432.55 C 783.25 436.55 778.89 441.55 774.21 446.18 C 750.36 470.02 726.53 493.88 702.67 517.70 C 688.97 531.72 674.62 545.13 661.30 559.51 C 657.04 555.22 652.77 550.97 648.51 546.70 C 667.80 527.93 686.59 508.63 705.74 489.70 C 713.87 480.22 722.97 471.65 731.76 462.79 C 745.59 448.95 759.44 435.13 773.24 421.26 Z" />
<path fill="#ececec" opacity="1.00" d=" M 256.52 473.87 C 256.67 474.15 256.96 474.73 257.11 475.01 C 260.15 480.90 263.52 486.61 267.14 492.16 C 266.18 491.54 265.22 490.97 264.25 490.39 C 237.90 516.64 211.64 542.99 185.33 569.27 C 183.80 570.70 182.19 572.03 180.58 573.36 C 180.57 565.68 180.57 558.00 180.57 550.32 C 188.19 543.72 194.96 536.21 202.20 529.19 C 217.14 514.16 232.21 499.26 247.13 484.21 C 250.50 480.99 253.95 477.79 256.52 473.87 Z" />
<path fill="#ececec" opacity="1.00" d=" M 783.23 527.23 C 784.81 525.74 786.65 524.58 788.48 523.42 C 788.52 531.79 788.50 540.17 788.52 548.54 C 783.24 552.56 778.94 557.65 774.17 562.22 C 760.09 576.44 745.75 590.40 731.76 604.72 C 729.92 606.42 728.34 608.64 725.95 609.58 C 721.33 610.26 716.63 609.81 712.00 610.46 C 709.99 608.18 707.86 606.02 705.70 603.89 C 711.98 599.52 716.76 593.47 722.28 588.25 C 742.61 567.93 762.99 547.64 783.23 527.23 Z" />
<path fill="#ececec" opacity="1.00" d=" M 309.69 537.53 C 314.95 541.46 320.38 545.20 326.05 548.55 C 323.74 549.13 321.32 549.81 319.69 551.67 C 301.16 570.49 282.33 589.02 263.76 607.79 C 262.53 609.07 260.92 609.98 259.10 609.91 C 252.04 610.15 244.97 609.98 237.92 609.76 C 246.85 600.07 256.49 591.05 265.73 581.66 C 280.36 566.93 295.21 552.41 309.69 537.53 Z" />
<path fill="#ececec" opacity="1.00" d=" M 504.77 573.74 C 508.88 569.74 512.72 565.45 517.07 561.70 C 521.61 566.35 526.24 570.92 530.87 575.49 C 526.31 577.00 523.46 580.97 520.20 584.21 C 511.69 592.70 503.09 601.10 494.74 609.75 C 486.19 610.10 477.60 610.16 469.05 609.76 C 480.65 597.46 492.92 585.80 504.77 573.74 Z" />
</g>
<g id="#79b2ffff">
<path fill="#79b2ff" opacity="1.00" d=" M 394.04 235.99 C 397.37 235.46 400.80 235.71 404.10 234.93 C 417.97 233.74 432.10 233.87 445.80 236.27 C 451.53 237.40 457.34 238.29 462.89 240.17 C 466.68 241.18 470.42 242.40 474.15 243.65 C 475.38 244.21 476.67 244.68 477.93 245.19 C 478.39 245.43 479.30 245.90 479.76 246.13 C 480.39 246.98 481.01 247.83 481.63 248.70 C 479.07 251.45 476.41 254.09 473.74 256.72 C 470.04 260.30 466.87 264.66 462.03 266.81 C 448.20 262.16 433.62 259.93 419.04 259.81 C 409.54 260.01 400.16 261.43 390.79 262.86 C 391.54 262.96 392.30 263.07 393.06 263.18 C 387.93 263.63 383.02 265.21 378.15 266.79 C 376.07 266.81 373.99 266.75 371.92 266.72 C 382.72 256.91 392.43 245.97 403.17 236.11 C 400.55 236.04 397.93 235.99 395.31 236.03 L 394.04 235.99 Z" />
<path fill="#79b2ff" opacity="1.00" d=" M 363.08 245.24 C 364.74 245.24 366.41 245.23 368.07 245.22 C 354.47 259.53 340.15 273.16 326.34 287.28 C 308.88 304.43 291.92 322.08 274.28 339.03 C 274.22 337.36 274.17 335.70 274.15 334.04 C 274.21 332.63 274.56 331.29 275.20 330.04 C 277.91 323.92 280.84 317.90 284.26 312.16 C 295.41 293.10 310.56 276.37 328.57 263.58 C 333.49 259.90 338.85 256.91 344.02 253.62 C 344.27 253.55 344.79 253.42 345.04 253.35 C 347.67 251.70 350.45 250.29 353.37 249.25 L 353.61 248.73 C 356.80 247.65 359.73 245.78 363.08 245.24 Z" />
<path fill="#79b2ff" opacity="1.00" d=" M 487.78 266.73 C 491.78 263.16 494.86 258.27 500.11 256.39 L 500.78 256.09 C 503.80 258.60 507.24 260.55 510.49 262.75 C 521.34 270.66 531.59 279.51 540.08 289.95 C 542.83 292.91 544.96 296.39 547.83 299.25 L 547.44 299.70 C 543.46 304.31 538.90 308.36 534.74 312.80 C 533.01 314.72 530.83 316.14 528.42 317.05 C 516.35 299.59 500.07 284.98 481.27 275.09 C 482.76 271.83 485.11 269.09 487.78 266.73 Z" />
<path fill="#79b2ff" opacity="1.00" d=" M 552.85 317.88 C 554.21 316.05 556.43 316.69 558.26 317.22 C 558.15 316.89 557.94 316.25 557.83 315.92 C 558.52 317.04 559.18 318.19 559.76 319.38 L 560.25 319.67 C 561.61 323.22 563.41 326.58 564.94 330.06 C 565.98 332.70 567.03 335.35 568.02 338.01 C 569.52 342.28 570.88 346.59 572.13 350.94 C 572.26 351.51 572.52 352.63 572.65 353.19 C 574.42 359.93 575.74 366.88 576.22 373.83 C 575.90 377.83 576.09 381.86 575.72 385.86 C 574.97 388.13 572.90 389.63 571.33 391.32 C 564.52 397.69 558.27 404.65 551.37 410.91 C 551.15 410.14 550.73 408.59 550.51 407.82 C 552.99 391.10 551.15 374.09 547.37 357.72 C 547.20 357.56 546.86 357.24 546.69 357.08 C 546.54 356.04 546.38 355.00 546.24 353.97 C 543.96 347.18 541.50 340.44 538.35 334.00 C 542.12 327.73 548.05 323.29 552.85 317.88 Z" />
<path fill="#79b2ff" opacity="1.00" d=" M 268.17 370.22 C 277.51 361.38 286.24 351.92 295.58 343.09 C 295.86 343.73 296.42 345.02 296.70 345.66 C 286.80 372.49 285.67 402.55 294.29 429.87 C 294.08 433.17 294.21 437.01 291.33 439.28 C 286.21 443.77 282.16 449.56 276.24 453.07 C 275.91 452.90 275.23 452.56 274.89 452.40 C 271.27 443.43 268.32 434.21 266.23 424.77 C 264.29 417.00 263.91 408.96 262.84 401.06 C 262.56 394.69 262.57 388.30 262.84 381.94 C 263.41 379.31 263.53 376.62 263.73 373.94 C 263.89 376.35 264.19 378.74 264.48 381.14 C 264.89 377.29 264.74 372.80 268.17 370.22 Z" />
<path fill="#79b2ff" opacity="1.00" d=" M 541.08 446.15 C 552.29 435.74 562.61 424.40 573.78 413.93 C 573.75 416.96 573.70 419.99 573.74 423.02 C 573.64 424.83 573.51 426.66 573.40 428.49 C 573.22 428.49 572.84 428.49 572.66 428.49 C 571.90 434.16 569.84 439.52 568.03 444.92 C 567.04 447.61 566.01 450.28 564.84 452.90 C 563.23 456.58 561.62 460.27 559.69 463.80 C 547.99 486.52 530.60 506.25 509.59 520.79 C 505.22 523.90 500.52 526.50 496.02 529.40 C 495.75 529.44 495.22 529.52 494.95 529.55 C 492.22 531.59 488.94 532.66 486.06 534.46 C 485.79 534.50 485.25 534.60 484.98 534.64 C 482.72 535.89 480.33 536.88 477.89 537.71 C 476.62 538.21 475.38 538.78 474.13 539.31 C 470.44 540.62 466.68 541.74 462.92 542.84 C 461.61 543.28 460.27 543.61 458.95 543.96 C 454.22 544.89 449.52 546.72 444.64 546.31 C 443.81 545.98 442.99 545.66 442.17 545.35 C 448.94 538.39 456.01 531.72 462.69 524.68 C 466.87 520.13 471.92 516.40 475.35 511.19 C 475.44 511.09 475.63 510.87 475.72 510.77 C 504.49 497.11 528.12 472.97 540.82 443.73 C 540.88 444.33 541.01 445.55 541.08 446.15 Z" />
<path fill="#79b2ff" opacity="1.00" d=" M 303.44 452.30 C 313.32 471.28 328.02 487.70 345.61 499.85 C 341.96 505.97 336.31 510.39 331.67 515.69 C 330.39 517.59 328.01 517.33 326.02 517.50 L 325.60 517.52 C 321.00 513.39 316.02 509.69 311.55 505.41 C 300.85 495.20 291.78 483.38 284.07 470.79 L 284.85 469.84 C 290.88 463.84 296.38 457.14 303.44 452.30 Z" />
<path fill="#79b2ff" opacity="1.00" d=" M 358.00 512.93 C 359.39 511.40 361.46 510.88 363.29 510.09 C 385.55 521.02 410.84 524.75 435.41 522.25 C 436.59 522.59 437.76 522.95 438.94 523.33 C 432.65 530.25 425.70 536.52 419.28 543.31 C 417.73 544.69 416.29 546.73 414.01 546.78 C 407.76 547.13 401.50 546.35 395.24 546.52 C 390.41 546.35 385.68 545.12 381.06 543.81 C 379.90 543.65 378.74 543.50 377.58 543.37 L 377.49 542.70 C 374.25 542.17 371.17 541.02 368.08 539.95 C 367.06 539.60 366.04 539.25 365.04 538.88 C 364.06 538.48 363.08 538.10 362.11 537.72 C 359.26 536.60 356.47 535.33 353.59 534.31 L 353.35 533.80 C 350.79 532.79 348.32 531.56 345.95 530.16 C 345.24 529.87 343.81 529.28 343.09 528.99 L 343.85 528.03 C 348.06 522.53 353.20 517.89 358.00 512.93 Z" />
</g>
<g id="#72a8f2ff">
<path fill="#72a8f2" opacity="1.00" d=" M 395.31 236.03 C 397.93 235.99 400.55 236.04 403.17 236.11 C 392.43 245.97 382.72 256.91 371.92 266.72 C 373.99 266.75 376.07 266.81 378.15 266.79 L 377.18 267.15 C 340.46 279.67 310.19 309.31 296.70 345.66 C 296.42 345.02 295.86 343.73 295.58 343.09 C 286.24 351.92 277.51 361.38 268.17 370.22 C 264.74 372.80 264.89 377.29 264.48 381.14 C 264.19 378.74 263.89 376.35 263.73 373.94 C 265.19 359.83 268.75 345.89 274.11 332.75 L 274.15 334.04 C 274.17 335.70 274.22 337.36 274.28 339.03 C 291.92 322.08 308.88 304.43 326.34 287.28 C 340.15 273.16 354.47 259.53 368.07 245.22 C 366.41 245.23 364.74 245.24 363.08 245.24 L 361.88 245.19 C 366.88 243.26 371.99 241.58 377.17 240.18 C 378.46 239.77 379.75 239.38 381.05 238.99 C 384.30 238.26 387.57 237.61 390.81 236.85 C 392.31 236.57 393.81 236.30 395.31 236.03 Z" />
<path fill="#72a8f2" opacity="1.00" d=" M 479.76 246.13 C 481.95 246.84 484.08 247.73 486.20 248.65 C 489.10 250.17 492.05 251.62 494.98 253.10 C 496.75 254.09 498.48 255.18 500.11 256.39 C 494.86 258.27 491.78 263.16 487.78 266.73 C 485.11 269.09 482.76 271.83 481.27 275.09 C 475.09 271.81 468.65 269.06 462.03 266.81 C 466.87 264.66 470.04 260.30 473.74 256.72 C 476.41 254.09 479.07 251.45 481.63 248.70 C 481.01 247.83 480.39 246.98 479.76 246.13 Z" />
<path fill="#72a8f2" opacity="1.00" d=" M 547.44 299.70 C 551.52 304.66 554.98 310.19 557.83 315.92 C 557.94 316.25 558.15 316.89 558.26 317.22 C 556.43 316.69 554.21 316.05 552.85 317.88 C 548.05 323.29 542.12 327.73 538.35 334.00 C 535.44 328.13 532.16 322.43 528.42 317.05 C 530.83 316.14 533.01 314.72 534.74 312.80 C 538.90 308.36 543.46 304.31 547.44 299.70 Z" />
<path fill="#72a8f2" opacity="1.00" d=" M 576.22 373.83 C 576.47 375.88 576.73 377.93 577.18 379.96 C 577.51 387.31 577.52 394.69 577.17 402.05 C 576.15 409.45 575.72 416.95 574.04 424.27 L 573.74 423.02 C 573.70 419.99 573.75 416.96 573.78 413.93 C 562.61 424.40 552.29 435.74 541.08 446.15 C 541.01 445.55 540.88 444.33 540.82 443.73 C 542.80 438.90 544.59 434.00 546.15 429.02 C 548.21 422.09 549.64 414.99 550.51 407.82 C 550.73 408.59 551.15 410.14 551.37 410.91 C 558.27 404.65 564.52 397.69 571.33 391.32 C 572.90 389.63 574.97 388.13 575.72 385.86 C 576.09 381.86 575.90 377.83 576.22 373.83 Z" />
<path fill="#72a8f2" opacity="1.00" d=" M 294.29 429.87 C 296.56 437.63 299.70 445.13 303.44 452.30 C 296.38 457.14 290.88 463.84 284.85 469.84 L 283.98 470.79 C 280.98 465.11 278.31 459.26 275.17 453.68 L 276.24 453.07 C 282.16 449.56 286.21 443.77 291.33 439.28 C 294.21 437.01 294.08 433.17 294.29 429.87 Z" />
<path fill="#72a8f2" opacity="1.00" d=" M 345.61 499.85 C 351.24 503.69 357.10 507.22 363.29 510.09 C 361.46 510.88 359.39 511.40 358.00 512.93 C 353.20 517.89 348.06 522.53 343.85 528.03 L 343.21 528.79 C 337.27 525.35 331.48 521.66 326.02 517.50 C 328.01 517.33 330.39 517.59 331.67 515.69 C 336.31 510.39 341.96 505.97 345.61 499.85 Z" />
<path fill="#72a8f2" opacity="1.00" d=" M 462.06 516.19 C 466.50 514.56 470.90 512.81 475.35 511.19 C 471.92 516.40 466.87 520.13 462.69 524.68 C 456.01 531.72 448.94 538.39 442.17 545.35 C 442.99 545.66 443.81 545.98 444.64 546.31 C 445.17 546.54 446.22 546.99 446.75 547.22 C 439.78 547.14 432.96 548.92 425.97 548.67 C 415.23 549.12 404.53 548.34 393.88 547.05 L 395.24 546.52 C 401.50 546.35 407.76 547.13 414.01 546.78 C 416.29 546.73 417.73 544.69 419.28 543.31 C 425.70 536.52 432.65 530.25 438.94 523.33 C 437.76 522.95 436.59 522.59 435.41 522.25 C 444.44 520.96 453.38 519.03 462.06 516.19 Z" />
</g>
<g id="#dff6fcff">
<path fill="#dff6fc" opacity="1.00" d=" M 398.09 288.15 C 402.89 286.58 408.03 286.88 412.90 285.79 C 417.63 285.61 422.36 285.62 427.10 285.79 C 431.97 286.86 437.10 286.59 441.91 288.12 C 443.65 288.40 445.41 288.66 447.15 288.99 L 445.76 289.11 C 444.13 288.96 442.50 288.79 440.88 288.63 C 399.51 330.23 357.96 371.65 316.47 413.13 C 316.47 412.47 316.46 411.16 316.46 410.51 L 315.61 410.54 C 315.55 408.15 315.44 405.77 315.39 403.39 L 314.60 403.61 C 314.29 395.54 314.29 387.46 314.60 379.39 L 315.38 379.61 C 315.44 376.60 315.64 373.61 315.78 370.62 L 316.60 370.78 C 316.65 370.06 316.75 368.61 316.81 367.88 C 317.61 365.46 318.25 362.99 318.70 360.48 L 319.45 360.51 C 319.45 359.73 319.46 358.18 319.46 357.40 L 320.36 357.49 C 320.45 356.83 320.62 355.49 320.71 354.83 C 321.87 352.48 322.80 350.03 323.65 347.55 L 324.20 347.39 C 325.20 344.41 326.60 341.54 328.50 339.03 C 328.47 338.67 328.42 337.97 328.40 337.62 L 329.26 337.55 C 330.38 335.51 331.61 333.54 332.77 331.53 L 333.21 331.44 C 334.38 329.45 335.75 327.56 337.40 325.93 C 337.45 325.71 337.56 325.28 337.61 325.07 C 341.75 320.63 345.59 315.85 350.44 312.13 L 350.41 311.33 L 351.57 311.68 L 351.56 310.81 C 353.18 309.59 354.79 308.35 356.46 307.20 L 356.58 306.79 C 358.83 305.35 361.02 303.82 363.23 302.31 C 365.21 301.15 367.19 299.97 369.05 298.62 C 369.40 298.63 370.10 298.66 370.45 298.67 L 370.64 297.75 C 373.78 296.42 376.98 295.18 379.94 293.46 C 380.21 293.45 380.76 293.43 381.03 293.42 C 384.13 291.72 387.67 291.13 390.87 289.66 C 391.56 289.62 392.95 289.53 393.65 289.48 L 393.49 288.70 C 395.02 288.54 396.55 288.35 398.09 288.15 Z" />
<path fill="#dff6fc" opacity="1.00" d=" M 443.71 311.75 C 449.21 305.90 455.57 300.84 460.39 294.38 C 461.28 294.59 463.07 295.00 463.96 295.21 C 465.70 296.17 467.52 296.99 469.37 297.73 L 469.57 298.67 C 469.93 298.64 470.63 298.59 470.99 298.56 C 472.53 299.80 474.24 300.81 475.99 301.73 C 476.34 301.98 477.05 302.46 477.41 302.70 C 479.40 304.06 481.40 305.39 483.43 306.72 L 483.55 307.17 C 485.22 308.32 486.85 309.54 488.51 310.73 L 488.62 311.14 C 495.56 317.00 501.87 323.75 506.83 331.38 L 507.34 331.49 C 508.18 333.06 509.03 334.61 509.84 336.21 C 507.46 340.53 503.69 343.76 500.23 347.17 C 484.52 362.81 468.89 378.52 453.19 394.17 C 446.83 400.19 441.22 407.06 434.19 412.34 C 433.38 405.74 435.19 398.83 432.71 392.50 C 432.31 391.25 431.82 390.03 431.39 388.80 C 429.31 385.90 426.29 383.99 423.10 382.53 C 421.03 382.53 418.96 382.53 416.90 382.54 C 412.94 384.28 409.33 386.98 407.63 391.09 C 406.21 394.88 406.64 398.99 406.66 402.96 C 406.80 413.32 406.63 423.69 406.77 434.05 C 406.64 436.55 407.04 439.38 405.48 441.53 C 403.24 444.59 400.30 447.02 397.66 449.71 C 387.02 460.35 376.49 471.08 365.71 481.57 L 365.21 482.04 C 363.24 480.57 361.22 479.17 359.14 477.88 C 358.17 477.15 357.15 476.50 356.22 475.76 C 354.72 474.62 353.26 473.43 351.87 472.17 C 351.51 471.95 350.80 471.50 350.44 471.27 L 350.41 470.86 C 347.03 468.18 344.06 465.04 341.16 461.88 C 338.41 458.52 335.46 455.30 333.22 451.56 L 332.77 451.44 C 331.61 449.43 330.39 447.46 329.27 445.43 L 328.42 445.38 C 328.44 445.03 328.48 444.32 328.49 443.96 C 326.62 441.44 325.23 438.60 324.24 435.63 L 323.47 435.34 C 323.97 432.62 324.50 429.70 326.72 427.80 C 351.98 402.71 377.09 377.45 402.29 352.29 C 404.88 349.88 407.36 347.33 409.40 344.43 C 413.20 350.35 421.97 352.20 427.56 347.71 C 434.12 343.33 434.57 333.16 428.94 327.84 C 432.74 321.52 438.77 317.10 443.71 311.75 Z" />
<path fill="#dff6fc" opacity="1.00" d=" M 481.25 390.25 C 493.12 378.57 504.60 366.49 516.71 355.06 C 517.40 355.38 518.80 356.03 519.50 356.35 C 519.68 356.43 520.02 356.59 520.20 356.68 C 521.24 361.39 522.99 365.95 523.58 370.76 L 524.27 370.54 C 524.38 373.23 524.55 375.91 524.61 378.60 L 525.36 378.46 C 525.64 386.33 526.02 394.24 525.35 402.10 C 524.66 405.52 524.30 408.98 524.26 412.47 L 523.44 412.22 C 523.39 412.96 523.29 414.44 523.24 415.18 C 522.43 417.58 521.81 420.04 521.34 422.53 L 520.86 422.58 C 520.51 424.50 519.89 426.36 519.25 428.21 C 518.17 430.58 517.27 433.03 516.42 435.49 L 515.85 435.58 C 514.84 438.58 513.46 441.48 511.53 444.00 C 511.55 444.35 511.61 445.04 511.63 445.39 L 510.78 445.46 C 509.66 447.51 508.43 449.49 507.25 451.51 L 506.77 451.66 C 501.99 459.04 495.92 465.51 489.34 471.31 C 489.06 471.56 488.51 472.04 488.23 472.28 C 486.70 473.52 485.17 474.74 483.54 475.84 L 483.42 476.26 C 481.35 477.64 479.26 478.98 477.29 480.50 L 476.38 480.41 L 476.37 481.22 C 474.46 482.08 472.64 483.11 470.99 484.40 C 470.63 484.38 469.91 484.34 469.55 484.32 L 469.42 485.57 C 469.05 485.57 468.30 485.57 467.93 485.57 C 466.38 486.52 464.77 487.34 463.16 488.16 C 461.62 488.69 460.09 489.26 458.54 489.74 L 458.51 490.37 C 457.87 490.49 456.58 490.73 455.94 490.85 C 453.70 491.75 451.40 492.43 449.16 493.30 C 448.45 493.36 447.04 493.47 446.33 493.53 L 446.56 494.39 C 444.87 494.46 443.18 494.55 441.50 494.63 L 441.50 495.33 C 432.01 496.61 422.47 497.85 412.86 497.17 C 408.09 496.45 403.29 495.91 398.50 495.31 L 398.51 494.63 C 396.82 494.55 395.14 494.45 393.45 494.38 L 393.68 493.51 C 392.98 493.46 391.56 493.35 390.86 493.29 C 387.97 492.12 384.96 491.27 382.00 490.30 C 382.14 490.13 382.41 489.79 382.54 489.62 C 384.03 487.76 385.49 485.87 387.19 484.20 C 394.64 476.98 401.93 469.60 409.20 462.20 C 410.94 460.43 412.89 458.87 414.98 457.53 L 415.82 457.88 C 418.19 458.46 420.64 458.54 423.08 458.51 C 427.54 456.71 431.55 453.43 432.74 448.57 C 434.86 444.10 432.50 438.10 436.75 434.67 C 451.64 419.92 466.41 405.04 481.25 390.25 Z" />
</g>
<g id="#d3e9efff">
<path fill="#d3e9ef" opacity="1.00" d=" M 316.47 413.13 C 357.96 371.65 399.51 330.23 440.88 288.63 C 442.50 288.79 444.13 288.96 445.76 289.11 C 446.61 289.26 448.32 289.57 449.18 289.72 C 452.40 291.02 455.89 291.66 458.96 293.35 C 459.49 293.39 460.53 293.47 461.05 293.51 C 460.89 293.73 460.56 294.17 460.39 294.38 C 455.57 300.84 449.21 305.90 443.71 311.75 C 438.77 317.10 432.74 321.52 428.94 327.84 C 427.08 326.60 425.09 325.57 423.13 324.51 C 421.05 324.50 418.97 324.51 416.89 324.52 C 413.91 326.11 410.56 327.63 408.96 330.81 C 406.87 333.86 407.26 337.65 407.43 341.14 C 408.07 342.24 408.72 343.34 409.40 344.43 C 407.36 347.33 404.88 349.88 402.29 352.29 C 377.09 377.45 351.98 402.71 326.72 427.80 C 324.50 429.70 323.97 432.62 323.47 435.34 C 322.82 432.85 321.85 430.46 320.70 428.16 C 320.62 427.50 320.46 426.17 320.38 425.51 L 319.47 425.60 C 319.47 424.83 319.45 423.30 319.44 422.53 L 318.70 422.49 C 318.09 419.33 317.24 416.24 316.47 413.13 Z" />
<path fill="#d3e9ef" opacity="1.00" d=" M 509.84 336.21 L 510.33 335.39 C 510.61 336.05 511.18 337.36 511.46 338.01 C 511.50 338.26 511.56 338.74 511.60 338.98 C 513.44 341.53 514.81 344.39 515.88 347.35 L 516.40 347.54 C 517.37 350.50 518.95 353.26 519.50 356.35 C 518.80 356.03 517.40 355.38 516.71 355.06 C 504.60 366.49 493.12 378.57 481.25 390.25 C 466.41 405.04 451.64 419.92 436.75 434.67 C 432.50 438.10 434.86 444.10 432.74 448.57 C 432.89 429.88 432.91 411.18 432.71 392.50 C 435.19 398.83 433.38 405.74 434.19 412.34 C 441.22 407.06 446.83 400.19 453.19 394.17 C 468.89 378.52 484.52 362.81 500.23 347.17 C 503.69 343.76 507.46 340.53 509.84 336.21 Z" />
<path fill="#d3e9ef" opacity="1.00" d=" M 406.66 402.96 C 406.64 398.99 406.21 394.88 407.63 391.09 C 407.15 394.70 407.21 398.34 407.23 401.98 C 407.28 416.65 407.18 431.33 407.26 446.01 C 407.15 450.98 410.49 455.56 414.98 457.53 C 412.89 458.87 410.94 460.43 409.20 462.20 C 401.93 469.60 394.64 476.98 387.19 484.20 C 385.49 485.87 384.03 487.76 382.54 489.62 C 378.69 489.59 375.36 487.20 372.03 485.52 C 371.67 485.54 370.96 485.57 370.60 485.59 L 370.56 484.74 C 368.82 483.89 366.82 483.26 365.71 481.57 C 376.49 471.08 387.02 460.35 397.66 449.71 C 400.30 447.02 403.24 444.59 405.48 441.53 C 407.04 439.38 406.64 436.55 406.77 434.05 C 406.63 423.69 406.80 413.32 406.66 402.96 Z" />
</g>
<g id="#ffffffff">
<path fill="#ffffff" opacity="1.00" d=" M 565.32 503.46 C 565.60 502.55 565.89 501.65 566.19 500.76 L 566.64 502.45 C 567.09 502.43 567.98 502.39 568.42 502.37 L 568.27 503.59 L 569.01 503.70 C 569.95 504.61 570.91 505.51 571.89 506.39 L 571.40 507.27 C 569.46 510.28 566.74 512.64 564.26 515.17 C 557.93 521.50 551.56 527.80 545.26 534.16 C 542.24 537.15 539.51 540.69 535.46 542.33 L 534.19 542.65 C 533.15 541.18 531.86 539.94 530.44 538.88 C 530.26 536.88 532.16 536.16 533.57 535.26 L 533.65 534.87 C 535.06 533.87 536.39 532.75 537.75 531.67 C 538.04 531.46 538.61 531.06 538.89 530.85 C 541.68 528.34 544.39 525.73 547.10 523.13 C 547.95 522.32 548.81 521.52 549.67 520.72 C 549.93 520.38 550.43 519.70 550.69 519.36 L 551.11 519.41 C 553.64 516.21 556.71 513.51 559.30 510.38 C 559.53 510.07 559.99 509.45 560.21 509.14 C 561.62 507.47 563.00 505.77 564.54 504.21 L 564.31 503.37 L 565.32 503.46 Z" />
<path fill="#ffffff" opacity="1.00" d=" M 578.02 524.96 C 579.96 523.04 581.79 520.53 584.77 520.39 L 585.95 520.32 C 587.05 522.18 588.72 523.56 590.37 524.91 C 590.40 525.33 590.45 526.19 590.47 526.61 C 578.70 538.10 567.18 549.85 555.53 561.45 C 552.24 562.58 550.92 557.82 548.20 556.75 L 548.61 555.88 C 550.58 551.08 554.88 547.94 558.41 544.35 C 564.85 537.79 571.66 531.60 578.02 524.96 Z" />
</g>
<g id="#f2f2f2ff">
<path fill="#f2f2f2" opacity="1.00" d=" M 571.40 507.27 C 571.80 507.34 572.60 507.47 573.01 507.54 C 576.95 512.00 581.22 516.19 585.63 520.20 L 584.77 520.39 C 581.79 520.53 579.96 523.04 578.02 524.96 C 571.66 531.60 564.85 537.79 558.41 544.35 C 554.88 547.94 550.58 551.08 548.61 555.88 C 548.21 555.73 547.39 555.45 546.98 555.31 C 543.01 550.95 538.85 546.74 534.44 542.83 L 535.46 542.33 C 539.51 540.69 542.24 537.15 545.26 534.16 C 551.56 527.80 557.93 521.50 564.26 515.17 C 566.74 512.64 569.46 510.28 571.40 507.27 Z" />
</g>
<g id="#b5bcc9ff">
<path fill="#b5bcc9" opacity="1.00" d=" M 608.82 544.49 C 609.13 544.56 609.76 544.71 610.07 544.78 C 616.62 551.50 623.23 558.17 630.01 564.67 L 629.31 565.33 C 619.12 575.46 608.89 585.55 598.87 595.85 C 597.05 597.68 594.93 599.18 592.73 600.51 L 592.26 600.79 C 586.78 594.29 580.30 588.70 574.47 582.53 C 573.88 581.80 573.40 581.00 573.04 580.15 C 585.19 568.50 597.01 556.49 608.82 544.49 Z" />
<path fill="#b5bcc9" opacity="1.00" d=" M 629.75 589.74 C 633.98 585.96 637.23 580.84 642.60 578.55 L 643.89 578.25 C 653.99 589.40 665.11 599.62 675.59 610.42 C 679.66 614.80 684.43 618.58 688.02 623.37 C 685.74 624.92 683.90 627.00 681.99 628.97 C 675.19 635.86 668.41 642.78 661.53 649.58 C 658.28 652.70 655.54 656.56 651.26 658.35 L 650.25 658.79 C 643.78 651.29 636.32 644.69 629.46 637.55 C 621.65 629.70 613.77 621.93 606.01 614.04 C 613.46 605.51 621.85 597.85 629.75 589.74 Z" />
<path fill="#b5bcc9" opacity="1.00" d=" M 701.04 636.53 C 701.26 636.50 701.70 636.42 701.92 636.38 C 702.35 637.54 702.83 638.69 703.37 639.83 C 704.63 642.41 705.38 645.20 706.26 647.95 C 706.34 650.36 706.35 652.78 706.30 655.20 C 705.42 658.21 704.61 661.25 703.36 664.13 C 700.32 669.56 695.47 673.57 689.89 676.18 C 688.89 676.39 687.91 676.61 686.95 676.84 C 683.08 678.19 678.91 677.65 674.92 677.37 C 673.33 676.80 671.74 676.28 670.17 675.71 C 668.44 674.80 666.70 673.89 664.95 673.06 L 665.26 671.86 C 666.23 668.37 669.35 666.21 671.76 663.75 C 678.30 657.28 684.75 650.71 691.28 644.23 C 694.24 641.36 696.84 637.63 701.04 636.53 Z" />
</g>
<g id="#abb2beff">
<path fill="#abb2be" opacity="1.00" d=" M 598.87 595.85 C 608.89 585.55 619.12 575.46 629.31 565.33 C 629.74 565.35 630.59 565.38 631.01 565.40 C 634.81 569.97 639.14 574.11 643.57 578.07 L 642.60 578.55 C 637.23 580.84 633.98 585.96 629.75 589.74 C 621.85 597.85 613.46 605.51 606.01 614.04 C 601.56 609.55 596.85 605.30 592.73 600.51 C 594.93 599.18 597.05 597.68 598.87 595.85 Z" />
<path fill="#abb2be" opacity="1.00" d=" M 681.99 628.97 C 683.90 627.00 685.74 624.92 688.02 623.37 C 688.26 623.34 688.73 623.28 688.96 623.25 C 692.43 628.17 697.69 631.52 701.04 636.53 C 696.84 637.63 694.24 641.36 691.28 644.23 C 684.75 650.71 678.30 657.28 671.76 663.75 C 669.35 666.21 666.23 668.37 665.26 671.86 L 664.90 672.86 C 660.00 668.25 655.42 663.33 650.51 658.73 L 651.26 658.35 C 655.54 656.56 658.28 652.70 661.53 649.58 C 668.41 642.78 675.19 635.86 681.99 628.97 Z" />
</g>
<g id="#ecedeeff">
<path fill="#ecedee" opacity="1.00" d=" M 383.98 571.16 C 389.89 571.96 395.74 573.34 401.72 573.51 C 401.67 573.69 401.57 574.05 401.53 574.23 C 405.13 574.29 408.74 574.44 412.35 574.52 C 410.43 577.16 408.12 579.49 405.76 581.74 C 373.31 614.29 340.72 646.70 308.27 679.24 C 304.33 682.84 299.33 685.11 295.80 689.20 C 289.18 689.28 282.54 689.52 275.92 688.98 C 281.27 683.29 286.30 677.34 291.22 671.30 C 301.88 660.58 312.63 649.97 323.25 639.23 C 325.86 636.01 330.43 637.26 334.03 637.13 C 336.42 636.98 339.35 638.25 341.20 636.17 L 341.98 635.52 C 344.66 633.46 347.61 631.30 348.64 627.91 C 350.60 622.87 348.68 617.12 344.78 613.59 C 348.35 614.16 350.60 611.10 352.84 608.90 C 364.37 597.07 376.26 585.59 387.75 573.72 C 386.49 572.85 385.25 571.98 383.98 571.16 Z" />
</g>
<g id="#eceeefff">
<path fill="#eceeef" opacity="1.00" d=" M 809.85 616.56 C 809.93 616.46 810.10 616.26 810.18 616.16 C 811.04 616.19 811.92 616.25 812.80 616.34 C 812.82 622.56 812.97 628.78 812.78 635.00 C 812.88 637.86 810.43 639.73 808.85 641.78 C 802.33 649.91 794.41 656.73 787.27 664.28 C 782.66 669.36 776.85 673.13 772.36 678.32 C 768.42 682.11 764.20 685.67 759.93 689.06 C 753.64 689.58 747.29 689.35 740.99 689.05 C 744.64 682.85 750.51 678.49 754.77 672.77 C 761.26 665.63 768.56 659.25 774.99 652.05 C 779.60 646.45 785.14 641.73 790.03 636.39 C 788.24 636.06 786.46 635.74 784.69 635.43 C 795.33 633.14 804.39 625.86 809.85 616.56 Z" />
</g>
<g id="#ebedeeff">
<path fill="#ebedee" opacity="1.00" d=" M 412.73 665.79 C 423.50 655.21 433.94 644.31 444.78 633.82 C 446.41 634.79 448.13 635.61 449.83 636.45 C 455.31 636.51 460.79 636.49 466.28 636.51 C 464.64 638.77 462.79 640.87 460.76 642.78 C 454.83 648.51 449.18 654.53 443.18 660.18 C 432.36 668.96 423.80 680.20 412.78 688.74 C 406.83 694.05 398.26 692.16 391.04 691.81 C 390.21 688.69 394.08 687.00 395.47 684.59 C 400.27 677.49 406.79 671.88 412.73 665.79 Z" />
<path fill="#ebedee" opacity="1.00" d=" M 203.82 642.82 C 206.14 640.49 208.22 636.82 211.99 637.13 C 219.30 637.07 226.62 637.03 233.94 637.30 C 222.15 649.70 209.71 661.48 197.79 673.77 C 193.11 678.85 187.02 682.25 181.76 686.66 C 179.39 685.51 177.01 684.39 174.61 683.31 C 173.76 681.33 172.96 679.33 172.21 677.32 C 180.88 664.20 194.05 655.03 203.82 642.82 Z" />
<path fill="#ebedee" opacity="1.00" d=" M 557.38 636.50 C 565.66 636.49 573.95 636.48 582.24 636.51 C 578.04 642.14 572.60 646.68 567.79 651.75 C 556.89 660.82 547.54 671.55 537.23 681.26 C 534.13 683.94 530.64 686.17 527.78 689.14 C 521.17 689.33 514.54 689.50 507.95 688.95 C 512.74 683.72 518.08 678.92 521.84 672.84 C 529.84 664.54 538.12 656.47 546.28 648.31 C 550.06 644.45 554.17 640.88 557.38 636.50 Z" />
</g>
</svg>
